<svg class="figsvg" preserveAspectRatio="xMidYMid meet" xmlns:xlink="http://www.w3.org/1999/xlink" width="429.005341pt" height="209.52pt" viewBox="0 0 429.005341 209.52" xmlns="http://www.w3.org/2000/svg" version="1.1">
 <metadata>
  <rdf:RDF xmlns:dc="http://purl.org/dc/elements/1.1/" xmlns:cc="http://creativecommons.org/ns#" xmlns:rdf="http://www.w3.org/1999/02/22-rdf-syntax-ns#">
   <cc:Work>
    <dc:type rdf:resource="http://purl.org/dc/dcmitype/StillImage"/>
    <dc:date>2026-09-16T10:51:33.457186</dc:date>
    <dc:format>image/svg+xml</dc:format>
    <dc:creator>
     <cc:Agent>
      <dc:title>Matplotlib v3.11.1, https://matplotlib.org/</dc:title>
     </cc:Agent>
    </dc:creator>
   </cc:Work>
  </rdf:RDF>
 </metadata>
 <defs>
  <style type="text/css">*{stroke-linejoin: round; stroke-linecap: butt}</style>
 </defs>
 <g id="figure_1">
  <g id="patch_1">
   <path d="M 0 209.52 
L 429.005341 209.52 
L 429.005341 0 
L 0 0 
z
" style="fill: #ffffff"/>
  </g>
  <g id="axes_1">
   <g id="patch_2">
    <path d="M 48.18625 164.71 
L 423.245341 164.71 
L 423.245341 22.92 
L 48.18625 22.92 
z
" style="fill: #ffffff"/>
   </g>
   <g id="matplotlib.axis_1">
    <g id="xtick_1">
     <g id="line2d_1">
      <path d="M 65.23439 164.71 
L 65.23439 22.92 
" clip-path="url(#p50ecdce078)" style="fill: none; stroke: #e5e7eb; stroke-width: 0.6; stroke-linecap: round"/>
     </g>
     <g id="line2d_2">
      <defs>
       <path id="m934d5783de" d="M 0 0 
L 0 3.5 
" style="stroke: #6b7280; stroke-width: 0.8"/>
      </defs>
      <g>
       <use xlink:href="#m934d5783de" x="65.23439" y="164.71" style="fill: #6b7280; stroke: #6b7280; stroke-width: 0.8"/>
      </g>
     </g>
     <g id="text_1">
      <!-- 0.0 -->
      <g style="fill: #6b7280" transform="translate(59.346265 180.638) scale(0.08 -0.08)">
       <defs>
        <path id="IBMPlexSansThai-Regular-3b" d="M 1920 -77 
Q 1120 -77 752 531 
Q 384 1139 384 2234 
Q 384 3328 752 3936 
Q 1120 4544 1920 4544 
Q 2720 4544 3088 3936 
Q 3456 3328 3456 2234 
Q 3456 1139 3088 531 
Q 2720 -77 1920 -77 
z
M 1920 390 
Q 2182 390 2368 499 
Q 2554 608 2669 806 
Q 2784 1005 2838 1273 
Q 2893 1542 2893 1869 
L 2893 2598 
Q 2893 2925 2838 3193 
Q 2784 3462 2669 3660 
Q 2554 3859 2368 3968 
Q 2182 4077 1920 4077 
Q 1658 4077 1472 3968 
Q 1286 3859 1171 3660 
Q 1056 3462 1001 3193 
Q 947 2925 947 2598 
L 947 1869 
Q 947 1542 1001 1273 
Q 1056 1005 1171 806 
Q 1286 608 1472 499 
Q 1658 390 1920 390 
z
" transform="scale(0.015625)"/>
        <path id="IBMPlexSansThai-Regular-4e" d="M 870 -77 
Q 666 -77 573 25 
Q 480 128 480 294 
L 480 378 
Q 480 544 573 646 
Q 666 749 870 749 
Q 1075 749 1168 646 
Q 1261 544 1261 378 
L 1261 294 
Q 1261 128 1168 25 
Q 1075 -77 870 -77 
z
" transform="scale(0.015625)"/>
       </defs>
       <use xlink:href="#IBMPlexSansThai-Regular-3b"/>
       <use xlink:href="#IBMPlexSansThai-Regular-4e" transform="translate(60 0)"/>
       <use xlink:href="#IBMPlexSansThai-Regular-3b" transform="translate(87.203125 0)"/>
      </g>
     </g>
    </g>
    <g id="xtick_2">
     <g id="line2d_3">
      <path d="M 133.426952 164.71 
L 133.426952 22.92 
" clip-path="url(#p50ecdce078)" style="fill: none; stroke: #e5e7eb; stroke-width: 0.6; stroke-linecap: round"/>
     </g>
     <g id="line2d_4">
      <g>
       <use xlink:href="#m934d5783de" x="133.426952" y="164.71" style="fill: #6b7280; stroke: #6b7280; stroke-width: 0.8"/>
      </g>
     </g>
     <g id="text_2">
      <!-- 0.2 -->
      <g style="fill: #6b7280" transform="translate(127.538827 180.638) scale(0.08 -0.08)">
       <defs>
        <path id="IBMPlexSansThai-Regular-3f" d="M 3411 0 
L 480 0 
L 480 550 
L 1939 1894 
Q 2253 2182 2464 2505 
Q 2675 2829 2675 3155 
L 2675 3232 
Q 2675 3603 2470 3833 
Q 2266 4064 1850 4064 
Q 1645 4064 1491 4006 
Q 1338 3949 1226 3846 
Q 1114 3744 1040 3606 
Q 966 3469 922 3309 
L 442 3494 
Q 506 3693 618 3881 
Q 730 4070 899 4217 
Q 1069 4365 1309 4454 
Q 1549 4544 1875 4544 
Q 2202 4544 2458 4448 
Q 2714 4352 2886 4179 
Q 3059 4006 3152 3769 
Q 3245 3533 3245 3245 
Q 3245 2982 3171 2758 
Q 3098 2534 2970 2332 
Q 2842 2131 2659 1939 
Q 2477 1747 2266 1555 
L 1062 474 
L 3411 474 
L 3411 0 
z
" transform="scale(0.015625)"/>
       </defs>
       <use xlink:href="#IBMPlexSansThai-Regular-3b"/>
       <use xlink:href="#IBMPlexSansThai-Regular-4e" transform="translate(60 0)"/>
       <use xlink:href="#IBMPlexSansThai-Regular-3f" transform="translate(87.203125 0)"/>
      </g>
     </g>
    </g>
    <g id="xtick_3">
     <g id="line2d_5">
      <path d="M 201.619514 164.71 
L 201.619514 22.92 
" clip-path="url(#p50ecdce078)" style="fill: none; stroke: #e5e7eb; stroke-width: 0.6; stroke-linecap: round"/>
     </g>
     <g id="line2d_6">
      <g>
       <use xlink:href="#m934d5783de" x="201.619514" y="164.71" style="fill: #6b7280; stroke: #6b7280; stroke-width: 0.8"/>
      </g>
     </g>
     <g id="text_3">
      <!-- 0.4 -->
      <g style="fill: #6b7280" transform="translate(195.731389 180.638) scale(0.08 -0.08)">
       <defs>
        <path id="IBMPlexSansThai-Regular-41" d="M 2400 0 
L 2400 877 
L 243 877 
L 243 1350 
L 2112 4467 
L 2912 4467 
L 2912 1325 
L 3558 1325 
L 3558 877 
L 2912 877 
L 2912 0 
L 2400 0 
z
M 749 1325 
L 2400 1325 
L 2400 4051 
L 2368 4051 
L 749 1325 
z
" transform="scale(0.015625)"/>
       </defs>
       <use xlink:href="#IBMPlexSansThai-Regular-3b"/>
       <use xlink:href="#IBMPlexSansThai-Regular-4e" transform="translate(60 0)"/>
       <use xlink:href="#IBMPlexSansThai-Regular-41" transform="translate(87.203125 0)"/>
      </g>
     </g>
    </g>
    <g id="xtick_4">
     <g id="line2d_7">
      <path d="M 269.812076 164.71 
L 269.812076 22.92 
" clip-path="url(#p50ecdce078)" style="fill: none; stroke: #e5e7eb; stroke-width: 0.6; stroke-linecap: round"/>
     </g>
     <g id="line2d_8">
      <g>
       <use xlink:href="#m934d5783de" x="269.812076" y="164.71" style="fill: #6b7280; stroke: #6b7280; stroke-width: 0.8"/>
      </g>
     </g>
     <g id="text_4">
      <!-- 0.6 -->
      <g style="fill: #6b7280" transform="translate(263.923951 180.638) scale(0.08 -0.08)">
       <defs>
        <path id="IBMPlexSansThai-Regular-43" d="M 1926 -77 
Q 1581 -77 1302 41 
Q 1024 160 829 381 
Q 634 602 531 922 
Q 429 1242 429 1638 
Q 429 2138 576 2576 
Q 723 3014 956 3376 
Q 1190 3738 1472 4016 
Q 1754 4294 2022 4467 
L 2714 4467 
Q 2355 4205 2073 3955 
Q 1792 3706 1581 3434 
Q 1370 3162 1222 2851 
Q 1075 2541 986 2150 
L 1018 2138 
Q 1178 2413 1430 2595 
Q 1683 2778 2093 2778 
Q 2381 2778 2624 2682 
Q 2867 2586 3040 2406 
Q 3213 2227 3312 1971 
Q 3411 1715 3411 1402 
Q 3411 1075 3305 803 
Q 3200 531 3005 336 
Q 2810 141 2534 32 
Q 2259 -77 1926 -77 
z
M 1920 390 
Q 2362 390 2608 633 
Q 2854 877 2854 1331 
L 2854 1382 
Q 2854 1837 2608 2080 
Q 2362 2323 1920 2323 
Q 1478 2323 1232 2080 
Q 986 1837 986 1382 
L 986 1331 
Q 986 877 1232 633 
Q 1478 390 1920 390 
z
" transform="scale(0.015625)"/>
       </defs>
       <use xlink:href="#IBMPlexSansThai-Regular-3b"/>
       <use xlink:href="#IBMPlexSansThai-Regular-4e" transform="translate(60 0)"/>
       <use xlink:href="#IBMPlexSansThai-Regular-43" transform="translate(87.203125 0)"/>
      </g>
     </g>
    </g>
    <g id="xtick_5">
     <g id="line2d_9">
      <path d="M 338.004638 164.71 
L 338.004638 22.92 
" clip-path="url(#p50ecdce078)" style="fill: none; stroke: #e5e7eb; stroke-width: 0.6; stroke-linecap: round"/>
     </g>
     <g id="line2d_10">
      <g>
       <use xlink:href="#m934d5783de" x="338.004638" y="164.71" style="fill: #6b7280; stroke: #6b7280; stroke-width: 0.8"/>
      </g>
     </g>
     <g id="text_5">
      <!-- 0.8 -->
      <g style="fill: #6b7280" transform="translate(332.116513 180.638) scale(0.08 -0.08)">
       <defs>
        <path id="IBMPlexSansThai-Regular-45" d="M 1920 -77 
Q 1536 -77 1248 22 
Q 960 122 765 294 
Q 570 467 470 704 
Q 371 941 371 1216 
Q 371 1677 620 1945 
Q 870 2214 1274 2323 
L 1274 2374 
Q 922 2496 714 2768 
Q 506 3040 506 3424 
Q 506 3936 877 4240 
Q 1248 4544 1920 4544 
Q 2592 4544 2963 4240 
Q 3334 3936 3334 3424 
Q 3334 3040 3126 2768 
Q 2918 2496 2566 2374 
L 2566 2323 
Q 2970 2214 3219 1945 
Q 3469 1677 3469 1216 
Q 3469 941 3369 704 
Q 3270 467 3075 294 
Q 2880 122 2592 22 
Q 2304 -77 1920 -77 
z
M 1920 390 
Q 2387 390 2643 598 
Q 2899 806 2899 1190 
L 2899 1325 
Q 2899 1709 2643 1917 
Q 2387 2125 1920 2125 
Q 1453 2125 1197 1917 
Q 941 1709 941 1325 
L 941 1190 
Q 941 806 1197 598 
Q 1453 390 1920 390 
z
M 1920 2573 
Q 2342 2573 2560 2752 
Q 2778 2931 2778 3277 
L 2778 3373 
Q 2778 3718 2560 3897 
Q 2342 4077 1920 4077 
Q 1498 4077 1280 3897 
Q 1062 3718 1062 3373 
L 1062 3277 
Q 1062 2931 1280 2752 
Q 1498 2573 1920 2573 
z
" transform="scale(0.015625)"/>
       </defs>
       <use xlink:href="#IBMPlexSansThai-Regular-3b"/>
       <use xlink:href="#IBMPlexSansThai-Regular-4e" transform="translate(60 0)"/>
       <use xlink:href="#IBMPlexSansThai-Regular-45" transform="translate(87.203125 0)"/>
      </g>
     </g>
    </g>
    <g id="xtick_6">
     <g id="line2d_11">
      <path d="M 406.1972 164.71 
L 406.1972 22.92 
" clip-path="url(#p50ecdce078)" style="fill: none; stroke: #e5e7eb; stroke-width: 0.6; stroke-linecap: round"/>
     </g>
     <g id="line2d_12">
      <g>
       <use xlink:href="#m934d5783de" x="406.1972" y="164.71" style="fill: #6b7280; stroke: #6b7280; stroke-width: 0.8"/>
      </g>
     </g>
     <g id="text_6">
      <!-- 1.0 -->
      <g style="fill: #6b7280" transform="translate(400.309075 180.638) scale(0.08 -0.08)">
       <defs>
        <path id="IBMPlexSansThai-Regular-3e" d="M 563 0 
L 563 474 
L 1811 474 
L 1811 4070 
L 1766 4070 
L 640 3021 
L 326 3360 
L 1510 4467 
L 2349 4467 
L 2349 474 
L 3501 474 
L 3501 0 
L 563 0 
z
" transform="scale(0.015625)"/>
       </defs>
       <use xlink:href="#IBMPlexSansThai-Regular-3e"/>
       <use xlink:href="#IBMPlexSansThai-Regular-4e" transform="translate(60 0)"/>
       <use xlink:href="#IBMPlexSansThai-Regular-3b" transform="translate(87.203125 0)"/>
      </g>
     </g>
    </g>
    <g id="text_7">
     <!-- Time -->
     <g style="fill: #111418" transform="translate(225.617514 198.954) scale(0.09 -0.09)">
      <defs>
       <path id="IBMPlexSansThai-Regular-34" d="M 2099 3994 
L 2099 0 
L 1562 0 
L 1562 3994 
L 141 3994 
L 141 4467 
L 3520 4467 
L 3520 3994 
L 2099 3994 
z
" transform="scale(0.015625)"/>
       <path id="IBMPlexSansThai-Regular-f" d="M 800 4077 
Q 634 4077 560 4157 
Q 486 4237 486 4365 
L 486 4448 
Q 486 4576 560 4656 
Q 634 4736 800 4736 
Q 966 4736 1040 4656 
Q 1114 4576 1114 4448 
L 1114 4365 
Q 1114 4237 1040 4157 
Q 966 4077 800 4077 
z
M 544 3302 
L 1056 3302 
L 1056 0 
L 544 0 
L 544 3302 
z
" transform="scale(0.015625)"/>
       <path id="IBMPlexSansThai-Regular-13" d="M 544 0 
L 544 3302 
L 1056 3302 
L 1056 2765 
L 1082 2765 
Q 1139 2893 1212 3005 
Q 1286 3117 1392 3200 
Q 1498 3283 1638 3331 
Q 1779 3379 1971 3379 
Q 2298 3379 2573 3222 
Q 2848 3066 2982 2707 
L 2995 2707 
Q 3085 2976 3331 3177 
Q 3578 3379 4000 3379 
Q 4506 3379 4790 3049 
Q 5075 2720 5075 2118 
L 5075 0 
L 4563 0 
L 4563 2029 
Q 4563 2470 4390 2694 
Q 4218 2918 3840 2918 
Q 3686 2918 3548 2880 
Q 3411 2842 3302 2765 
Q 3194 2688 3130 2569 
Q 3066 2451 3066 2291 
L 3066 0 
L 2554 0 
L 2554 2029 
Q 2554 2470 2381 2694 
Q 2208 2918 1843 2918 
Q 1690 2918 1549 2880 
Q 1408 2842 1299 2765 
Q 1190 2688 1123 2569 
Q 1056 2451 1056 2291 
L 1056 0 
L 544 0 
z
" transform="scale(0.015625)"/>
       <path id="IBMPlexSansThai-Regular-9" d="M 1786 -77 
Q 1446 -77 1174 44 
Q 902 166 707 393 
Q 512 621 406 937 
Q 301 1254 301 1651 
Q 301 2042 406 2362 
Q 512 2682 707 2909 
Q 902 3136 1174 3257 
Q 1446 3379 1786 3379 
Q 2118 3379 2380 3257 
Q 2643 3136 2828 2921 
Q 3014 2707 3113 2412 
Q 3213 2118 3213 1766 
L 3213 1523 
L 838 1523 
L 838 1370 
Q 838 1158 905 976 
Q 973 794 1097 659 
Q 1222 525 1404 448 
Q 1587 371 1818 371 
Q 2131 371 2364 518 
Q 2598 666 2726 941 
L 3091 678 
Q 2931 339 2592 131 
Q 2253 -77 1786 -77 
z
M 1786 2950 
Q 1574 2950 1401 2876 
Q 1229 2803 1104 2668 
Q 979 2534 908 2352 
Q 838 2170 838 1952 
L 838 1907 
L 2662 1907 
L 2662 1978 
Q 2662 2419 2422 2684 
Q 2182 2950 1786 2950 
z
" transform="scale(0.015625)"/>
      </defs>
      <use xlink:href="#IBMPlexSansThai-Regular-34"/>
      <use xlink:href="#IBMPlexSansThai-Regular-f" transform="translate(57.203125 0)"/>
      <use xlink:href="#IBMPlexSansThai-Regular-13" transform="translate(82.203125 0)"/>
      <use xlink:href="#IBMPlexSansThai-Regular-9" transform="translate(169.5 0)"/>
     </g>
    </g>
   </g>
   <g id="matplotlib.axis_2">
    <g id="ytick_1">
     <g id="line2d_13">
      <path d="M 48.18625 162.569039 
L 423.245341 162.569039 
" clip-path="url(#p50ecdce078)" style="fill: none; stroke: #e5e7eb; stroke-width: 0.6; stroke-linecap: round"/>
     </g>
     <g id="line2d_14">
      <defs>
       <path id="m51de02971f" d="M 0 0 
L -3.5 0 
" style="stroke: #6b7280; stroke-width: 0.8"/>
      </defs>
      <g>
       <use xlink:href="#m51de02971f" x="48.18625" y="162.569039" style="fill: #6b7280; stroke: #6b7280; stroke-width: 0.8"/>
      </g>
     </g>
     <g id="text_8">
      <!-- −0.5 -->
      <g style="fill: #6b7280" transform="translate(24.61 167.033039) scale(0.08 -0.08)">
       <defs>
        <path id="IBMPlexSansThai-Regular-80" d="M 429 1734 
L 429 2170 
L 3411 2170 
L 3411 1734 
L 429 1734 
z
" transform="scale(0.015625)"/>
        <path id="IBMPlexSansThai-Regular-42" d="M 3187 3994 
L 1229 3994 
L 1101 2291 
L 1146 2291 
Q 1306 2515 1507 2649 
Q 1709 2784 2061 2784 
Q 2349 2784 2592 2688 
Q 2835 2592 3014 2416 
Q 3194 2240 3293 1984 
Q 3392 1728 3392 1402 
Q 3392 1075 3289 803 
Q 3187 531 2992 336 
Q 2797 141 2518 32 
Q 2240 -77 1888 -77 
Q 1606 -77 1392 -13 
Q 1178 51 1011 160 
Q 845 269 720 403 
Q 595 538 493 685 
L 896 992 
Q 979 858 1072 749 
Q 1165 640 1277 563 
Q 1389 486 1536 444 
Q 1683 403 1888 403 
Q 2349 403 2585 646 
Q 2822 890 2822 1331 
L 2822 1395 
Q 2822 1837 2585 2080 
Q 2349 2323 1888 2323 
Q 1581 2323 1405 2211 
Q 1229 2099 1088 1946 
L 634 2010 
L 794 4467 
L 3187 4467 
L 3187 3994 
z
" transform="scale(0.015625)"/>
       </defs>
       <use xlink:href="#IBMPlexSansThai-Regular-80"/>
       <use xlink:href="#IBMPlexSansThai-Regular-3b" transform="translate(60 0)"/>
       <use xlink:href="#IBMPlexSansThai-Regular-4e" transform="translate(120 0)"/>
       <use xlink:href="#IBMPlexSansThai-Regular-42" transform="translate(147.203125 0)"/>
      </g>
     </g>
    </g>
    <g id="ytick_2">
     <g id="line2d_15">
      <path d="M 48.18625 128.975949 
L 423.245341 128.975949 
" clip-path="url(#p50ecdce078)" style="fill: none; stroke: #e5e7eb; stroke-width: 0.6; stroke-linecap: round"/>
     </g>
     <g id="line2d_16">
      <g>
       <use xlink:href="#m51de02971f" x="48.18625" y="128.975949" style="fill: #6b7280; stroke: #6b7280; stroke-width: 0.8"/>
      </g>
     </g>
     <g id="text_9">
      <!-- 0.0 -->
      <g style="fill: #6b7280" transform="translate(29.41 133.439949) scale(0.08 -0.08)">
       <use xlink:href="#IBMPlexSansThai-Regular-3b"/>
       <use xlink:href="#IBMPlexSansThai-Regular-4e" transform="translate(60 0)"/>
       <use xlink:href="#IBMPlexSansThai-Regular-3b" transform="translate(87.203125 0)"/>
      </g>
     </g>
    </g>
    <g id="ytick_3">
     <g id="line2d_17">
      <path d="M 48.18625 95.382858 
L 423.245341 95.382858 
" clip-path="url(#p50ecdce078)" style="fill: none; stroke: #e5e7eb; stroke-width: 0.6; stroke-linecap: round"/>
     </g>
     <g id="line2d_18">
      <g>
       <use xlink:href="#m51de02971f" x="48.18625" y="95.382858" style="fill: #6b7280; stroke: #6b7280; stroke-width: 0.8"/>
      </g>
     </g>
     <g id="text_10">
      <!-- 0.5 -->
      <g style="fill: #6b7280" transform="translate(29.41 99.846858) scale(0.08 -0.08)">
       <use xlink:href="#IBMPlexSansThai-Regular-3b"/>
       <use xlink:href="#IBMPlexSansThai-Regular-4e" transform="translate(60 0)"/>
       <use xlink:href="#IBMPlexSansThai-Regular-42" transform="translate(87.203125 0)"/>
      </g>
     </g>
    </g>
    <g id="ytick_4">
     <g id="line2d_19">
      <path d="M 48.18625 61.789767 
L 423.245341 61.789767 
" clip-path="url(#p50ecdce078)" style="fill: none; stroke: #e5e7eb; stroke-width: 0.6; stroke-linecap: round"/>
     </g>
     <g id="line2d_20">
      <g>
       <use xlink:href="#m51de02971f" x="48.18625" y="61.789767" style="fill: #6b7280; stroke: #6b7280; stroke-width: 0.8"/>
      </g>
     </g>
     <g id="text_11">
      <!-- 1.0 -->
      <g style="fill: #6b7280" transform="translate(29.41 66.253767) scale(0.08 -0.08)">
       <use xlink:href="#IBMPlexSansThai-Regular-3e"/>
       <use xlink:href="#IBMPlexSansThai-Regular-4e" transform="translate(60 0)"/>
       <use xlink:href="#IBMPlexSansThai-Regular-3b" transform="translate(87.203125 0)"/>
      </g>
     </g>
    </g>
    <g id="ytick_5">
     <g id="line2d_21">
      <path d="M 48.18625 28.196677 
L 423.245341 28.196677 
" clip-path="url(#p50ecdce078)" style="fill: none; stroke: #e5e7eb; stroke-width: 0.6; stroke-linecap: round"/>
     </g>
     <g id="line2d_22">
      <g>
       <use xlink:href="#m51de02971f" x="48.18625" y="28.196677" style="fill: #6b7280; stroke: #6b7280; stroke-width: 0.8"/>
      </g>
     </g>
     <g id="text_12">
      <!-- 1.5 -->
      <g style="fill: #6b7280" transform="translate(29.41 32.660677) scale(0.08 -0.08)">
       <use xlink:href="#IBMPlexSansThai-Regular-3e"/>
       <use xlink:href="#IBMPlexSansThai-Regular-4e" transform="translate(60 0)"/>
       <use xlink:href="#IBMPlexSansThai-Regular-42" transform="translate(87.203125 0)"/>
      </g>
     </g>
    </g>
    <g id="text_13">
     <!-- $W$ -->
     <g style="fill: #111418" transform="translate(15.804 98.27) rotate(-90) scale(0.09 -0.09)">
      <defs>
       <path id="DejaVuSans-Oblique-3a" d="M 616 4666 
L 1228 4666 
L 1453 697 
L 3213 4666 
L 3916 4666 
L 4147 697 
L 5888 4666 
L 6528 4666 
L 4453 0 
L 3659 0 
L 3444 3891 
L 1697 0 
L 903 0 
L 616 4666 
z
" transform="scale(0.015625)"/>
      </defs>
      <use xlink:href="#DejaVuSans-Oblique-3a" transform="translate(0 0.09375)"/>
     </g>
    </g>
   </g>
   <g id="patch_3">
    <path d="M 65.23439 164.71 
L 184.571374 164.71 
L 184.571374 22.92 
L 65.23439 22.92 
z
" clip-path="url(#p50ecdce078)" style="fill: #d97706; opacity: 0.16; stroke: #d97706; stroke-linejoin: miter"/>
   </g>
   <g id="patch_4">
    <path d="M 184.571374 164.71 
L 344.823895 164.71 
L 344.823895 22.92 
L 184.571374 22.92 
z
" clip-path="url(#p50ecdce078)" style="fill: #059669; opacity: 0.12; stroke: #059669; stroke-linejoin: miter"/>
   </g>
   <g id="line2d_23">
    <path d="M 65.23439 128.975949 
L 65.72148 126.737234 
L 66.20857 126.04271 
L 66.69566 126.186482 
L 67.182749 123.518057 
L 67.669839 119.736518 
L 68.644019 121.438069 
L 69.131108 119.148886 
L 69.618198 124.872591 
L 70.105288 123.624712 
L 70.592378 117.184624 
L 71.079467 116.112672 
L 71.566557 116.963784 
L 72.053647 120.701286 
L 72.540736 126.978485 
L 73.027826 130.546749 
L 73.514916 128.788622 
L 74.002006 130.062503 
L 74.489095 129.490343 
L 74.976185 129.163869 
L 75.463275 130.106758 
L 75.950365 130.156027 
L 76.437454 126.89848 
L 76.924544 126.623828 
L 77.411634 126.499982 
L 77.898723 132.183457 
L 78.385813 128.113655 
L 78.872903 130.048877 
L 79.359993 130.398276 
L 79.847082 129.469471 
L 80.334172 127.15621 
L 80.821262 130.895984 
L 81.308352 132.611219 
L 81.795441 135.286587 
L 82.282531 135.357918 
L 82.769621 136.658153 
L 83.25671 136.841981 
L 83.7438 138.1773 
L 84.23089 143.621449 
L 84.71798 143.041484 
L 85.205069 141.52189 
L 85.692159 143.351051 
L 86.179249 144.530633 
L 86.666339 150.225018 
L 87.153428 147.496317 
L 87.640518 149.303657 
L 88.127608 148.41648 
L 88.614697 148.317702 
L 89.101787 151.2484 
L 89.588877 148.78862 
L 90.075967 154.485733 
L 90.563056 151.194413 
L 91.050146 151.946257 
L 91.537236 151.984027 
L 92.024326 154.208593 
L 92.511415 152.925512 
L 92.998505 149.536613 
L 93.485595 153.424022 
L 93.972684 155.218157 
L 94.459774 156.296976 
L 94.946864 155.084336 
L 95.433954 152.954808 
L 95.921043 152.578541 
L 96.408133 154.64298 
L 96.895223 157.840708 
L 97.382313 156.195851 
L 97.869402 157.831423 
L 98.356492 158.265 
L 98.843582 156.931423 
L 99.330671 152.846712 
L 99.817761 153.634716 
L 100.304851 150.917367 
L 100.791941 152.873155 
L 101.76612 150.377286 
L 102.25321 153.411809 
L 102.7403 148.041068 
L 103.227389 145.81262 
L 103.714479 144.475827 
L 104.201569 141.502403 
L 104.688659 140.357691 
L 105.175748 140.467054 
L 105.662838 135.797127 
L 107.124107 138.929419 
L 107.611197 139.101758 
L 108.098287 147.355803 
L 108.585376 147.30404 
L 109.072466 146.862358 
L 109.559556 145.554597 
L 110.046646 145.116689 
L 111.020825 147.354502 
L 111.507915 147.334656 
L 111.995004 147.536855 
L 112.482094 145.871845 
L 112.969184 147.330844 
L 113.456274 141.743495 
L 113.943363 141.077814 
L 114.430453 142.775418 
L 114.917543 142.278994 
L 115.404633 140.65871 
L 115.891722 137.941632 
L 116.378812 132.451194 
L 117.352991 134.142003 
L 117.840081 126.66827 
L 118.327171 125.282286 
L 118.814261 128.547776 
L 119.30135 129.419443 
L 119.78844 127.317495 
L 120.27553 128.271998 
L 120.76262 127.537244 
L 121.736799 130.874884 
L 122.223889 131.606312 
L 122.710978 132.588754 
L 123.198068 134.642585 
L 123.685158 135.953718 
L 124.172248 139.91906 
L 124.659337 136.817413 
L 125.146427 139.910815 
L 125.633517 133.149817 
L 126.120607 131.999372 
L 126.607696 133.732404 
L 127.094786 134.92943 
L 127.581876 137.018276 
L 128.068965 133.705904 
L 128.556055 131.749127 
L 129.043145 135.537235 
L 129.530235 137.654165 
L 130.017324 136.606571 
L 130.504414 136.729961 
L 130.991504 135.017582 
L 131.478594 130.008551 
L 131.965683 127.872734 
L 132.452773 123.433201 
L 132.939863 122.574314 
L 133.426952 122.290785 
L 133.914042 121.550802 
L 134.401132 123.145237 
L 134.888222 123.93005 
L 135.375311 124.4758 
L 135.862401 128.106528 
L 136.349491 129.500595 
L 137.32367 128.407348 
L 137.81076 126.655314 
L 138.29785 125.900036 
L 138.784939 126.323876 
L 139.272029 124.883193 
L 139.759119 126.379807 
L 140.246209 119.51727 
L 140.733298 119.067116 
L 141.220388 116.491419 
L 141.707478 110.669901 
L 142.194568 113.877041 
L 142.681657 111.0342 
L 143.168747 111.29014 
L 143.655837 108.005774 
L 144.142927 106.614258 
L 144.630016 103.161554 
L 145.117106 98.54757 
L 145.604196 104.12442 
L 146.091285 103.52305 
L 146.578375 103.538025 
L 147.065465 101.367627 
L 147.552555 108.645228 
L 148.526734 112.789925 
L 149.013824 105.799564 
L 149.500914 108.135408 
L 149.988003 111.769447 
L 150.475093 110.106254 
L 150.962183 107.659678 
L 151.449272 104.397996 
L 152.423452 106.250464 
L 152.910542 105.015144 
L 153.397631 105.894925 
L 153.884721 108.133827 
L 154.371811 109.065368 
L 154.858901 111.751443 
L 155.34599 112.651627 
L 155.83308 114.539254 
L 156.32017 113.34584 
L 156.807259 118.759623 
L 157.294349 117.70132 
L 157.781439 118.626349 
L 158.268529 118.441819 
L 158.755618 115.461472 
L 159.242708 117.366793 
L 159.729798 115.388324 
L 160.216888 114.579914 
L 160.703977 113.992824 
L 161.191067 117.932543 
L 161.678157 119.723983 
L 162.165246 114.587967 
L 162.652336 115.729716 
L 163.626516 111.940203 
L 164.113605 107.662347 
L 164.600695 109.500291 
L 165.574875 114.703555 
L 166.061964 114.06153 
L 166.549054 116.312329 
L 167.036144 117.989056 
L 167.523233 116.245514 
L 168.010323 114.994811 
L 168.497413 119.539304 
L 168.984503 121.335588 
L 169.471592 121.480187 
L 169.958682 123.728035 
L 170.445772 122.496819 
L 170.932862 122.271067 
L 171.419951 125.70988 
L 171.907041 120.971822 
L 172.394131 121.860145 
L 172.88122 120.41844 
L 173.36831 120.027595 
L 173.8554 124.726595 
L 174.34249 130.696795 
L 174.829579 128.780703 
L 175.316669 125.47592 
L 175.803759 126.102184 
L 176.290849 125.213725 
L 176.777938 119.467591 
L 177.265028 116.599945 
L 178.239207 113.7555 
L 178.726297 114.827474 
L 179.213387 117.705102 
L 179.700477 121.333843 
L 180.187566 116.896313 
L 180.674656 115.769306 
L 181.161746 118.165586 
L 181.648836 119.703276 
L 182.135925 118.966854 
L 182.623015 115.725085 
L 183.110105 117.872059 
L 183.597195 114.562493 
L 184.084284 112.221099 
L 184.571374 112.868696 
L 185.058464 113.230718 
L 185.545553 116.408469 
L 186.032643 122.466049 
L 186.519733 124.563262 
L 187.006823 125.436732 
L 187.493912 121.746192 
L 187.981002 124.316628 
L 188.468092 118.020548 
L 188.955182 115.110912 
L 189.442271 117.666238 
L 189.929361 119.042435 
L 190.416451 117.0126 
L 190.90354 118.214479 
L 191.39063 116.89123 
L 192.36481 122.812909 
L 192.851899 118.601982 
L 193.338989 118.774968 
L 193.826079 118.325324 
L 194.313169 121.943616 
L 194.800258 120.485843 
L 195.287348 125.536564 
L 195.774438 123.755848 
L 196.261527 126.023874 
L 196.748617 122.104541 
L 197.235707 122.047967 
L 197.722797 123.498964 
L 198.209886 125.930727 
L 198.696976 123.290549 
L 199.184066 124.167253 
L 199.671156 123.142477 
L 200.158245 121.137291 
L 201.132425 130.453804 
L 201.619514 132.181907 
L 202.106604 131.423573 
L 202.593694 131.152603 
L 203.080784 129.372374 
L 203.567873 126.216342 
L 204.054963 126.657886 
L 204.542053 124.513873 
L 206.003322 121.785539 
L 206.977501 124.373755 
L 207.464591 122.409363 
L 208.438771 126.205121 
L 208.92586 126.098441 
L 209.41295 123.74372 
L 209.90004 123.82883 
L 210.38713 121.20283 
L 210.874219 125.296179 
L 211.361309 121.64188 
L 211.848399 126.055893 
L 212.335488 122.33773 
L 212.822578 125.599782 
L 213.309668 123.015801 
L 213.796758 123.328036 
L 214.283847 127.210155 
L 214.770937 126.269602 
L 215.258027 127.148237 
L 215.745117 124.247893 
L 216.232206 122.38565 
L 216.719296 123.684224 
L 217.206386 121.054125 
L 217.693476 120.112813 
L 218.180565 117.12997 
L 218.667655 119.265165 
L 219.154745 120.627137 
L 219.641834 120.699259 
L 220.128924 118.908108 
L 220.616014 119.629435 
L 221.590193 114.579282 
L 222.077283 117.154153 
L 222.564373 118.82984 
L 223.051463 119.755814 
L 223.538552 113.264729 
L 224.025642 111.216778 
L 224.512732 105.539233 
L 224.999821 103.544823 
L 225.486911 98.419392 
L 225.974001 104.839885 
L 226.461091 103.765779 
L 226.94818 98.933705 
L 227.43527 106.344412 
L 227.92236 101.639247 
L 228.40945 102.166411 
L 228.896539 103.080551 
L 229.383629 102.922879 
L 229.870719 100.270601 
L 230.357808 101.2424 
L 230.844898 97.805285 
L 231.331988 97.364203 
L 231.819078 94.893103 
L 232.306167 97.692384 
L 232.793257 96.957258 
L 233.280347 97.548937 
L 233.767437 96.034724 
L 234.254526 97.113664 
L 234.741616 101.050795 
L 235.228706 100.758288 
L 235.715795 101.715621 
L 236.202885 99.589645 
L 237.177065 91.33057 
L 237.664154 87.278742 
L 238.151244 81.073621 
L 238.638334 79.211271 
L 239.125424 78.209821 
L 239.612513 80.635795 
L 240.099603 81.808914 
L 240.586693 79.690263 
L 241.073782 79.196668 
L 241.560872 78.099954 
L 242.047962 80.269928 
L 242.535052 80.85127 
L 243.022141 80.555376 
L 243.509231 79.035655 
L 243.996321 81.264657 
L 244.483411 80.291697 
L 244.9705 83.665007 
L 245.45759 85.209251 
L 245.94468 85.234304 
L 246.431769 89.881286 
L 246.918859 89.559838 
L 247.405949 87.769635 
L 247.893039 86.86792 
L 248.380128 81.774096 
L 248.867218 85.242474 
L 249.354308 86.68847 
L 249.841398 87.515699 
L 250.328487 90.454092 
L 251.302667 87.046671 
L 251.789756 83.216173 
L 252.276846 85.602849 
L 252.763936 86.434282 
L 253.738115 81.160524 
L 254.225205 80.333936 
L 254.712295 78.705884 
L 255.199385 79.145812 
L 255.686474 82.653967 
L 256.173564 77.917843 
L 256.660654 77.783228 
L 257.147744 79.038673 
L 258.609013 67.28293 
L 259.096102 64.774156 
L 259.583192 64.580812 
L 260.070282 62.769572 
L 260.557372 63.372644 
L 261.044461 65.891529 
L 261.531551 69.335525 
L 262.018641 67.021308 
L 262.505731 68.894999 
L 262.99282 73.735683 
L 263.47991 74.920947 
L 263.967 74.507049 
L 264.454089 71.815422 
L 264.941179 70.177729 
L 265.428269 70.043248 
L 265.915359 68.267764 
L 266.402448 67.472894 
L 266.889538 67.205196 
L 267.376628 64.466101 
L 267.863718 66.982531 
L 268.350807 66.04118 
L 269.324987 60.384712 
L 269.812076 58.86105 
L 270.299166 60.698238 
L 270.786256 59.298776 
L 271.273346 58.815046 
L 271.760435 59.057941 
L 272.247525 61.04998 
L 272.734615 61.497215 
L 273.221705 65.629456 
L 273.708794 59.239311 
L 274.195884 55.449004 
L 275.170063 58.470146 
L 275.657153 57.319371 
L 276.144243 57.967284 
L 276.631333 54.443237 
L 277.118422 54.735539 
L 277.605512 57.53374 
L 278.092602 58.441176 
L 278.579692 59.107146 
L 279.066781 56.405008 
L 279.553871 54.533856 
L 280.040961 56.28252 
L 280.52805 56.921062 
L 281.01514 57.138597 
L 281.50223 57.498775 
L 281.98932 54.459905 
L 282.476409 54.420069 
L 282.963499 51.586225 
L 283.450589 51.783425 
L 283.937679 54.946079 
L 284.424768 54.590171 
L 284.911858 55.672763 
L 285.398948 56.171717 
L 285.886037 53.410976 
L 286.373127 55.014904 
L 286.860217 52.298988 
L 287.347307 52.890118 
L 287.834396 50.56922 
L 288.321486 54.627576 
L 288.808576 57.704655 
L 289.295666 58.617202 
L 289.782755 58.282603 
L 290.269845 59.761489 
L 290.756935 60.632274 
L 291.244024 58.972633 
L 291.731114 60.684671 
L 292.218204 62.96177 
L 292.705294 59.338908 
L 293.192383 63.967891 
L 293.679473 62.489756 
L 294.653653 68.166074 
L 295.140742 67.068906 
L 295.627832 71.288212 
L 296.114922 69.775389 
L 296.602012 70.095673 
L 297.089101 73.575981 
L 297.576191 72.451145 
L 298.063281 72.85472 
L 298.55037 67.612607 
L 299.03746 68.038521 
L 300.01164 66.897609 
L 300.498729 68.672336 
L 300.985819 66.250078 
L 301.472909 68.343821 
L 301.959999 69.830559 
L 302.447088 70.154202 
L 303.421268 64.704127 
L 303.908357 58.814445 
L 304.395447 61.951705 
L 304.882537 58.637388 
L 305.856716 54.438945 
L 306.343806 57.293741 
L 306.830896 50.592966 
L 307.317986 51.316526 
L 307.805075 50.270348 
L 308.292165 50.630675 
L 308.779255 50.378515 
L 309.266344 53.893018 
L 310.240524 56.730196 
L 310.727614 56.512577 
L 311.214703 53.795068 
L 311.701793 55.243518 
L 312.188883 50.989916 
L 312.675973 50.487814 
L 313.163062 48.87805 
L 313.650152 46.236393 
L 314.137242 46.709468 
L 314.624331 40.922324 
L 315.111421 40.593982 
L 315.598511 41.25948 
L 316.085601 43.867341 
L 316.57269 38.762506 
L 317.05978 42.923523 
L 317.54687 43.782149 
L 318.03396 46.841393 
L 318.521049 50.929345 
L 319.008139 51.941967 
L 319.495229 52.336231 
L 319.982318 52.521202 
L 320.469408 55.321379 
L 320.956498 54.172934 
L 321.443588 55.426527 
L 321.930677 58.028537 
L 322.417767 57.106052 
L 322.904857 54.642009 
L 323.391947 58.233354 
L 323.879036 60.79501 
L 324.366126 54.584652 
L 324.853216 51.931341 
L 325.340305 46.052682 
L 325.827395 45.083701 
L 326.314485 44.450157 
L 326.801575 47.361691 
L 327.288664 47.163573 
L 327.775754 44.490157 
L 328.262844 45.411906 
L 328.749934 44.853502 
L 330.211203 42.80562 
L 330.698293 44.624011 
L 331.185382 42.680459 
L 331.672472 42.491327 
L 332.159562 40.423207 
L 332.646651 43.784461 
L 333.133741 37.896473 
L 333.620831 40.792418 
L 334.107921 40.446562 
L 334.59501 43.921919 
L 335.0821 42.665831 
L 335.56919 39.610519 
L 336.05628 39.254418 
L 336.543369 40.145612 
L 337.030459 36.092235 
L 337.517549 40.010215 
L 338.004638 38.283266 
L 338.491728 40.592409 
L 338.978818 38.692396 
L 339.465908 37.667306 
L 340.440087 42.231712 
L 340.927177 41.526065 
L 341.414267 38.801738 
L 341.901356 39.721973 
L 342.388446 42.196053 
L 342.875536 39.734081 
L 343.362625 39.725238 
L 343.849715 39.350828 
L 344.336805 42.548109 
L 344.823895 43.771294 
L 345.310984 40.866421 
L 345.798074 33.835288 
L 346.285164 32.287316 
L 347.259343 40.039515 
L 347.746433 39.055429 
L 348.233523 39.595605 
L 348.720612 37.910194 
L 349.207702 37.519234 
L 349.694792 39.438242 
L 350.181882 42.357011 
L 350.668971 42.716958 
L 351.156061 39.308668 
L 352.130241 43.030237 
L 352.61733 44.593949 
L 353.10442 45.125422 
L 353.59151 47.412273 
L 354.078599 46.566083 
L 354.565689 43.686866 
L 355.052779 43.376903 
L 355.539869 41.105895 
L 356.026958 37.986556 
L 356.514048 38.437713 
L 357.001138 38.183494 
L 357.488228 38.165362 
L 357.975317 34.736193 
L 358.462407 33.13936 
L 358.949497 35.895949 
L 359.436586 32.697418 
L 359.923676 36.588663 
L 360.410766 38.193251 
L 360.897856 34.813718 
L 361.384945 34.860813 
L 361.872035 34.169617 
L 362.359125 37.731927 
L 362.846215 35.968544 
L 363.333304 33.751812 
L 363.820394 30.627664 
L 364.307484 29.365 
L 364.794573 31.538452 
L 365.281663 32.181905 
L 365.768753 38.136099 
L 366.255843 41.338986 
L 366.742932 41.146118 
L 367.230022 47.032271 
L 367.717112 47.856131 
L 368.204202 46.421445 
L 368.691291 49.82697 
L 369.178381 50.752706 
L 369.665471 52.878951 
L 370.152561 54.456469 
L 370.63965 56.971761 
L 371.12674 57.682202 
L 371.61383 57.363793 
L 373.075099 67.181694 
L 373.562189 64.217957 
L 374.049278 67.642448 
L 374.536368 66.908196 
L 375.023458 65.351142 
L 375.510548 65.994762 
L 376.484727 63.240741 
L 376.971817 64.695455 
L 377.458906 62.746582 
L 377.945996 63.140434 
L 378.433086 60.498816 
L 378.920176 64.785315 
L 379.407265 63.923656 
L 379.894355 66.837365 
L 380.868535 64.960698 
L 381.355624 72.201301 
L 381.842714 71.742693 
L 382.329804 74.132732 
L 382.816893 75.16702 
L 383.303983 75.766084 
L 383.791073 70.212168 
L 384.278163 74.469375 
L 384.765252 76.856711 
L 385.252342 80.104348 
L 385.739432 84.366186 
L 386.226522 84.029016 
L 386.713611 81.38251 
L 387.200701 83.423991 
L 387.687791 80.83089 
L 388.17488 82.224966 
L 388.66197 82.852039 
L 389.14906 82.88323 
L 389.63615 82.505576 
L 390.123239 80.329997 
L 390.610329 81.785255 
L 391.097419 83.965995 
L 391.584509 83.662505 
L 392.071598 84.699941 
L 392.558688 82.004337 
L 393.045778 80.582718 
L 393.532867 83.170223 
L 394.019957 82.968478 
L 394.507047 81.267379 
L 395.481226 87.562537 
L 395.968316 88.555146 
L 396.455406 86.001953 
L 396.942496 87.05834 
L 397.429585 86.08874 
L 397.916675 82.413731 
L 398.403765 81.053807 
L 398.890854 84.458655 
L 399.377944 90.030905 
L 399.865034 88.294072 
L 400.352124 88.958621 
L 400.839213 90.710104 
L 401.326303 94.873787 
L 401.813393 96.045709 
L 402.300483 90.385594 
L 403.274662 85.848224 
L 403.761752 81.523359 
L 404.248841 80.153088 
L 404.735931 79.479241 
L 405.223021 80.725298 
L 405.710111 80.562406 
L 406.1972 80.241609 
L 406.1972 80.241609 
" clip-path="url(#p50ecdce078)" style="fill: none; stroke: #1d4ed8; stroke-width: 1.6; stroke-linecap: round"/>
   </g>
   <g id="patch_5">
    <path d="M 48.18625 164.71 
L 48.18625 22.92 
" style="fill: none; stroke: #6b7280; stroke-width: 0.8; stroke-linejoin: miter; stroke-linecap: square"/>
   </g>
   <g id="patch_6">
    <path d="M 423.245341 164.71 
L 423.245341 22.92 
" style="fill: none; stroke: #6b7280; stroke-width: 0.8; stroke-linejoin: miter; stroke-linecap: square"/>
   </g>
   <g id="patch_7">
    <path d="M 48.18625 164.71 
L 423.245341 164.71 
" style="fill: none; stroke: #6b7280; stroke-width: 0.8; stroke-linejoin: miter; stroke-linecap: square"/>
   </g>
   <g id="patch_8">
    <path d="M 48.18625 22.92 
L 423.245341 22.92 
" style="fill: none; stroke: #6b7280; stroke-width: 0.8; stroke-linejoin: miter; stroke-linecap: square"/>
   </g>
   <g id="text_14">
    <!-- $W_s$ -->
    <g transform="translate(178.316374 104.806354) scale(0.09 -0.09)">
     <defs>
      <path id="DejaVuSans-Oblique-56" d="M 3200 3397 
L 3091 2853 
Q 2863 2978 2609 3040 
Q 2356 3103 2088 3103 
Q 1634 3103 1373 2948 
Q 1113 2794 1113 2528 
Q 1113 2219 1719 2053 
Q 1766 2041 1788 2034 
L 1972 1978 
Q 2547 1819 2739 1644 
Q 2931 1469 2931 1166 
Q 2931 609 2489 259 
Q 2047 -91 1331 -91 
Q 1053 -91 747 -37 
Q 441 16 72 128 
L 184 722 
Q 500 559 806 475 
Q 1113 391 1394 391 
Q 1816 391 2080 572 
Q 2344 753 2344 1031 
Q 2344 1331 1650 1516 
L 1591 1531 
L 1394 1581 
Q 956 1697 753 1886 
Q 550 2075 550 2369 
Q 550 2928 970 3256 
Q 1391 3584 2113 3584 
Q 2397 3584 2667 3537 
Q 2938 3491 3200 3397 
z
" transform="scale(0.015625)"/>
     </defs>
     <use xlink:href="#DejaVuSans-Oblique-3a" transform="translate(0 0.09375)"/>
     <use xlink:href="#DejaVuSans-Oblique-56" transform="translate(98.876953 -14.906201) scale(0.7)"/>
    </g>
   </g>
   <g id="text_15">
    <!-- $W_{t+s}$ -->
    <g transform="translate(333.483895 35.708953) scale(0.09 -0.09)">
     <defs>
      <path id="DejaVuSans-Oblique-57" d="M 2706 3500 
L 2619 3053 
L 1472 3053 
L 1100 1153 
Q 1081 1047 1072 975 
Q 1063 903 1063 863 
Q 1063 663 1183 572 
Q 1303 481 1569 481 
L 2150 481 
L 2053 0 
L 1503 0 
Q 991 0 739 200 
Q 488 400 488 806 
Q 488 878 497 964 
Q 506 1050 525 1153 
L 897 3053 
L 409 3053 
L 500 3500 
L 978 3500 
L 1172 4494 
L 1747 4494 
L 1556 3500 
L 2706 3500 
z
" transform="scale(0.015625)"/>
      <path id="DejaVuSans-e" d="M 2944 4013 
L 2944 2272 
L 4684 2272 
L 4684 1741 
L 2944 1741 
L 2944 0 
L 2419 0 
L 2419 1741 
L 678 1741 
L 678 2272 
L 2419 2272 
L 2419 4013 
L 2944 4013 
z
" transform="scale(0.015625)"/>
     </defs>
     <use xlink:href="#DejaVuSans-Oblique-3a" transform="translate(0 0.09375)"/>
     <use xlink:href="#DejaVuSans-Oblique-57" transform="translate(98.876953 -14.906201) scale(0.7)"/>
     <use xlink:href="#DejaVuSans-e" transform="translate(139.960938 -14.906201) scale(0.7)"/>
     <use xlink:href="#DejaVuSans-Oblique-56" transform="translate(212.250977 -14.906201) scale(0.7)"/>
    </g>
   </g>
   <g id="text_16">
    <!-- Covariance comes from the shared interval -->
    <g style="fill: #111418" transform="translate(48.18625 16.92) scale(0.1 -0.1)">
     <defs>
      <path id="IBMPlexSansThai-SemiBold-23" d="M 2259 -77 
Q 1818 -77 1462 67 
Q 1107 211 854 499 
Q 602 787 467 1212 
Q 333 1638 333 2202 
Q 333 2765 467 3203 
Q 602 3642 854 3939 
Q 1107 4237 1462 4390 
Q 1818 4544 2259 4544 
Q 2861 4544 3257 4288 
Q 3654 4032 3891 3514 
L 3168 3130 
Q 3072 3430 2854 3612 
Q 2637 3795 2259 3795 
Q 1786 3795 1507 3475 
Q 1229 3155 1229 2579 
L 1229 1875 
Q 1229 1293 1507 982 
Q 1786 672 2259 672 
Q 2637 672 2877 877 
Q 3117 1082 3226 1382 
L 3910 979 
Q 3667 480 3264 201 
Q 2861 -77 2259 -77 
z
" transform="scale(0.015625)"/>
      <path id="IBMPlexSansThai-SemiBold-15" d="M 1798 -77 
Q 1440 -77 1155 44 
Q 870 166 668 396 
Q 467 627 358 950 
Q 250 1274 250 1677 
Q 250 2080 358 2400 
Q 467 2720 668 2947 
Q 870 3174 1155 3296 
Q 1440 3418 1798 3418 
Q 2157 3418 2445 3296 
Q 2733 3174 2934 2947 
Q 3136 2720 3245 2400 
Q 3354 2080 3354 1677 
Q 3354 1274 3245 950 
Q 3136 627 2934 396 
Q 2733 166 2445 44 
Q 2157 -77 1798 -77 
z
M 1798 582 
Q 2125 582 2310 780 
Q 2496 979 2496 1363 
L 2496 1984 
Q 2496 2362 2310 2560 
Q 2125 2758 1798 2758 
Q 1478 2758 1292 2560 
Q 1107 2362 1107 1984 
L 1107 1363 
Q 1107 979 1292 780 
Q 1478 582 1798 582 
z
" transform="scale(0.015625)"/>
      <path id="IBMPlexSansThai-SemiBold-1c" d="M 1190 0 
L 77 3341 
L 883 3341 
L 1350 1901 
L 1677 710 
L 1722 710 
L 2048 1901 
L 2502 3341 
L 3283 3341 
L 2163 0 
L 1190 0 
z
" transform="scale(0.015625)"/>
      <path id="IBMPlexSansThai-SemiBold-4" d="M 2931 0 
Q 2662 0 2505 157 
Q 2349 314 2310 576 
L 2272 576 
Q 2189 250 1933 86 
Q 1677 -77 1299 -77 
Q 787 -77 512 192 
Q 237 461 237 909 
Q 237 1427 608 1680 
Q 979 1933 1664 1933 
L 2234 1933 
L 2234 2176 
Q 2234 2458 2086 2611 
Q 1939 2765 1613 2765 
Q 1325 2765 1149 2640 
Q 973 2515 851 2342 
L 365 2778 
Q 550 3066 857 3242 
Q 1165 3418 1670 3418 
Q 2349 3418 2701 3110 
Q 3053 2803 3053 2227 
L 3053 653 
L 3386 653 
L 3386 0 
L 2931 0 
z
M 1574 518 
Q 1850 518 2042 640 
Q 2234 762 2234 998 
L 2234 1440 
L 1709 1440 
Q 1069 1440 1069 1030 
L 1069 922 
Q 1069 717 1200 617 
Q 1331 518 1574 518 
z
" transform="scale(0.015625)"/>
      <path id="IBMPlexSansThai-SemiBold-18" d="M 474 0 
L 474 3341 
L 1293 3341 
L 1293 2650 
L 1325 2650 
Q 1357 2784 1424 2909 
Q 1491 3034 1600 3130 
Q 1709 3226 1859 3283 
Q 2010 3341 2208 3341 
L 2387 3341 
L 2387 2566 
L 2131 2566 
Q 1715 2566 1504 2444 
Q 1293 2323 1293 2048 
L 1293 0 
L 474 0 
z
" transform="scale(0.015625)"/>
      <path id="IBMPlexSansThai-SemiBold-f" d="M 883 3827 
Q 627 3827 515 3942 
Q 403 4058 403 4237 
L 403 4365 
Q 403 4544 515 4659 
Q 627 4774 883 4774 
Q 1133 4774 1248 4659 
Q 1363 4544 1363 4365 
L 1363 4237 
Q 1363 4058 1248 3942 
Q 1133 3827 883 3827 
z
M 474 3341 
L 1293 3341 
L 1293 0 
L 474 0 
L 474 3341 
z
" transform="scale(0.015625)"/>
      <path id="IBMPlexSansThai-SemiBold-14" d="M 474 0 
L 474 3341 
L 1293 3341 
L 1293 2784 
L 1325 2784 
Q 1427 3053 1648 3235 
Q 1869 3418 2259 3418 
Q 2778 3418 3053 3078 
Q 3328 2739 3328 2112 
L 3328 0 
L 2509 0 
L 2509 2029 
Q 2509 2387 2381 2566 
Q 2253 2746 1958 2746 
Q 1830 2746 1712 2710 
Q 1594 2675 1501 2608 
Q 1408 2541 1350 2441 
Q 1293 2342 1293 2208 
L 1293 0 
L 474 0 
z
" transform="scale(0.015625)"/>
      <path id="IBMPlexSansThai-SemiBold-7" d="M 1792 -77 
Q 1421 -77 1133 44 
Q 845 166 649 396 
Q 454 627 352 950 
Q 250 1274 250 1677 
Q 250 2080 352 2400 
Q 454 2720 649 2947 
Q 845 3174 1133 3296 
Q 1421 3418 1792 3418 
Q 2298 3418 2627 3194 
Q 2957 2970 3104 2573 
L 2432 2272 
Q 2374 2483 2217 2620 
Q 2061 2758 1792 2758 
Q 1446 2758 1276 2540 
Q 1107 2323 1107 1971 
L 1107 1363 
Q 1107 1011 1276 796 
Q 1446 582 1792 582 
Q 2086 582 2246 732 
Q 2406 883 2496 1107 
L 3123 806 
Q 2957 365 2617 144 
Q 2278 -77 1792 -77 
z
" transform="scale(0.015625)"/>
      <path id="IBMPlexSansThai-SemiBold-9" d="M 1824 -77 
Q 1453 -77 1161 48 
Q 870 173 668 400 
Q 467 627 358 950 
Q 250 1274 250 1677 
Q 250 2074 355 2394 
Q 461 2714 659 2941 
Q 858 3168 1146 3293 
Q 1434 3418 1798 3418 
Q 2189 3418 2477 3283 
Q 2765 3149 2950 2918 
Q 3136 2688 3229 2384 
Q 3322 2080 3322 1734 
L 3322 1466 
L 1101 1466 
L 1101 1382 
Q 1101 1018 1305 797 
Q 1510 576 1914 576 
Q 2221 576 2416 704 
Q 2611 832 2765 1030 
L 3206 538 
Q 3002 250 2646 86 
Q 2291 -77 1824 -77 
z
M 1811 2803 
Q 1485 2803 1293 2585 
Q 1101 2368 1101 2022 
L 1101 1971 
L 2470 1971 
L 2470 2029 
Q 2470 2374 2300 2588 
Q 2131 2803 1811 2803 
z
" transform="scale(0.015625)"/>
      <path id="IBMPlexSansThai-SemiBold-3" transform="scale(0.015625)"/>
      <path id="IBMPlexSansThai-SemiBold-13" d="M 474 0 
L 474 3341 
L 1293 3341 
L 1293 2784 
L 1325 2784 
Q 1421 3046 1632 3232 
Q 1843 3418 2221 3418 
Q 2566 3418 2816 3251 
Q 3066 3085 3187 2746 
L 3200 2746 
Q 3290 3027 3555 3222 
Q 3821 3418 4224 3418 
Q 4717 3418 4982 3078 
Q 5248 2739 5248 2112 
L 5248 0 
L 4429 0 
L 4429 2029 
Q 4429 2746 3891 2746 
Q 3770 2746 3658 2710 
Q 3546 2675 3459 2608 
Q 3373 2541 3321 2441 
Q 3270 2342 3270 2208 
L 3270 0 
L 2451 0 
L 2451 2029 
Q 2451 2746 1914 2746 
Q 1798 2746 1686 2710 
Q 1574 2675 1488 2608 
Q 1402 2541 1347 2441 
Q 1293 2342 1293 2208 
L 1293 0 
L 474 0 
z
" transform="scale(0.015625)"/>
      <path id="IBMPlexSansThai-SemiBold-19" d="M 1568 -77 
Q 1088 -77 761 86 
Q 435 250 186 538 
L 685 1024 
Q 870 813 1091 691 
Q 1312 570 1600 570 
Q 1894 570 2025 672 
Q 2157 774 2157 954 
Q 2157 1101 2064 1187 
Q 1971 1274 1747 1306 
L 1414 1350 
Q 870 1421 585 1661 
Q 301 1901 301 2362 
Q 301 2605 390 2800 
Q 480 2995 646 3132 
Q 813 3270 1046 3344 
Q 1280 3418 1568 3418 
Q 1811 3418 2000 3382 
Q 2189 3347 2342 3280 
Q 2496 3213 2624 3113 
Q 2752 3014 2874 2893 
L 2394 2413 
Q 2246 2566 2041 2668 
Q 1837 2771 1594 2771 
Q 1325 2771 1206 2675 
Q 1088 2579 1088 2426 
Q 1088 2259 1187 2172 
Q 1286 2086 1523 2048 
L 1862 2003 
Q 2944 1850 2944 1018 
Q 2944 774 2845 572 
Q 2746 371 2566 227 
Q 2387 83 2134 3 
Q 1882 -77 1568 -77 
z
" transform="scale(0.015625)"/>
      <path id="IBMPlexSansThai-SemiBold-a" d="M 640 2694 
L 147 2694 
L 147 3341 
L 640 3341 
L 640 3821 
Q 640 4262 873 4499 
Q 1107 4736 1562 4736 
L 2144 4736 
L 2144 4083 
L 1459 4083 
L 1459 3341 
L 2144 3341 
L 2144 2694 
L 1459 2694 
L 1459 0 
L 640 0 
L 640 2694 
z
" transform="scale(0.015625)"/>
      <path id="IBMPlexSansThai-SemiBold-1a" d="M 1517 0 
Q 1094 0 873 221 
Q 653 442 653 851 
L 653 2688 
L 160 2688 
L 160 3341 
L 416 3341 
Q 602 3341 669 3427 
Q 736 3514 736 3686 
L 736 4256 
L 1472 4256 
L 1472 3341 
L 2157 3341 
L 2157 2688 
L 1472 2688 
L 1472 653 
L 2106 653 
L 2106 0 
L 1517 0 
z
" transform="scale(0.015625)"/>
      <path id="IBMPlexSansThai-SemiBold-e" d="M 474 4736 
L 1293 4736 
L 1293 2784 
L 1325 2784 
Q 1427 3053 1648 3235 
Q 1869 3418 2259 3418 
Q 2778 3418 3053 3078 
Q 3328 2739 3328 2112 
L 3328 0 
L 2509 0 
L 2509 2029 
Q 2509 2387 2381 2566 
Q 2253 2746 1958 2746 
Q 1830 2746 1712 2710 
Q 1594 2675 1501 2608 
Q 1408 2541 1350 2441 
Q 1293 2342 1293 2208 
L 1293 0 
L 474 0 
L 474 4736 
z
" transform="scale(0.015625)"/>
      <path id="IBMPlexSansThai-SemiBold-8" d="M 2547 557 
L 2515 557 
Q 2426 269 2176 96 
Q 1926 -77 1594 -77 
Q 960 -77 624 377 
Q 288 832 288 1677 
Q 288 2515 624 2966 
Q 960 3418 1594 3418 
Q 1926 3418 2176 3248 
Q 2426 3078 2515 2790 
L 2547 2790 
L 2547 4736 
L 3366 4736 
L 3366 0 
L 2547 0 
L 2547 557 
z
M 1856 602 
Q 2150 602 2348 742 
Q 2547 883 2547 1146 
L 2547 2208 
Q 2547 2451 2348 2598 
Q 2150 2746 1856 2746 
Q 1536 2746 1341 2531 
Q 1146 2317 1146 1958 
L 1146 1382 
Q 1146 1024 1341 813 
Q 1536 602 1856 602 
z
" transform="scale(0.015625)"/>
      <path id="IBMPlexSansThai-SemiBold-12" d="M 1293 0 
Q 870 0 672 211 
Q 474 422 474 806 
L 474 4736 
L 1293 4736 
L 1293 653 
L 1734 653 
L 1734 0 
L 1293 0 
z
" transform="scale(0.015625)"/>
     </defs>
     <use xlink:href="#IBMPlexSansThai-SemiBold-23"/>
     <use xlink:href="#IBMPlexSansThai-SemiBold-15" transform="translate(64.203125 0)"/>
     <use xlink:href="#IBMPlexSansThai-SemiBold-1c" transform="translate(119.703125 0)"/>
     <use xlink:href="#IBMPlexSansThai-SemiBold-4" transform="translate(171.203125 0)"/>
     <use xlink:href="#IBMPlexSansThai-SemiBold-18" transform="translate(227.109375 0)"/>
     <use xlink:href="#IBMPlexSansThai-SemiBold-f" transform="translate(266.40625 0)"/>
     <use xlink:href="#IBMPlexSansThai-SemiBold-4" transform="translate(294 0)"/>
     <use xlink:href="#IBMPlexSansThai-SemiBold-14" transform="translate(349.90625 0)"/>
     <use xlink:href="#IBMPlexSansThai-SemiBold-7" transform="translate(408.703125 0)"/>
     <use xlink:href="#IBMPlexSansThai-SemiBold-9" transform="translate(459.5 0)"/>
     <use xlink:href="#IBMPlexSansThai-SemiBold-3" transform="translate(515.296875 0)"/>
     <use xlink:href="#IBMPlexSansThai-SemiBold-7" transform="translate(538.890625 0)"/>
     <use xlink:href="#IBMPlexSansThai-SemiBold-15" transform="translate(589.6875 0)"/>
     <use xlink:href="#IBMPlexSansThai-SemiBold-13" transform="translate(645.984375 0)"/>
     <use xlink:href="#IBMPlexSansThai-SemiBold-9" transform="translate(734.78125 0)"/>
     <use xlink:href="#IBMPlexSansThai-SemiBold-19" transform="translate(790.578125 0)"/>
     <use xlink:href="#IBMPlexSansThai-SemiBold-3" transform="translate(840.484375 0)"/>
     <use xlink:href="#IBMPlexSansThai-SemiBold-a" transform="translate(864.078125 0)"/>
     <use xlink:href="#IBMPlexSansThai-SemiBold-18" transform="translate(899.078125 0)"/>
     <use xlink:href="#IBMPlexSansThai-SemiBold-15" transform="translate(937.875 0)"/>
     <use xlink:href="#IBMPlexSansThai-SemiBold-13" transform="translate(994.171875 0)"/>
     <use xlink:href="#IBMPlexSansThai-SemiBold-3" transform="translate(1082.96875 0)"/>
     <use xlink:href="#IBMPlexSansThai-SemiBold-1a" transform="translate(1106.5625 0)"/>
     <use xlink:href="#IBMPlexSansThai-SemiBold-e" transform="translate(1143.96875 0)"/>
     <use xlink:href="#IBMPlexSansThai-SemiBold-9" transform="translate(1202.765625 0)"/>
     <use xlink:href="#IBMPlexSansThai-SemiBold-3" transform="translate(1258.5625 0)"/>
     <use xlink:href="#IBMPlexSansThai-SemiBold-19" transform="translate(1282.15625 0)"/>
     <use xlink:href="#IBMPlexSansThai-SemiBold-e" transform="translate(1332.0625 0)"/>
     <use xlink:href="#IBMPlexSansThai-SemiBold-4" transform="translate(1390.859375 0)"/>
     <use xlink:href="#IBMPlexSansThai-SemiBold-18" transform="translate(1446.765625 0)"/>
     <use xlink:href="#IBMPlexSansThai-SemiBold-9" transform="translate(1485.5625 0)"/>
     <use xlink:href="#IBMPlexSansThai-SemiBold-8" transform="translate(1541.359375 0)"/>
     <use xlink:href="#IBMPlexSansThai-SemiBold-3" transform="translate(1601.359375 0)"/>
     <use xlink:href="#IBMPlexSansThai-SemiBold-f" transform="translate(1624.953125 0)"/>
     <use xlink:href="#IBMPlexSansThai-SemiBold-14" transform="translate(1652.546875 0)"/>
     <use xlink:href="#IBMPlexSansThai-SemiBold-1a" transform="translate(1711.34375 0)"/>
     <use xlink:href="#IBMPlexSansThai-SemiBold-9" transform="translate(1748.34375 0)"/>
     <use xlink:href="#IBMPlexSansThai-SemiBold-18" transform="translate(1804.140625 0)"/>
     <use xlink:href="#IBMPlexSansThai-SemiBold-1c" transform="translate(1844.234375 0)"/>
     <use xlink:href="#IBMPlexSansThai-SemiBold-4" transform="translate(1895.734375 0)"/>
     <use xlink:href="#IBMPlexSansThai-SemiBold-12" transform="translate(1951.640625 0)"/>
    </g>
   </g>
   <g id="PathCollection_1">
    <defs>
     <path id="C0_0_3f81a99021" d="M 0 3.24037 
C 0.859356 3.24037 1.683631 2.898944 2.291288 2.291288 
C 2.898944 1.683631 3.24037 0.859356 3.24037 -0 
C 3.24037 -0.859356 2.898944 -1.683631 2.291288 -2.291288 
C 1.683631 -2.898944 0.859356 -3.24037 0 -3.24037 
C -0.859356 -3.24037 -1.683631 -2.898944 -2.291288 -2.291288 
C -2.898944 -1.683631 -3.24037 -0.859356 -3.24037 0 
C -3.24037 0.859356 -2.898944 1.683631 -2.291288 2.291288 
C -1.683631 2.898944 -0.859356 3.24037 0 3.24037 
z
"/>
    </defs>
    <g clip-path="url(#p50ecdce078)">
     <use xlink:href="#C0_0_3f81a99021" x="184.571374" y="112.868696" style="fill: #d97706; stroke: #d97706"/>
    </g>
    <g clip-path="url(#p50ecdce078)">
     <use xlink:href="#C0_0_3f81a99021" x="344.823895" y="43.771294" style="fill: #059669; stroke: #059669"/>
    </g>
   </g>
   <g id="legend_1">
    <g id="patch_9">
     <path d="M 55.38625 136.038 
L 71.38625 136.038 
L 71.38625 130.438 
L 55.38625 130.438 
z
" style="fill: #d97706; opacity: 0.16; stroke: #d97706; stroke-linejoin: miter"/>
    </g>
    <g id="text_17">
     <!-- shared history -->
     <g transform="translate(77.78625 136.038) scale(0.08 -0.08)">
      <defs>
       <path id="IBMPlexSansThai-Regular-19" d="M 1536 -77 
Q 1075 -77 764 99 
Q 454 275 230 570 
L 595 864 
Q 787 621 1024 489 
Q 1261 358 1574 358 
Q 1901 358 2083 499 
Q 2266 640 2266 896 
Q 2266 1088 2141 1225 
Q 2016 1363 1690 1414 
L 1427 1453 
Q 1197 1485 1005 1552 
Q 813 1619 669 1731 
Q 525 1843 445 2009 
Q 365 2176 365 2406 
Q 365 2650 454 2832 
Q 544 3014 701 3136 
Q 858 3258 1075 3318 
Q 1293 3379 1542 3379 
Q 1946 3379 2218 3238 
Q 2490 3098 2694 2848 
L 2355 2541 
Q 2246 2694 2035 2819 
Q 1824 2944 1504 2944 
Q 1184 2944 1021 2806 
Q 858 2669 858 2432 
Q 858 2189 1021 2080 
Q 1184 1971 1491 1920 
L 1747 1882 
Q 2298 1798 2528 1564 
Q 2758 1331 2758 954 
Q 2758 474 2432 198 
Q 2106 -77 1536 -77 
z
" transform="scale(0.015625)"/>
       <path id="IBMPlexSansThai-Regular-e" d="M 544 4736 
L 1056 4736 
L 1056 2765 
L 1082 2765 
Q 1203 3046 1424 3212 
Q 1645 3379 2016 3379 
Q 2528 3379 2825 3049 
Q 3123 2720 3123 2118 
L 3123 0 
L 2611 0 
L 2611 2029 
Q 2611 2918 1862 2918 
Q 1709 2918 1565 2880 
Q 1421 2842 1305 2765 
Q 1190 2688 1123 2569 
Q 1056 2451 1056 2291 
L 1056 0 
L 544 0 
L 544 4736 
z
" transform="scale(0.015625)"/>
       <path id="IBMPlexSansThai-Regular-4" d="M 2944 0 
Q 2656 0 2531 153 
Q 2406 307 2374 538 
L 2342 538 
Q 2234 230 1984 76 
Q 1734 -77 1389 -77 
Q 864 -77 573 192 
Q 282 461 282 922 
Q 282 1389 624 1638 
Q 966 1888 1690 1888 
L 2342 1888 
L 2342 2214 
Q 2342 2566 2150 2752 
Q 1958 2938 1562 2938 
Q 1261 2938 1059 2803 
Q 858 2669 723 2445 
L 416 2733 
Q 550 3002 844 3190 
Q 1139 3379 1587 3379 
Q 2189 3379 2521 3084 
Q 2854 2790 2854 2266 
L 2854 448 
L 3232 448 
L 3232 0 
L 2944 0 
z
M 1472 358 
Q 1664 358 1824 403 
Q 1984 448 2099 531 
Q 2214 614 2278 723 
Q 2342 832 2342 960 
L 2342 1504 
L 1664 1504 
Q 1222 1504 1020 1376 
Q 819 1248 819 1005 
L 819 870 
Q 819 627 995 492 
Q 1171 358 1472 358 
z
" transform="scale(0.015625)"/>
       <path id="IBMPlexSansThai-Regular-18" d="M 544 0 
L 544 3302 
L 1056 3302 
L 1056 2694 
L 1088 2694 
Q 1178 2931 1408 3116 
Q 1638 3302 2042 3302 
L 2240 3302 
L 2240 2790 
L 1939 2790 
Q 1523 2790 1289 2633 
Q 1056 2477 1056 2240 
L 1056 0 
L 544 0 
z
" transform="scale(0.015625)"/>
       <path id="IBMPlexSansThai-Regular-8" d="M 2656 538 
L 2630 538 
Q 2330 -77 1664 -77 
Q 1357 -77 1107 44 
Q 858 166 682 390 
Q 506 614 413 934 
Q 320 1254 320 1651 
Q 320 2048 413 2368 
Q 506 2688 682 2912 
Q 858 3136 1107 3257 
Q 1357 3379 1664 3379 
Q 2010 3379 2256 3228 
Q 2502 3078 2630 2765 
L 2656 2765 
L 2656 4736 
L 3168 4736 
L 3168 0 
L 2656 0 
L 2656 538 
z
M 1805 384 
Q 1978 384 2134 429 
Q 2291 474 2406 560 
Q 2522 646 2589 771 
Q 2656 896 2656 1056 
L 2656 2285 
Q 2656 2419 2589 2537 
Q 2522 2656 2406 2739 
Q 2291 2822 2134 2870 
Q 1978 2918 1805 2918 
Q 1370 2918 1120 2646 
Q 870 2374 870 1933 
L 870 1370 
Q 870 928 1120 656 
Q 1370 384 1805 384 
z
" transform="scale(0.015625)"/>
       <path id="IBMPlexSansThai-Regular-3" transform="scale(0.015625)"/>
       <path id="IBMPlexSansThai-Regular-1a" d="M 1274 0 
Q 1005 0 867 150 
Q 730 301 730 544 
L 730 2854 
L 186 2854 
L 186 3302 
L 493 3302 
Q 659 3302 720 3369 
Q 781 3437 781 3603 
L 781 4218 
L 1242 4218 
L 1242 3302 
L 1965 3302 
L 1965 2854 
L 1242 2854 
L 1242 448 
L 1914 448 
L 1914 0 
L 1274 0 
z
" transform="scale(0.015625)"/>
       <path id="IBMPlexSansThai-Regular-15" d="M 1792 -77 
Q 1459 -77 1184 44 
Q 909 166 713 393 
Q 518 621 409 937 
Q 301 1254 301 1651 
Q 301 2042 409 2362 
Q 518 2682 713 2909 
Q 909 3136 1184 3257 
Q 1459 3379 1792 3379 
Q 2125 3379 2397 3257 
Q 2669 3136 2867 2909 
Q 3066 2682 3174 2362 
Q 3283 2042 3283 1651 
Q 3283 1254 3174 937 
Q 3066 621 2867 393 
Q 2669 166 2397 44 
Q 2125 -77 1792 -77 
z
M 1792 378 
Q 2208 378 2470 634 
Q 2733 890 2733 1414 
L 2733 1888 
Q 2733 2413 2470 2669 
Q 2208 2925 1792 2925 
Q 1376 2925 1113 2669 
Q 851 2413 851 1888 
L 851 1414 
Q 851 890 1113 634 
Q 1376 378 1792 378 
z
" transform="scale(0.015625)"/>
       <path id="IBMPlexSansThai-Regular-1f" d="M 2579 3302 
L 3085 3302 
L 1606 -768 
Q 1549 -915 1491 -1014 
Q 1434 -1114 1350 -1171 
Q 1267 -1229 1142 -1254 
Q 1018 -1280 838 -1280 
L 576 -1280 
L 576 -832 
L 1094 -832 
L 1344 -128 
L 109 3302 
L 621 3302 
L 1414 1056 
L 1568 518 
L 1600 518 
L 1779 1056 
L 2579 3302 
z
" transform="scale(0.015625)"/>
      </defs>
      <use xlink:href="#IBMPlexSansThai-Regular-19"/>
      <use xlink:href="#IBMPlexSansThai-Regular-e" transform="translate(48.703125 0)"/>
      <use xlink:href="#IBMPlexSansThai-Regular-4" transform="translate(105.5 0)"/>
      <use xlink:href="#IBMPlexSansThai-Regular-18" transform="translate(158.90625 0)"/>
      <use xlink:href="#IBMPlexSansThai-Regular-9" transform="translate(195.109375 0)"/>
      <use xlink:href="#IBMPlexSansThai-Regular-8" transform="translate(250.015625 0)"/>
      <use xlink:href="#IBMPlexSansThai-Regular-3" transform="translate(308.015625 0)"/>
      <use xlink:href="#IBMPlexSansThai-Regular-e" transform="translate(331.609375 0)"/>
      <use xlink:href="#IBMPlexSansThai-Regular-f" transform="translate(388.40625 0)"/>
      <use xlink:href="#IBMPlexSansThai-Regular-19" transform="translate(413.40625 0)"/>
      <use xlink:href="#IBMPlexSansThai-Regular-1a" transform="translate(461.40625 0)"/>
      <use xlink:href="#IBMPlexSansThai-Regular-15" transform="translate(496.09375 0)"/>
      <use xlink:href="#IBMPlexSansThai-Regular-18" transform="translate(552.09375 0)"/>
      <use xlink:href="#IBMPlexSansThai-Regular-1f" transform="translate(589.796875 0)"/>
     </g>
    </g>
    <g id="patch_10">
     <path d="M 55.38625 153.238 
L 71.38625 153.238 
L 71.38625 147.638 
L 55.38625 147.638 
z
" style="fill: #059669; opacity: 0.12; stroke: #059669; stroke-linejoin: miter"/>
    </g>
    <g id="text_18">
     <!-- future increment -->
     <g transform="translate(77.78625 153.238) scale(0.08 -0.08)">
      <defs>
       <path id="IBMPlexSansThai-Regular-a" d="M 723 2854 
L 186 2854 
L 186 3302 
L 723 3302 
L 723 3968 
Q 723 4314 902 4525 
Q 1082 4736 1446 4736 
L 1946 4736 
L 1946 4288 
L 1235 4288 
L 1235 3302 
L 1946 3302 
L 1946 2854 
L 1235 2854 
L 1235 0 
L 723 0 
L 723 2854 
z
" transform="scale(0.015625)"/>
       <path id="IBMPlexSansThai-Regular-1b" d="M 2579 538 
L 2554 538 
Q 2502 422 2428 310 
Q 2355 198 2246 112 
Q 2138 26 1984 -25 
Q 1830 -77 1626 -77 
Q 1114 -77 813 252 
Q 512 582 512 1184 
L 512 3302 
L 1024 3302 
L 1024 1274 
Q 1024 384 1779 384 
Q 1933 384 2077 422 
Q 2221 461 2333 537 
Q 2445 614 2512 732 
Q 2579 851 2579 1018 
L 2579 3302 
L 3091 3302 
L 3091 0 
L 2579 0 
L 2579 538 
z
" transform="scale(0.015625)"/>
       <path id="IBMPlexSansThai-Regular-14" d="M 544 0 
L 544 3302 
L 1056 3302 
L 1056 2765 
L 1082 2765 
Q 1203 3046 1424 3212 
Q 1645 3379 2016 3379 
Q 2528 3379 2825 3049 
Q 3123 2720 3123 2118 
L 3123 0 
L 2611 0 
L 2611 2029 
Q 2611 2918 1862 2918 
Q 1709 2918 1565 2880 
Q 1421 2842 1305 2765 
Q 1190 2688 1123 2569 
Q 1056 2451 1056 2291 
L 1056 0 
L 544 0 
z
" transform="scale(0.015625)"/>
       <path id="IBMPlexSansThai-Regular-7" d="M 1773 -77 
Q 1427 -77 1152 44 
Q 877 166 688 390 
Q 499 614 400 934 
Q 301 1254 301 1651 
Q 301 2048 400 2368 
Q 499 2688 688 2912 
Q 877 3136 1152 3257 
Q 1427 3379 1773 3379 
Q 2266 3379 2563 3164 
Q 2861 2950 3008 2605 
L 2579 2387 
Q 2490 2643 2285 2784 
Q 2080 2925 1773 2925 
Q 1542 2925 1369 2851 
Q 1197 2778 1081 2646 
Q 966 2515 908 2332 
Q 851 2150 851 1933 
L 851 1370 
Q 851 934 1084 656 
Q 1318 378 1773 378 
Q 2394 378 2669 954 
L 3040 704 
Q 2880 346 2563 134 
Q 2246 -77 1773 -77 
z
" transform="scale(0.015625)"/>
      </defs>
      <use xlink:href="#IBMPlexSansThai-Regular-a"/>
      <use xlink:href="#IBMPlexSansThai-Regular-1b" transform="translate(32.40625 0)"/>
      <use xlink:href="#IBMPlexSansThai-Regular-1a" transform="translate(89.203125 0)"/>
      <use xlink:href="#IBMPlexSansThai-Regular-1b" transform="translate(124.296875 0)"/>
      <use xlink:href="#IBMPlexSansThai-Regular-18" transform="translate(181.09375 0)"/>
      <use xlink:href="#IBMPlexSansThai-Regular-9" transform="translate(217.296875 0)"/>
      <use xlink:href="#IBMPlexSansThai-Regular-3" transform="translate(272.203125 0)"/>
      <use xlink:href="#IBMPlexSansThai-Regular-f" transform="translate(295.796875 0)"/>
      <use xlink:href="#IBMPlexSansThai-Regular-14" transform="translate(320.796875 0)"/>
      <use xlink:href="#IBMPlexSansThai-Regular-7" transform="translate(377.59375 0)"/>
      <use xlink:href="#IBMPlexSansThai-Regular-18" transform="translate(427.890625 0)"/>
      <use xlink:href="#IBMPlexSansThai-Regular-9" transform="translate(464.09375 0)"/>
      <use xlink:href="#IBMPlexSansThai-Regular-13" transform="translate(519 0)"/>
      <use xlink:href="#IBMPlexSansThai-Regular-9" transform="translate(606.296875 0)"/>
      <use xlink:href="#IBMPlexSansThai-Regular-14" transform="translate(661.203125 0)"/>
      <use xlink:href="#IBMPlexSansThai-Regular-1a" transform="translate(718 0)"/>
     </g>
    </g>
   </g>
  </g>
 </g>
 <defs>
  <clipPath id="p50ecdce078">
   <rect x="48.18625" y="22.92" width="375.059091" height="141.79"/>
  </clipPath>
 </defs>
</svg>
