<svg class="figsvg" preserveAspectRatio="xMidYMid meet" xmlns:xlink="http://www.w3.org/1999/xlink" width="433.368977pt" height="209.52pt" viewBox="0 0 433.368977 209.52" xmlns="http://www.w3.org/2000/svg" version="1.1">
 <metadata>
  <rdf:RDF xmlns:dc="http://purl.org/dc/elements/1.1/" xmlns:cc="http://creativecommons.org/ns#" xmlns:rdf="http://www.w3.org/1999/02/22-rdf-syntax-ns#">
   <cc:Work>
    <dc:type rdf:resource="http://purl.org/dc/dcmitype/StillImage"/>
    <dc:date>2026-09-17T03:06:03.080044</dc:date>
    <dc:format>image/svg+xml</dc:format>
    <dc:creator>
     <cc:Agent>
      <dc:title>Matplotlib v3.11.1, https://matplotlib.org/</dc:title>
     </cc:Agent>
    </dc:creator>
   </cc:Work>
  </rdf:RDF>
 </metadata>
 <defs>
  <style type="text/css">*{stroke-linejoin: round; stroke-linecap: butt}</style>
 </defs>
 <g id="figure_1">
  <g id="patch_1">
   <path d="M 0 209.52 
L 433.368977 209.52 
L 433.368977 0 
L 0 0 
z
" style="fill: #ffffff"/>
  </g>
  <g id="axes_1">
   <g id="patch_2">
    <path d="M 43.38625 164.71 
L 427.608977 164.71 
L 427.608977 22.92 
L 43.38625 22.92 
z
" style="fill: #ffffff"/>
   </g>
   <g id="matplotlib.axis_1">
    <g id="xtick_1">
     <g id="line2d_1">
      <path d="M 60.850919 164.71 
L 60.850919 22.92 
" clip-path="url(#p4edcb2c32e)" style="fill: none; stroke: #e5e7eb; stroke-width: 0.6; stroke-linecap: round"/>
     </g>
     <g id="line2d_2">
      <defs>
       <path id="m8be0700762" d="M 0 0 
L 0 3.5 
" style="stroke: #6b7280; stroke-width: 0.8"/>
      </defs>
      <g>
       <use xlink:href="#m8be0700762" x="60.850919" y="164.71" style="fill: #6b7280; stroke: #6b7280; stroke-width: 0.8"/>
      </g>
     </g>
     <g id="text_1">
      <!-- 0.0 -->
      <g style="fill: #6b7280" transform="translate(54.962794 180.638) scale(0.08 -0.08)">
       <defs>
        <path id="IBMPlexSansThai-Regular-3b" d="M 1920 -77 
Q 1120 -77 752 531 
Q 384 1139 384 2234 
Q 384 3328 752 3936 
Q 1120 4544 1920 4544 
Q 2720 4544 3088 3936 
Q 3456 3328 3456 2234 
Q 3456 1139 3088 531 
Q 2720 -77 1920 -77 
z
M 1920 390 
Q 2182 390 2368 499 
Q 2554 608 2669 806 
Q 2784 1005 2838 1273 
Q 2893 1542 2893 1869 
L 2893 2598 
Q 2893 2925 2838 3193 
Q 2784 3462 2669 3660 
Q 2554 3859 2368 3968 
Q 2182 4077 1920 4077 
Q 1658 4077 1472 3968 
Q 1286 3859 1171 3660 
Q 1056 3462 1001 3193 
Q 947 2925 947 2598 
L 947 1869 
Q 947 1542 1001 1273 
Q 1056 1005 1171 806 
Q 1286 608 1472 499 
Q 1658 390 1920 390 
z
" transform="scale(0.015625)"/>
        <path id="IBMPlexSansThai-Regular-4e" d="M 870 -77 
Q 666 -77 573 25 
Q 480 128 480 294 
L 480 378 
Q 480 544 573 646 
Q 666 749 870 749 
Q 1075 749 1168 646 
Q 1261 544 1261 378 
L 1261 294 
Q 1261 128 1168 25 
Q 1075 -77 870 -77 
z
" transform="scale(0.015625)"/>
       </defs>
       <use xlink:href="#IBMPlexSansThai-Regular-3b"/>
       <use xlink:href="#IBMPlexSansThai-Regular-4e" transform="translate(60 0)"/>
       <use xlink:href="#IBMPlexSansThai-Regular-3b" transform="translate(87.203125 0)"/>
      </g>
     </g>
    </g>
    <g id="xtick_2">
     <g id="line2d_3">
      <path d="M 104.512593 164.71 
L 104.512593 22.92 
" clip-path="url(#p4edcb2c32e)" style="fill: none; stroke: #e5e7eb; stroke-width: 0.6; stroke-linecap: round"/>
     </g>
     <g id="line2d_4">
      <g>
       <use xlink:href="#m8be0700762" x="104.512593" y="164.71" style="fill: #6b7280; stroke: #6b7280; stroke-width: 0.8"/>
      </g>
     </g>
     <g id="text_2">
      <!-- 0.5 -->
      <g style="fill: #6b7280" transform="translate(98.624468 180.638) scale(0.08 -0.08)">
       <defs>
        <path id="IBMPlexSansThai-Regular-42" d="M 3187 3994 
L 1229 3994 
L 1101 2291 
L 1146 2291 
Q 1306 2515 1507 2649 
Q 1709 2784 2061 2784 
Q 2349 2784 2592 2688 
Q 2835 2592 3014 2416 
Q 3194 2240 3293 1984 
Q 3392 1728 3392 1402 
Q 3392 1075 3289 803 
Q 3187 531 2992 336 
Q 2797 141 2518 32 
Q 2240 -77 1888 -77 
Q 1606 -77 1392 -13 
Q 1178 51 1011 160 
Q 845 269 720 403 
Q 595 538 493 685 
L 896 992 
Q 979 858 1072 749 
Q 1165 640 1277 563 
Q 1389 486 1536 444 
Q 1683 403 1888 403 
Q 2349 403 2585 646 
Q 2822 890 2822 1331 
L 2822 1395 
Q 2822 1837 2585 2080 
Q 2349 2323 1888 2323 
Q 1581 2323 1405 2211 
Q 1229 2099 1088 1946 
L 634 2010 
L 794 4467 
L 3187 4467 
L 3187 3994 
z
" transform="scale(0.015625)"/>
       </defs>
       <use xlink:href="#IBMPlexSansThai-Regular-3b"/>
       <use xlink:href="#IBMPlexSansThai-Regular-4e" transform="translate(60 0)"/>
       <use xlink:href="#IBMPlexSansThai-Regular-42" transform="translate(87.203125 0)"/>
      </g>
     </g>
    </g>
    <g id="xtick_3">
     <g id="line2d_5">
      <path d="M 148.174267 164.71 
L 148.174267 22.92 
" clip-path="url(#p4edcb2c32e)" style="fill: none; stroke: #e5e7eb; stroke-width: 0.6; stroke-linecap: round"/>
     </g>
     <g id="line2d_6">
      <g>
       <use xlink:href="#m8be0700762" x="148.174267" y="164.71" style="fill: #6b7280; stroke: #6b7280; stroke-width: 0.8"/>
      </g>
     </g>
     <g id="text_3">
      <!-- 1.0 -->
      <g style="fill: #6b7280" transform="translate(142.286142 180.638) scale(0.08 -0.08)">
       <defs>
        <path id="IBMPlexSansThai-Regular-3e" d="M 563 0 
L 563 474 
L 1811 474 
L 1811 4070 
L 1766 4070 
L 640 3021 
L 326 3360 
L 1510 4467 
L 2349 4467 
L 2349 474 
L 3501 474 
L 3501 0 
L 563 0 
z
" transform="scale(0.015625)"/>
       </defs>
       <use xlink:href="#IBMPlexSansThai-Regular-3e"/>
       <use xlink:href="#IBMPlexSansThai-Regular-4e" transform="translate(60 0)"/>
       <use xlink:href="#IBMPlexSansThai-Regular-3b" transform="translate(87.203125 0)"/>
      </g>
     </g>
    </g>
    <g id="xtick_4">
     <g id="line2d_7">
      <path d="M 191.83594 164.71 
L 191.83594 22.92 
" clip-path="url(#p4edcb2c32e)" style="fill: none; stroke: #e5e7eb; stroke-width: 0.6; stroke-linecap: round"/>
     </g>
     <g id="line2d_8">
      <g>
       <use xlink:href="#m8be0700762" x="191.83594" y="164.71" style="fill: #6b7280; stroke: #6b7280; stroke-width: 0.8"/>
      </g>
     </g>
     <g id="text_4">
      <!-- 1.5 -->
      <g style="fill: #6b7280" transform="translate(185.947815 180.638) scale(0.08 -0.08)">
       <use xlink:href="#IBMPlexSansThai-Regular-3e"/>
       <use xlink:href="#IBMPlexSansThai-Regular-4e" transform="translate(60 0)"/>
       <use xlink:href="#IBMPlexSansThai-Regular-42" transform="translate(87.203125 0)"/>
      </g>
     </g>
    </g>
    <g id="xtick_5">
     <g id="line2d_9">
      <path d="M 235.497614 164.71 
L 235.497614 22.92 
" clip-path="url(#p4edcb2c32e)" style="fill: none; stroke: #e5e7eb; stroke-width: 0.6; stroke-linecap: round"/>
     </g>
     <g id="line2d_10">
      <g>
       <use xlink:href="#m8be0700762" x="235.497614" y="164.71" style="fill: #6b7280; stroke: #6b7280; stroke-width: 0.8"/>
      </g>
     </g>
     <g id="text_5">
      <!-- 2.0 -->
      <g style="fill: #6b7280" transform="translate(229.609489 180.638) scale(0.08 -0.08)">
       <defs>
        <path id="IBMPlexSansThai-Regular-3f" d="M 3411 0 
L 480 0 
L 480 550 
L 1939 1894 
Q 2253 2182 2464 2505 
Q 2675 2829 2675 3155 
L 2675 3232 
Q 2675 3603 2470 3833 
Q 2266 4064 1850 4064 
Q 1645 4064 1491 4006 
Q 1338 3949 1226 3846 
Q 1114 3744 1040 3606 
Q 966 3469 922 3309 
L 442 3494 
Q 506 3693 618 3881 
Q 730 4070 899 4217 
Q 1069 4365 1309 4454 
Q 1549 4544 1875 4544 
Q 2202 4544 2458 4448 
Q 2714 4352 2886 4179 
Q 3059 4006 3152 3769 
Q 3245 3533 3245 3245 
Q 3245 2982 3171 2758 
Q 3098 2534 2970 2332 
Q 2842 2131 2659 1939 
Q 2477 1747 2266 1555 
L 1062 474 
L 3411 474 
L 3411 0 
z
" transform="scale(0.015625)"/>
       </defs>
       <use xlink:href="#IBMPlexSansThai-Regular-3f"/>
       <use xlink:href="#IBMPlexSansThai-Regular-4e" transform="translate(60 0)"/>
       <use xlink:href="#IBMPlexSansThai-Regular-3b" transform="translate(87.203125 0)"/>
      </g>
     </g>
    </g>
    <g id="xtick_6">
     <g id="line2d_11">
      <path d="M 279.159287 164.71 
L 279.159287 22.92 
" clip-path="url(#p4edcb2c32e)" style="fill: none; stroke: #e5e7eb; stroke-width: 0.6; stroke-linecap: round"/>
     </g>
     <g id="line2d_12">
      <g>
       <use xlink:href="#m8be0700762" x="279.159287" y="164.71" style="fill: #6b7280; stroke: #6b7280; stroke-width: 0.8"/>
      </g>
     </g>
     <g id="text_6">
      <!-- 2.5 -->
      <g style="fill: #6b7280" transform="translate(273.271162 180.638) scale(0.08 -0.08)">
       <use xlink:href="#IBMPlexSansThai-Regular-3f"/>
       <use xlink:href="#IBMPlexSansThai-Regular-4e" transform="translate(60 0)"/>
       <use xlink:href="#IBMPlexSansThai-Regular-42" transform="translate(87.203125 0)"/>
      </g>
     </g>
    </g>
    <g id="xtick_7">
     <g id="line2d_13">
      <path d="M 322.820961 164.71 
L 322.820961 22.92 
" clip-path="url(#p4edcb2c32e)" style="fill: none; stroke: #e5e7eb; stroke-width: 0.6; stroke-linecap: round"/>
     </g>
     <g id="line2d_14">
      <g>
       <use xlink:href="#m8be0700762" x="322.820961" y="164.71" style="fill: #6b7280; stroke: #6b7280; stroke-width: 0.8"/>
      </g>
     </g>
     <g id="text_7">
      <!-- 3.0 -->
      <g style="fill: #6b7280" transform="translate(316.932836 180.638) scale(0.08 -0.08)">
       <defs>
        <path id="IBMPlexSansThai-Regular-40" d="M 1670 2573 
Q 2125 2573 2352 2781 
Q 2579 2989 2579 3315 
L 2579 3360 
Q 2579 3712 2358 3888 
Q 2138 4064 1779 4064 
Q 1434 4064 1216 3913 
Q 998 3763 858 3507 
L 461 3814 
Q 544 3949 662 4080 
Q 781 4211 941 4313 
Q 1101 4416 1312 4480 
Q 1523 4544 1792 4544 
Q 2074 4544 2323 4470 
Q 2573 4397 2755 4253 
Q 2938 4109 3043 3897 
Q 3149 3686 3149 3418 
Q 3149 3200 3081 3027 
Q 3014 2854 2899 2726 
Q 2784 2598 2627 2508 
Q 2470 2419 2291 2374 
L 2291 2349 
Q 2470 2310 2640 2224 
Q 2810 2138 2941 2000 
Q 3072 1862 3152 1667 
Q 3232 1472 3232 1222 
Q 3232 934 3123 694 
Q 3014 454 2816 284 
Q 2618 115 2336 19 
Q 2054 -77 1715 -77 
Q 1427 -77 1203 -13 
Q 979 51 806 160 
Q 634 269 502 403 
Q 371 538 269 685 
L 672 992 
Q 755 858 854 749 
Q 954 640 1075 563 
Q 1197 486 1350 444 
Q 1504 403 1709 403 
Q 2182 403 2425 617 
Q 2669 832 2669 1229 
L 2669 1280 
Q 2669 1677 2425 1891 
Q 2182 2106 1709 2106 
L 1184 2106 
L 1184 2573 
L 1670 2573 
z
" transform="scale(0.015625)"/>
       </defs>
       <use xlink:href="#IBMPlexSansThai-Regular-40"/>
       <use xlink:href="#IBMPlexSansThai-Regular-4e" transform="translate(60 0)"/>
       <use xlink:href="#IBMPlexSansThai-Regular-3b" transform="translate(87.203125 0)"/>
      </g>
     </g>
    </g>
    <g id="xtick_8">
     <g id="line2d_15">
      <path d="M 366.482634 164.71 
L 366.482634 22.92 
" clip-path="url(#p4edcb2c32e)" style="fill: none; stroke: #e5e7eb; stroke-width: 0.6; stroke-linecap: round"/>
     </g>
     <g id="line2d_16">
      <g>
       <use xlink:href="#m8be0700762" x="366.482634" y="164.71" style="fill: #6b7280; stroke: #6b7280; stroke-width: 0.8"/>
      </g>
     </g>
     <g id="text_8">
      <!-- 3.5 -->
      <g style="fill: #6b7280" transform="translate(360.594509 180.638) scale(0.08 -0.08)">
       <use xlink:href="#IBMPlexSansThai-Regular-40"/>
       <use xlink:href="#IBMPlexSansThai-Regular-4e" transform="translate(60 0)"/>
       <use xlink:href="#IBMPlexSansThai-Regular-42" transform="translate(87.203125 0)"/>
      </g>
     </g>
    </g>
    <g id="xtick_9">
     <g id="line2d_17">
      <path d="M 410.144308 164.71 
L 410.144308 22.92 
" clip-path="url(#p4edcb2c32e)" style="fill: none; stroke: #e5e7eb; stroke-width: 0.6; stroke-linecap: round"/>
     </g>
     <g id="line2d_18">
      <g>
       <use xlink:href="#m8be0700762" x="410.144308" y="164.71" style="fill: #6b7280; stroke: #6b7280; stroke-width: 0.8"/>
      </g>
     </g>
     <g id="text_9">
      <!-- 4.0 -->
      <g style="fill: #6b7280" transform="translate(404.256183 180.638) scale(0.08 -0.08)">
       <defs>
        <path id="IBMPlexSansThai-Regular-41" d="M 2400 0 
L 2400 877 
L 243 877 
L 243 1350 
L 2112 4467 
L 2912 4467 
L 2912 1325 
L 3558 1325 
L 3558 877 
L 2912 877 
L 2912 0 
L 2400 0 
z
M 749 1325 
L 2400 1325 
L 2400 4051 
L 2368 4051 
L 749 1325 
z
" transform="scale(0.015625)"/>
       </defs>
       <use xlink:href="#IBMPlexSansThai-Regular-41"/>
       <use xlink:href="#IBMPlexSansThai-Regular-4e" transform="translate(60 0)"/>
       <use xlink:href="#IBMPlexSansThai-Regular-3b" transform="translate(87.203125 0)"/>
      </g>
     </g>
    </g>
    <g id="text_10">
     <!-- Interval boundary -->
     <g style="fill: #111418" transform="translate(199.353473 198.954) scale(0.09 -0.09)">
      <defs>
       <path id="IBMPlexSansThai-Regular-29" d="M 384 0 
L 384 448 
L 1011 448 
L 1011 4019 
L 384 4019 
L 384 4467 
L 2176 4467 
L 2176 4019 
L 1549 4019 
L 1549 448 
L 2176 448 
L 2176 0 
L 384 0 
z
" transform="scale(0.015625)"/>
       <path id="IBMPlexSansThai-Regular-14" d="M 544 0 
L 544 3302 
L 1056 3302 
L 1056 2765 
L 1082 2765 
Q 1203 3046 1424 3212 
Q 1645 3379 2016 3379 
Q 2528 3379 2825 3049 
Q 3123 2720 3123 2118 
L 3123 0 
L 2611 0 
L 2611 2029 
Q 2611 2918 1862 2918 
Q 1709 2918 1565 2880 
Q 1421 2842 1305 2765 
Q 1190 2688 1123 2569 
Q 1056 2451 1056 2291 
L 1056 0 
L 544 0 
z
" transform="scale(0.015625)"/>
       <path id="IBMPlexSansThai-Regular-1a" d="M 1274 0 
Q 1005 0 867 150 
Q 730 301 730 544 
L 730 2854 
L 186 2854 
L 186 3302 
L 493 3302 
Q 659 3302 720 3369 
Q 781 3437 781 3603 
L 781 4218 
L 1242 4218 
L 1242 3302 
L 1965 3302 
L 1965 2854 
L 1242 2854 
L 1242 448 
L 1914 448 
L 1914 0 
L 1274 0 
z
" transform="scale(0.015625)"/>
       <path id="IBMPlexSansThai-Regular-9" d="M 1786 -77 
Q 1446 -77 1174 44 
Q 902 166 707 393 
Q 512 621 406 937 
Q 301 1254 301 1651 
Q 301 2042 406 2362 
Q 512 2682 707 2909 
Q 902 3136 1174 3257 
Q 1446 3379 1786 3379 
Q 2118 3379 2380 3257 
Q 2643 3136 2828 2921 
Q 3014 2707 3113 2412 
Q 3213 2118 3213 1766 
L 3213 1523 
L 838 1523 
L 838 1370 
Q 838 1158 905 976 
Q 973 794 1097 659 
Q 1222 525 1404 448 
Q 1587 371 1818 371 
Q 2131 371 2364 518 
Q 2598 666 2726 941 
L 3091 678 
Q 2931 339 2592 131 
Q 2253 -77 1786 -77 
z
M 1786 2950 
Q 1574 2950 1401 2876 
Q 1229 2803 1104 2668 
Q 979 2534 908 2352 
Q 838 2170 838 1952 
L 838 1907 
L 2662 1907 
L 2662 1978 
Q 2662 2419 2422 2684 
Q 2182 2950 1786 2950 
z
" transform="scale(0.015625)"/>
       <path id="IBMPlexSansThai-Regular-18" d="M 544 0 
L 544 3302 
L 1056 3302 
L 1056 2694 
L 1088 2694 
Q 1178 2931 1408 3116 
Q 1638 3302 2042 3302 
L 2240 3302 
L 2240 2790 
L 1939 2790 
Q 1523 2790 1289 2633 
Q 1056 2477 1056 2240 
L 1056 0 
L 544 0 
z
" transform="scale(0.015625)"/>
       <path id="IBMPlexSansThai-Regular-1c" d="M 1274 0 
L 115 3302 
L 627 3302 
L 1203 1664 
L 1562 538 
L 1594 538 
L 1952 1664 
L 2541 3302 
L 3034 3302 
L 1869 0 
L 1274 0 
z
" transform="scale(0.015625)"/>
       <path id="IBMPlexSansThai-Regular-4" d="M 2944 0 
Q 2656 0 2531 153 
Q 2406 307 2374 538 
L 2342 538 
Q 2234 230 1984 76 
Q 1734 -77 1389 -77 
Q 864 -77 573 192 
Q 282 461 282 922 
Q 282 1389 624 1638 
Q 966 1888 1690 1888 
L 2342 1888 
L 2342 2214 
Q 2342 2566 2150 2752 
Q 1958 2938 1562 2938 
Q 1261 2938 1059 2803 
Q 858 2669 723 2445 
L 416 2733 
Q 550 3002 844 3190 
Q 1139 3379 1587 3379 
Q 2189 3379 2521 3084 
Q 2854 2790 2854 2266 
L 2854 448 
L 3232 448 
L 3232 0 
L 2944 0 
z
M 1472 358 
Q 1664 358 1824 403 
Q 1984 448 2099 531 
Q 2214 614 2278 723 
Q 2342 832 2342 960 
L 2342 1504 
L 1664 1504 
Q 1222 1504 1020 1376 
Q 819 1248 819 1005 
L 819 870 
Q 819 627 995 492 
Q 1171 358 1472 358 
z
" transform="scale(0.015625)"/>
       <path id="IBMPlexSansThai-Regular-12" d="M 1088 0 
Q 819 0 681 150 
Q 544 301 544 531 
L 544 4736 
L 1056 4736 
L 1056 448 
L 1542 448 
L 1542 0 
L 1088 0 
z
" transform="scale(0.015625)"/>
       <path id="IBMPlexSansThai-Regular-3" transform="scale(0.015625)"/>
       <path id="IBMPlexSansThai-Regular-6" d="M 544 4736 
L 1056 4736 
L 1056 2765 
L 1082 2765 
Q 1210 3078 1456 3228 
Q 1702 3379 2048 3379 
Q 2355 3379 2604 3257 
Q 2854 3136 3030 2912 
Q 3206 2688 3299 2368 
Q 3392 2048 3392 1651 
Q 3392 1254 3299 934 
Q 3206 614 3030 390 
Q 2854 166 2604 44 
Q 2355 -77 2048 -77 
Q 1376 -77 1082 538 
L 1056 538 
L 1056 0 
L 544 0 
L 544 4736 
z
M 1907 384 
Q 2342 384 2592 656 
Q 2842 928 2842 1370 
L 2842 1933 
Q 2842 2374 2592 2646 
Q 2342 2918 1907 2918 
Q 1734 2918 1577 2870 
Q 1421 2822 1305 2739 
Q 1190 2656 1123 2537 
Q 1056 2419 1056 2285 
L 1056 1056 
Q 1056 896 1123 771 
Q 1190 646 1305 560 
Q 1421 474 1577 429 
Q 1734 384 1907 384 
z
" transform="scale(0.015625)"/>
       <path id="IBMPlexSansThai-Regular-15" d="M 1792 -77 
Q 1459 -77 1184 44 
Q 909 166 713 393 
Q 518 621 409 937 
Q 301 1254 301 1651 
Q 301 2042 409 2362 
Q 518 2682 713 2909 
Q 909 3136 1184 3257 
Q 1459 3379 1792 3379 
Q 2125 3379 2397 3257 
Q 2669 3136 2867 2909 
Q 3066 2682 3174 2362 
Q 3283 2042 3283 1651 
Q 3283 1254 3174 937 
Q 3066 621 2867 393 
Q 2669 166 2397 44 
Q 2125 -77 1792 -77 
z
M 1792 378 
Q 2208 378 2470 634 
Q 2733 890 2733 1414 
L 2733 1888 
Q 2733 2413 2470 2669 
Q 2208 2925 1792 2925 
Q 1376 2925 1113 2669 
Q 851 2413 851 1888 
L 851 1414 
Q 851 890 1113 634 
Q 1376 378 1792 378 
z
" transform="scale(0.015625)"/>
       <path id="IBMPlexSansThai-Regular-1b" d="M 2579 538 
L 2554 538 
Q 2502 422 2428 310 
Q 2355 198 2246 112 
Q 2138 26 1984 -25 
Q 1830 -77 1626 -77 
Q 1114 -77 813 252 
Q 512 582 512 1184 
L 512 3302 
L 1024 3302 
L 1024 1274 
Q 1024 384 1779 384 
Q 1933 384 2077 422 
Q 2221 461 2333 537 
Q 2445 614 2512 732 
Q 2579 851 2579 1018 
L 2579 3302 
L 3091 3302 
L 3091 0 
L 2579 0 
L 2579 538 
z
" transform="scale(0.015625)"/>
       <path id="IBMPlexSansThai-Regular-8" d="M 2656 538 
L 2630 538 
Q 2330 -77 1664 -77 
Q 1357 -77 1107 44 
Q 858 166 682 390 
Q 506 614 413 934 
Q 320 1254 320 1651 
Q 320 2048 413 2368 
Q 506 2688 682 2912 
Q 858 3136 1107 3257 
Q 1357 3379 1664 3379 
Q 2010 3379 2256 3228 
Q 2502 3078 2630 2765 
L 2656 2765 
L 2656 4736 
L 3168 4736 
L 3168 0 
L 2656 0 
L 2656 538 
z
M 1805 384 
Q 1978 384 2134 429 
Q 2291 474 2406 560 
Q 2522 646 2589 771 
Q 2656 896 2656 1056 
L 2656 2285 
Q 2656 2419 2589 2537 
Q 2522 2656 2406 2739 
Q 2291 2822 2134 2870 
Q 1978 2918 1805 2918 
Q 1370 2918 1120 2646 
Q 870 2374 870 1933 
L 870 1370 
Q 870 928 1120 656 
Q 1370 384 1805 384 
z
" transform="scale(0.015625)"/>
       <path id="IBMPlexSansThai-Regular-1f" d="M 2579 3302 
L 3085 3302 
L 1606 -768 
Q 1549 -915 1491 -1014 
Q 1434 -1114 1350 -1171 
Q 1267 -1229 1142 -1254 
Q 1018 -1280 838 -1280 
L 576 -1280 
L 576 -832 
L 1094 -832 
L 1344 -128 
L 109 3302 
L 621 3302 
L 1414 1056 
L 1568 518 
L 1600 518 
L 1779 1056 
L 2579 3302 
z
" transform="scale(0.015625)"/>
      </defs>
      <use xlink:href="#IBMPlexSansThai-Regular-29"/>
      <use xlink:href="#IBMPlexSansThai-Regular-14" transform="translate(40 0)"/>
      <use xlink:href="#IBMPlexSansThai-Regular-1a" transform="translate(96.796875 0)"/>
      <use xlink:href="#IBMPlexSansThai-Regular-9" transform="translate(131.484375 0)"/>
      <use xlink:href="#IBMPlexSansThai-Regular-18" transform="translate(186.390625 0)"/>
      <use xlink:href="#IBMPlexSansThai-Regular-1c" transform="translate(224.09375 0)"/>
      <use xlink:href="#IBMPlexSansThai-Regular-4" transform="translate(272.390625 0)"/>
      <use xlink:href="#IBMPlexSansThai-Regular-12" transform="translate(325.796875 0)"/>
      <use xlink:href="#IBMPlexSansThai-Regular-3" transform="translate(353 0)"/>
      <use xlink:href="#IBMPlexSansThai-Regular-6" transform="translate(376.59375 0)"/>
      <use xlink:href="#IBMPlexSansThai-Regular-15" transform="translate(434.59375 0)"/>
      <use xlink:href="#IBMPlexSansThai-Regular-1b" transform="translate(490.59375 0)"/>
      <use xlink:href="#IBMPlexSansThai-Regular-14" transform="translate(547.390625 0)"/>
      <use xlink:href="#IBMPlexSansThai-Regular-8" transform="translate(604.1875 0)"/>
      <use xlink:href="#IBMPlexSansThai-Regular-4" transform="translate(662.1875 0)"/>
      <use xlink:href="#IBMPlexSansThai-Regular-18" transform="translate(715.59375 0)"/>
      <use xlink:href="#IBMPlexSansThai-Regular-1f" transform="translate(753.296875 0)"/>
     </g>
    </g>
   </g>
   <g id="matplotlib.axis_2">
    <g id="ytick_1">
     <g id="line2d_19">
      <path d="M 43.38625 158.265 
L 427.608977 158.265 
" clip-path="url(#p4edcb2c32e)" style="fill: none; stroke: #e5e7eb; stroke-width: 0.6; stroke-linecap: round"/>
     </g>
     <g id="line2d_20">
      <defs>
       <path id="mbdde129b32" d="M 0 0 
L -3.5 0 
" style="stroke: #6b7280; stroke-width: 0.8"/>
      </defs>
      <g>
       <use xlink:href="#mbdde129b32" x="43.38625" y="158.265" style="fill: #6b7280; stroke: #6b7280; stroke-width: 0.8"/>
      </g>
     </g>
     <g id="text_11">
      <!-- 0.0 -->
      <g style="fill: #6b7280" transform="translate(24.61 162.729) scale(0.08 -0.08)">
       <use xlink:href="#IBMPlexSansThai-Regular-3b"/>
       <use xlink:href="#IBMPlexSansThai-Regular-4e" transform="translate(60 0)"/>
       <use xlink:href="#IBMPlexSansThai-Regular-3b" transform="translate(87.203125 0)"/>
      </g>
     </g>
    </g>
    <g id="ytick_2">
     <g id="line2d_21">
      <path d="M 43.38625 132.485 
L 427.608977 132.485 
" clip-path="url(#p4edcb2c32e)" style="fill: none; stroke: #e5e7eb; stroke-width: 0.6; stroke-linecap: round"/>
     </g>
     <g id="line2d_22">
      <g>
       <use xlink:href="#mbdde129b32" x="43.38625" y="132.485" style="fill: #6b7280; stroke: #6b7280; stroke-width: 0.8"/>
      </g>
     </g>
     <g id="text_12">
      <!-- 0.2 -->
      <g style="fill: #6b7280" transform="translate(24.61 136.949) scale(0.08 -0.08)">
       <use xlink:href="#IBMPlexSansThai-Regular-3b"/>
       <use xlink:href="#IBMPlexSansThai-Regular-4e" transform="translate(60 0)"/>
       <use xlink:href="#IBMPlexSansThai-Regular-3f" transform="translate(87.203125 0)"/>
      </g>
     </g>
    </g>
    <g id="ytick_3">
     <g id="line2d_23">
      <path d="M 43.38625 106.705 
L 427.608977 106.705 
" clip-path="url(#p4edcb2c32e)" style="fill: none; stroke: #e5e7eb; stroke-width: 0.6; stroke-linecap: round"/>
     </g>
     <g id="line2d_24">
      <g>
       <use xlink:href="#mbdde129b32" x="43.38625" y="106.705" style="fill: #6b7280; stroke: #6b7280; stroke-width: 0.8"/>
      </g>
     </g>
     <g id="text_13">
      <!-- 0.4 -->
      <g style="fill: #6b7280" transform="translate(24.61 111.169) scale(0.08 -0.08)">
       <use xlink:href="#IBMPlexSansThai-Regular-3b"/>
       <use xlink:href="#IBMPlexSansThai-Regular-4e" transform="translate(60 0)"/>
       <use xlink:href="#IBMPlexSansThai-Regular-41" transform="translate(87.203125 0)"/>
      </g>
     </g>
    </g>
    <g id="ytick_4">
     <g id="line2d_25">
      <path d="M 43.38625 80.925 
L 427.608977 80.925 
" clip-path="url(#p4edcb2c32e)" style="fill: none; stroke: #e5e7eb; stroke-width: 0.6; stroke-linecap: round"/>
     </g>
     <g id="line2d_26">
      <g>
       <use xlink:href="#mbdde129b32" x="43.38625" y="80.925" style="fill: #6b7280; stroke: #6b7280; stroke-width: 0.8"/>
      </g>
     </g>
     <g id="text_14">
      <!-- 0.6 -->
      <g style="fill: #6b7280" transform="translate(24.61 85.389) scale(0.08 -0.08)">
       <defs>
        <path id="IBMPlexSansThai-Regular-43" d="M 1926 -77 
Q 1581 -77 1302 41 
Q 1024 160 829 381 
Q 634 602 531 922 
Q 429 1242 429 1638 
Q 429 2138 576 2576 
Q 723 3014 956 3376 
Q 1190 3738 1472 4016 
Q 1754 4294 2022 4467 
L 2714 4467 
Q 2355 4205 2073 3955 
Q 1792 3706 1581 3434 
Q 1370 3162 1222 2851 
Q 1075 2541 986 2150 
L 1018 2138 
Q 1178 2413 1430 2595 
Q 1683 2778 2093 2778 
Q 2381 2778 2624 2682 
Q 2867 2586 3040 2406 
Q 3213 2227 3312 1971 
Q 3411 1715 3411 1402 
Q 3411 1075 3305 803 
Q 3200 531 3005 336 
Q 2810 141 2534 32 
Q 2259 -77 1926 -77 
z
M 1920 390 
Q 2362 390 2608 633 
Q 2854 877 2854 1331 
L 2854 1382 
Q 2854 1837 2608 2080 
Q 2362 2323 1920 2323 
Q 1478 2323 1232 2080 
Q 986 1837 986 1382 
L 986 1331 
Q 986 877 1232 633 
Q 1478 390 1920 390 
z
" transform="scale(0.015625)"/>
       </defs>
       <use xlink:href="#IBMPlexSansThai-Regular-3b"/>
       <use xlink:href="#IBMPlexSansThai-Regular-4e" transform="translate(60 0)"/>
       <use xlink:href="#IBMPlexSansThai-Regular-43" transform="translate(87.203125 0)"/>
      </g>
     </g>
    </g>
    <g id="ytick_5">
     <g id="line2d_27">
      <path d="M 43.38625 55.145 
L 427.608977 55.145 
" clip-path="url(#p4edcb2c32e)" style="fill: none; stroke: #e5e7eb; stroke-width: 0.6; stroke-linecap: round"/>
     </g>
     <g id="line2d_28">
      <g>
       <use xlink:href="#mbdde129b32" x="43.38625" y="55.145" style="fill: #6b7280; stroke: #6b7280; stroke-width: 0.8"/>
      </g>
     </g>
     <g id="text_15">
      <!-- 0.8 -->
      <g style="fill: #6b7280" transform="translate(24.61 59.609) scale(0.08 -0.08)">
       <defs>
        <path id="IBMPlexSansThai-Regular-45" d="M 1920 -77 
Q 1536 -77 1248 22 
Q 960 122 765 294 
Q 570 467 470 704 
Q 371 941 371 1216 
Q 371 1677 620 1945 
Q 870 2214 1274 2323 
L 1274 2374 
Q 922 2496 714 2768 
Q 506 3040 506 3424 
Q 506 3936 877 4240 
Q 1248 4544 1920 4544 
Q 2592 4544 2963 4240 
Q 3334 3936 3334 3424 
Q 3334 3040 3126 2768 
Q 2918 2496 2566 2374 
L 2566 2323 
Q 2970 2214 3219 1945 
Q 3469 1677 3469 1216 
Q 3469 941 3369 704 
Q 3270 467 3075 294 
Q 2880 122 2592 22 
Q 2304 -77 1920 -77 
z
M 1920 390 
Q 2387 390 2643 598 
Q 2899 806 2899 1190 
L 2899 1325 
Q 2899 1709 2643 1917 
Q 2387 2125 1920 2125 
Q 1453 2125 1197 1917 
Q 941 1709 941 1325 
L 941 1190 
Q 941 806 1197 598 
Q 1453 390 1920 390 
z
M 1920 2573 
Q 2342 2573 2560 2752 
Q 2778 2931 2778 3277 
L 2778 3373 
Q 2778 3718 2560 3897 
Q 2342 4077 1920 4077 
Q 1498 4077 1280 3897 
Q 1062 3718 1062 3373 
L 1062 3277 
Q 1062 2931 1280 2752 
Q 1498 2573 1920 2573 
z
" transform="scale(0.015625)"/>
       </defs>
       <use xlink:href="#IBMPlexSansThai-Regular-3b"/>
       <use xlink:href="#IBMPlexSansThai-Regular-4e" transform="translate(60 0)"/>
       <use xlink:href="#IBMPlexSansThai-Regular-45" transform="translate(87.203125 0)"/>
      </g>
     </g>
    </g>
    <g id="ytick_6">
     <g id="line2d_29">
      <path d="M 43.38625 29.365 
L 427.608977 29.365 
" clip-path="url(#p4edcb2c32e)" style="fill: none; stroke: #e5e7eb; stroke-width: 0.6; stroke-linecap: round"/>
     </g>
     <g id="line2d_30">
      <g>
       <use xlink:href="#mbdde129b32" x="43.38625" y="29.365" style="fill: #6b7280; stroke: #6b7280; stroke-width: 0.8"/>
      </g>
     </g>
     <g id="text_16">
      <!-- 1.0 -->
      <g style="fill: #6b7280" transform="translate(24.61 33.829) scale(0.08 -0.08)">
       <use xlink:href="#IBMPlexSansThai-Regular-3e"/>
       <use xlink:href="#IBMPlexSansThai-Regular-4e" transform="translate(60 0)"/>
       <use xlink:href="#IBMPlexSansThai-Regular-3b" transform="translate(87.203125 0)"/>
      </g>
     </g>
    </g>
    <g id="text_17">
     <!-- Position signal $W$ -->
     <g style="fill: #111418" transform="translate(15.804 128.645) rotate(-90) scale(0.09 -0.09)">
      <defs>
       <path id="IBMPlexSansThai-Regular-30" d="M 595 0 
L 595 4467 
L 2374 4467 
Q 2976 4467 3299 4124 
Q 3622 3782 3622 3187 
Q 3622 2592 3299 2249 
Q 2976 1907 2374 1907 
L 1133 1907 
L 1133 0 
L 595 0 
z
M 1133 2381 
L 2374 2381 
Q 2694 2381 2870 2547 
Q 3046 2714 3046 3021 
L 3046 3354 
Q 3046 3661 2870 3827 
Q 2694 3994 2374 3994 
L 1133 3994 
L 1133 2381 
z
" transform="scale(0.015625)"/>
       <path id="IBMPlexSansThai-Regular-19" d="M 1536 -77 
Q 1075 -77 764 99 
Q 454 275 230 570 
L 595 864 
Q 787 621 1024 489 
Q 1261 358 1574 358 
Q 1901 358 2083 499 
Q 2266 640 2266 896 
Q 2266 1088 2141 1225 
Q 2016 1363 1690 1414 
L 1427 1453 
Q 1197 1485 1005 1552 
Q 813 1619 669 1731 
Q 525 1843 445 2009 
Q 365 2176 365 2406 
Q 365 2650 454 2832 
Q 544 3014 701 3136 
Q 858 3258 1075 3318 
Q 1293 3379 1542 3379 
Q 1946 3379 2218 3238 
Q 2490 3098 2694 2848 
L 2355 2541 
Q 2246 2694 2035 2819 
Q 1824 2944 1504 2944 
Q 1184 2944 1021 2806 
Q 858 2669 858 2432 
Q 858 2189 1021 2080 
Q 1184 1971 1491 1920 
L 1747 1882 
Q 2298 1798 2528 1564 
Q 2758 1331 2758 954 
Q 2758 474 2432 198 
Q 2106 -77 1536 -77 
z
" transform="scale(0.015625)"/>
       <path id="IBMPlexSansThai-Regular-f" d="M 800 4077 
Q 634 4077 560 4157 
Q 486 4237 486 4365 
L 486 4448 
Q 486 4576 560 4656 
Q 634 4736 800 4736 
Q 966 4736 1040 4656 
Q 1114 4576 1114 4448 
L 1114 4365 
Q 1114 4237 1040 4157 
Q 966 4077 800 4077 
z
M 544 3302 
L 1056 3302 
L 1056 0 
L 544 0 
L 544 3302 
z
" transform="scale(0.015625)"/>
       <path id="IBMPlexSansThai-Regular-b" d="M 3328 -365 
Q 3328 -877 2928 -1117 
Q 2528 -1357 1728 -1357 
Q 954 -1357 614 -1145 
Q 275 -934 275 -544 
Q 275 -275 416 -124 
Q 557 26 800 96 
L 800 166 
Q 506 307 506 627 
Q 506 877 666 1008 
Q 826 1139 1075 1203 
L 1075 1229 
Q 781 1370 617 1632 
Q 454 1894 454 2240 
Q 454 2490 544 2701 
Q 634 2912 797 3062 
Q 960 3213 1187 3296 
Q 1414 3379 1696 3379 
Q 2048 3379 2323 3251 
L 2323 3309 
Q 2323 3501 2412 3625 
Q 2502 3750 2707 3750 
L 3200 3750 
L 3200 3302 
L 2573 3302 
L 2573 3091 
Q 2752 2938 2851 2723 
Q 2950 2509 2950 2240 
Q 2950 1990 2860 1779 
Q 2771 1568 2608 1417 
Q 2445 1267 2214 1184 
Q 1984 1101 1702 1101 
Q 1542 1101 1382 1133 
Q 1216 1088 1081 1001 
Q 947 915 947 762 
Q 947 614 1088 563 
Q 1229 512 1453 512 
L 2157 512 
Q 2771 512 3049 278 
Q 3328 45 3328 -365 
z
M 2848 -403 
Q 2848 -205 2697 -86 
Q 2547 32 2163 32 
L 1062 32 
Q 755 -109 755 -416 
Q 755 -634 918 -787 
Q 1082 -941 1472 -941 
L 1946 -941 
Q 2374 -941 2611 -806 
Q 2848 -672 2848 -403 
z
M 1702 1510 
Q 2029 1510 2221 1667 
Q 2413 1824 2413 2150 
L 2413 2330 
Q 2413 2656 2221 2813 
Q 2029 2970 1702 2970 
Q 1376 2970 1184 2813 
Q 992 2656 992 2330 
L 992 2150 
Q 992 1824 1184 1667 
Q 1376 1510 1702 1510 
z
" transform="scale(0.015625)"/>
       <path id="DejaVuSans-Oblique-3a" d="M 616 4666 
L 1228 4666 
L 1453 697 
L 3213 4666 
L 3916 4666 
L 4147 697 
L 5888 4666 
L 6528 4666 
L 4453 0 
L 3659 0 
L 3444 3891 
L 1697 0 
L 903 0 
L 616 4666 
z
" transform="scale(0.015625)"/>
      </defs>
      <use xlink:href="#IBMPlexSansThai-Regular-30"/>
      <use xlink:href="#IBMPlexSansThai-Regular-15" transform="translate(60.599945 0)"/>
      <use xlink:href="#IBMPlexSansThai-Regular-19" transform="translate(116.599899 0)"/>
      <use xlink:href="#IBMPlexSansThai-Regular-f" transform="translate(165.29985 0)"/>
      <use xlink:href="#IBMPlexSansThai-Regular-1a" transform="translate(190.29982 0)"/>
      <use xlink:href="#IBMPlexSansThai-Regular-f" transform="translate(225.39978 0)"/>
      <use xlink:href="#IBMPlexSansThai-Regular-15" transform="translate(250.39975 0)"/>
      <use xlink:href="#IBMPlexSansThai-Regular-14" transform="translate(306.399704 0)"/>
      <use xlink:href="#IBMPlexSansThai-Regular-3" transform="translate(363.199646 0)"/>
      <use xlink:href="#IBMPlexSansThai-Regular-19" transform="translate(386.799622 0)"/>
      <use xlink:href="#IBMPlexSansThai-Regular-f" transform="translate(435.499573 0)"/>
      <use xlink:href="#IBMPlexSansThai-Regular-b" transform="translate(460.499542 0)"/>
      <use xlink:href="#IBMPlexSansThai-Regular-14" transform="translate(513.2995 0)"/>
      <use xlink:href="#IBMPlexSansThai-Regular-4" transform="translate(570.099442 0)"/>
      <use xlink:href="#IBMPlexSansThai-Regular-12" transform="translate(623.49939 0)"/>
      <use xlink:href="#IBMPlexSansThai-Regular-3" transform="translate(650.699371 0)"/>
      <use xlink:href="#DejaVuSans-Oblique-3a" transform="translate(674.299347 0)"/>
     </g>
    </g>
   </g>
   <g id="PathCollection_1">
    <defs>
     <path id="m86701589ac" d="M 0 3.354102 
C 0.889518 3.354102 1.742724 3.000693 2.371708 2.371708 
C 3.000693 1.742724 3.354102 0.889518 3.354102 0 
C 3.354102 -0.889518 3.000693 -1.742724 2.371708 -2.371708 
C 1.742724 -3.000693 0.889518 -3.354102 0 -3.354102 
C -0.889518 -3.354102 -1.742724 -3.000693 -2.371708 -2.371708 
C -3.000693 -1.742724 -3.354102 -0.889518 -3.354102 0 
C -3.354102 0.889518 -3.000693 1.742724 -2.371708 2.371708 
C -1.742724 3.000693 -0.889518 3.354102 0 3.354102 
z
" style="stroke: #059669"/>
    </defs>
    <g clip-path="url(#p4edcb2c32e)">
     <use xlink:href="#m86701589ac" x="60.850919" y="158.265" style="fill: #059669; stroke: #059669"/>
     <use xlink:href="#m86701589ac" x="148.174267" y="93.815" style="fill: #059669; stroke: #059669"/>
     <use xlink:href="#m86701589ac" x="235.497614" y="158.265" style="fill: #059669; stroke: #059669"/>
     <use xlink:href="#m86701589ac" x="322.820961" y="93.815" style="fill: #059669; stroke: #059669"/>
    </g>
   </g>
   <g id="PathCollection_2">
    <defs>
     <path id="C0_0_47a0b42b31" d="M 0 3.708099 
C 0.983399 3.708099 1.926654 3.317391 2.622022 2.622022 
C 3.317391 1.926654 3.708099 0.983399 3.708099 -0 
C 3.708099 -0.983399 3.317391 -1.926654 2.622022 -2.622022 
C 1.926654 -3.317391 0.983399 -3.708099 0 -3.708099 
C -0.983399 -3.708099 -1.926654 -3.317391 -2.622022 -2.622022 
C -3.317391 -1.926654 -3.708099 -0.983399 -3.708099 0 
C -3.708099 0.983399 -3.317391 1.926654 -2.622022 2.622022 
C -1.926654 3.317391 -0.983399 3.708099 0 3.708099 
z
"/>
    </defs>
    <g clip-path="url(#p4edcb2c32e)">
     <use xlink:href="#C0_0_47a0b42b31" x="148.174267" y="93.815" style="fill: none; stroke: #dc2626"/>
    </g>
    <g clip-path="url(#p4edcb2c32e)">
     <use xlink:href="#C0_0_47a0b42b31" x="235.497614" y="158.265" style="fill: none; stroke: #dc2626"/>
    </g>
    <g clip-path="url(#p4edcb2c32e)">
     <use xlink:href="#C0_0_47a0b42b31" x="322.820961" y="93.815" style="fill: none; stroke: #dc2626"/>
    </g>
    <g clip-path="url(#p4edcb2c32e)">
     <use xlink:href="#C0_0_47a0b42b31" x="410.144308" y="29.365" style="fill: none; stroke: #dc2626"/>
    </g>
   </g>
   <g id="line2d_31">
    <path d="M 60.850919 158.265 
L 148.174267 158.265 
L 148.174267 93.815 
L 235.497614 93.815 
L 235.497614 158.265 
L 322.820961 158.265 
L 322.820961 93.815 
L 410.144308 93.815 
L 410.144308 29.365 
" clip-path="url(#p4edcb2c32e)" style="fill: none; stroke: #1d4ed8; stroke-width: 2; stroke-linecap: round"/>
   </g>
   <g id="patch_3">
    <path d="M 43.38625 164.71 
L 43.38625 22.92 
" style="fill: none; stroke: #6b7280; stroke-width: 0.8; stroke-linejoin: miter; stroke-linecap: square"/>
   </g>
   <g id="patch_4">
    <path d="M 427.608977 164.71 
L 427.608977 22.92 
" style="fill: none; stroke: #6b7280; stroke-width: 0.8; stroke-linejoin: miter; stroke-linecap: square"/>
   </g>
   <g id="patch_5">
    <path d="M 43.38625 164.71 
L 427.608977 164.71 
" style="fill: none; stroke: #6b7280; stroke-width: 0.8; stroke-linejoin: miter; stroke-linecap: square"/>
   </g>
   <g id="patch_6">
    <path d="M 43.38625 22.92 
L 427.608977 22.92 
" style="fill: none; stroke: #6b7280; stroke-width: 0.8; stroke-linejoin: miter; stroke-linecap: square"/>
   </g>
   <g id="text_18">
    <!-- Trade first, then observe the move -->
    <g style="fill: #111418" transform="translate(43.38625 16.92) scale(0.1 -0.1)">
     <defs>
      <path id="IBMPlexSansThai-SemiBold-34" d="M 2278 3718 
L 2278 0 
L 1434 0 
L 1434 3718 
L 166 3718 
L 166 4467 
L 3546 4467 
L 3546 3718 
L 2278 3718 
z
" transform="scale(0.015625)"/>
      <path id="IBMPlexSansThai-SemiBold-18" d="M 474 0 
L 474 3341 
L 1293 3341 
L 1293 2650 
L 1325 2650 
Q 1357 2784 1424 2909 
Q 1491 3034 1600 3130 
Q 1709 3226 1859 3283 
Q 2010 3341 2208 3341 
L 2387 3341 
L 2387 2566 
L 2131 2566 
Q 1715 2566 1504 2444 
Q 1293 2323 1293 2048 
L 1293 0 
L 474 0 
z
" transform="scale(0.015625)"/>
      <path id="IBMPlexSansThai-SemiBold-4" d="M 2931 0 
Q 2662 0 2505 157 
Q 2349 314 2310 576 
L 2272 576 
Q 2189 250 1933 86 
Q 1677 -77 1299 -77 
Q 787 -77 512 192 
Q 237 461 237 909 
Q 237 1427 608 1680 
Q 979 1933 1664 1933 
L 2234 1933 
L 2234 2176 
Q 2234 2458 2086 2611 
Q 1939 2765 1613 2765 
Q 1325 2765 1149 2640 
Q 973 2515 851 2342 
L 365 2778 
Q 550 3066 857 3242 
Q 1165 3418 1670 3418 
Q 2349 3418 2701 3110 
Q 3053 2803 3053 2227 
L 3053 653 
L 3386 653 
L 3386 0 
L 2931 0 
z
M 1574 518 
Q 1850 518 2042 640 
Q 2234 762 2234 998 
L 2234 1440 
L 1709 1440 
Q 1069 1440 1069 1030 
L 1069 922 
Q 1069 717 1200 617 
Q 1331 518 1574 518 
z
" transform="scale(0.015625)"/>
      <path id="IBMPlexSansThai-SemiBold-8" d="M 2547 557 
L 2515 557 
Q 2426 269 2176 96 
Q 1926 -77 1594 -77 
Q 960 -77 624 377 
Q 288 832 288 1677 
Q 288 2515 624 2966 
Q 960 3418 1594 3418 
Q 1926 3418 2176 3248 
Q 2426 3078 2515 2790 
L 2547 2790 
L 2547 4736 
L 3366 4736 
L 3366 0 
L 2547 0 
L 2547 557 
z
M 1856 602 
Q 2150 602 2348 742 
Q 2547 883 2547 1146 
L 2547 2208 
Q 2547 2451 2348 2598 
Q 2150 2746 1856 2746 
Q 1536 2746 1341 2531 
Q 1146 2317 1146 1958 
L 1146 1382 
Q 1146 1024 1341 813 
Q 1536 602 1856 602 
z
" transform="scale(0.015625)"/>
      <path id="IBMPlexSansThai-SemiBold-9" d="M 1824 -77 
Q 1453 -77 1161 48 
Q 870 173 668 400 
Q 467 627 358 950 
Q 250 1274 250 1677 
Q 250 2074 355 2394 
Q 461 2714 659 2941 
Q 858 3168 1146 3293 
Q 1434 3418 1798 3418 
Q 2189 3418 2477 3283 
Q 2765 3149 2950 2918 
Q 3136 2688 3229 2384 
Q 3322 2080 3322 1734 
L 3322 1466 
L 1101 1466 
L 1101 1382 
Q 1101 1018 1305 797 
Q 1510 576 1914 576 
Q 2221 576 2416 704 
Q 2611 832 2765 1030 
L 3206 538 
Q 3002 250 2646 86 
Q 2291 -77 1824 -77 
z
M 1811 2803 
Q 1485 2803 1293 2585 
Q 1101 2368 1101 2022 
L 1101 1971 
L 2470 1971 
L 2470 2029 
Q 2470 2374 2300 2588 
Q 2131 2803 1811 2803 
z
" transform="scale(0.015625)"/>
      <path id="IBMPlexSansThai-SemiBold-3" transform="scale(0.015625)"/>
      <path id="IBMPlexSansThai-SemiBold-b0" d="M 640 2694 
L 147 2694 
L 147 3341 
L 640 3341 
L 640 3821 
Q 640 4262 873 4499 
Q 1107 4736 1562 4736 
L 2144 4736 
L 2144 4083 
L 1459 4083 
L 1459 3341 
L 3520 3341 
L 3520 0 
L 2701 0 
L 2701 2694 
L 1459 2694 
L 1459 0 
L 640 0 
L 640 2694 
z
M 3110 3827 
Q 2854 3827 2742 3942 
Q 2630 4058 2630 4237 
L 2630 4365 
Q 2630 4544 2742 4659 
Q 2854 4774 3110 4774 
Q 3360 4774 3475 4659 
Q 3590 4544 3590 4365 
L 3590 4237 
Q 3590 4058 3475 3942 
Q 3360 3827 3110 3827 
z
" transform="scale(0.015625)"/>
      <path id="IBMPlexSansThai-SemiBold-19" d="M 1568 -77 
Q 1088 -77 761 86 
Q 435 250 186 538 
L 685 1024 
Q 870 813 1091 691 
Q 1312 570 1600 570 
Q 1894 570 2025 672 
Q 2157 774 2157 954 
Q 2157 1101 2064 1187 
Q 1971 1274 1747 1306 
L 1414 1350 
Q 870 1421 585 1661 
Q 301 1901 301 2362 
Q 301 2605 390 2800 
Q 480 2995 646 3132 
Q 813 3270 1046 3344 
Q 1280 3418 1568 3418 
Q 1811 3418 2000 3382 
Q 2189 3347 2342 3280 
Q 2496 3213 2624 3113 
Q 2752 3014 2874 2893 
L 2394 2413 
Q 2246 2566 2041 2668 
Q 1837 2771 1594 2771 
Q 1325 2771 1206 2675 
Q 1088 2579 1088 2426 
Q 1088 2259 1187 2172 
Q 1286 2086 1523 2048 
L 1862 2003 
Q 2944 1850 2944 1018 
Q 2944 774 2845 572 
Q 2746 371 2566 227 
Q 2387 83 2134 3 
Q 1882 -77 1568 -77 
z
" transform="scale(0.015625)"/>
      <path id="IBMPlexSansThai-SemiBold-1a" d="M 1517 0 
Q 1094 0 873 221 
Q 653 442 653 851 
L 653 2688 
L 160 2688 
L 160 3341 
L 416 3341 
Q 602 3341 669 3427 
Q 736 3514 736 3686 
L 736 4256 
L 1472 4256 
L 1472 3341 
L 2157 3341 
L 2157 2688 
L 1472 2688 
L 1472 653 
L 2106 653 
L 2106 0 
L 1517 0 
z
" transform="scale(0.015625)"/>
      <path id="IBMPlexSansThai-SemiBold-51" d="M 966 986 
Q 1229 986 1353 851 
Q 1478 717 1478 512 
L 1478 397 
Q 1478 224 1430 38 
Q 1382 -147 1296 -320 
Q 1210 -493 1091 -646 
Q 973 -800 826 -915 
L 243 -915 
Q 461 -704 608 -502 
Q 755 -301 832 -58 
Q 634 -26 544 99 
Q 454 224 454 397 
L 454 512 
Q 454 717 576 851 
Q 698 986 966 986 
z
" transform="scale(0.015625)"/>
      <path id="IBMPlexSansThai-SemiBold-e" d="M 474 4736 
L 1293 4736 
L 1293 2784 
L 1325 2784 
Q 1427 3053 1648 3235 
Q 1869 3418 2259 3418 
Q 2778 3418 3053 3078 
Q 3328 2739 3328 2112 
L 3328 0 
L 2509 0 
L 2509 2029 
Q 2509 2387 2381 2566 
Q 2253 2746 1958 2746 
Q 1830 2746 1712 2710 
Q 1594 2675 1501 2608 
Q 1408 2541 1350 2441 
Q 1293 2342 1293 2208 
L 1293 0 
L 474 0 
L 474 4736 
z
" transform="scale(0.015625)"/>
      <path id="IBMPlexSansThai-SemiBold-14" d="M 474 0 
L 474 3341 
L 1293 3341 
L 1293 2784 
L 1325 2784 
Q 1427 3053 1648 3235 
Q 1869 3418 2259 3418 
Q 2778 3418 3053 3078 
Q 3328 2739 3328 2112 
L 3328 0 
L 2509 0 
L 2509 2029 
Q 2509 2387 2381 2566 
Q 2253 2746 1958 2746 
Q 1830 2746 1712 2710 
Q 1594 2675 1501 2608 
Q 1408 2541 1350 2441 
Q 1293 2342 1293 2208 
L 1293 0 
L 474 0 
z
" transform="scale(0.015625)"/>
      <path id="IBMPlexSansThai-SemiBold-15" d="M 1798 -77 
Q 1440 -77 1155 44 
Q 870 166 668 396 
Q 467 627 358 950 
Q 250 1274 250 1677 
Q 250 2080 358 2400 
Q 467 2720 668 2947 
Q 870 3174 1155 3296 
Q 1440 3418 1798 3418 
Q 2157 3418 2445 3296 
Q 2733 3174 2934 2947 
Q 3136 2720 3245 2400 
Q 3354 2080 3354 1677 
Q 3354 1274 3245 950 
Q 3136 627 2934 396 
Q 2733 166 2445 44 
Q 2157 -77 1798 -77 
z
M 1798 582 
Q 2125 582 2310 780 
Q 2496 979 2496 1363 
L 2496 1984 
Q 2496 2362 2310 2560 
Q 2125 2758 1798 2758 
Q 1478 2758 1292 2560 
Q 1107 2362 1107 1984 
L 1107 1363 
Q 1107 979 1292 780 
Q 1478 582 1798 582 
z
" transform="scale(0.015625)"/>
      <path id="IBMPlexSansThai-SemiBold-6" d="M 474 4736 
L 1293 4736 
L 1293 2790 
L 1318 2790 
Q 1408 3078 1657 3248 
Q 1907 3418 2240 3418 
Q 2880 3418 3216 2966 
Q 3552 2515 3552 1677 
Q 3552 832 3216 377 
Q 2880 -77 2240 -77 
Q 1907 -77 1660 96 
Q 1414 269 1318 557 
L 1293 557 
L 1293 0 
L 474 0 
L 474 4736 
z
M 1978 602 
Q 2298 602 2496 813 
Q 2694 1024 2694 1382 
L 2694 1958 
Q 2694 2317 2496 2531 
Q 2298 2746 1978 2746 
Q 1683 2746 1488 2598 
Q 1293 2451 1293 2208 
L 1293 1146 
Q 1293 883 1488 742 
Q 1683 602 1978 602 
z
" transform="scale(0.015625)"/>
      <path id="IBMPlexSansThai-SemiBold-1c" d="M 1190 0 
L 77 3341 
L 883 3341 
L 1350 1901 
L 1677 710 
L 1722 710 
L 2048 1901 
L 2502 3341 
L 3283 3341 
L 2163 0 
L 1190 0 
z
" transform="scale(0.015625)"/>
      <path id="IBMPlexSansThai-SemiBold-13" d="M 474 0 
L 474 3341 
L 1293 3341 
L 1293 2784 
L 1325 2784 
Q 1421 3046 1632 3232 
Q 1843 3418 2221 3418 
Q 2566 3418 2816 3251 
Q 3066 3085 3187 2746 
L 3200 2746 
Q 3290 3027 3555 3222 
Q 3821 3418 4224 3418 
Q 4717 3418 4982 3078 
Q 5248 2739 5248 2112 
L 5248 0 
L 4429 0 
L 4429 2029 
Q 4429 2746 3891 2746 
Q 3770 2746 3658 2710 
Q 3546 2675 3459 2608 
Q 3373 2541 3321 2441 
Q 3270 2342 3270 2208 
L 3270 0 
L 2451 0 
L 2451 2029 
Q 2451 2746 1914 2746 
Q 1798 2746 1686 2710 
Q 1574 2675 1488 2608 
Q 1402 2541 1347 2441 
Q 1293 2342 1293 2208 
L 1293 0 
L 474 0 
z
" transform="scale(0.015625)"/>
     </defs>
     <use xlink:href="#IBMPlexSansThai-SemiBold-34"/>
     <use xlink:href="#IBMPlexSansThai-SemiBold-18" transform="translate(53.5 0)"/>
     <use xlink:href="#IBMPlexSansThai-SemiBold-4" transform="translate(91.703125 0)"/>
     <use xlink:href="#IBMPlexSansThai-SemiBold-8" transform="translate(147.609375 0)"/>
     <use xlink:href="#IBMPlexSansThai-SemiBold-9" transform="translate(207.609375 0)"/>
     <use xlink:href="#IBMPlexSansThai-SemiBold-3" transform="translate(263.40625 0)"/>
     <use xlink:href="#IBMPlexSansThai-SemiBold-b0" transform="translate(287 0)"/>
     <use xlink:href="#IBMPlexSansThai-SemiBold-18" transform="translate(349.40625 0)"/>
     <use xlink:href="#IBMPlexSansThai-SemiBold-19" transform="translate(388.703125 0)"/>
     <use xlink:href="#IBMPlexSansThai-SemiBold-1a" transform="translate(437.8125 0)"/>
     <use xlink:href="#IBMPlexSansThai-SemiBold-51" transform="translate(475.21875 0)"/>
     <use xlink:href="#IBMPlexSansThai-SemiBold-3" transform="translate(505.125 0)"/>
     <use xlink:href="#IBMPlexSansThai-SemiBold-1a" transform="translate(528.71875 0)"/>
     <use xlink:href="#IBMPlexSansThai-SemiBold-e" transform="translate(566.125 0)"/>
     <use xlink:href="#IBMPlexSansThai-SemiBold-9" transform="translate(624.921875 0)"/>
     <use xlink:href="#IBMPlexSansThai-SemiBold-14" transform="translate(680.71875 0)"/>
     <use xlink:href="#IBMPlexSansThai-SemiBold-3" transform="translate(739.515625 0)"/>
     <use xlink:href="#IBMPlexSansThai-SemiBold-15" transform="translate(763.109375 0)"/>
     <use xlink:href="#IBMPlexSansThai-SemiBold-6" transform="translate(819.40625 0)"/>
     <use xlink:href="#IBMPlexSansThai-SemiBold-19" transform="translate(879.40625 0)"/>
     <use xlink:href="#IBMPlexSansThai-SemiBold-9" transform="translate(929.3125 0)"/>
     <use xlink:href="#IBMPlexSansThai-SemiBold-18" transform="translate(985.109375 0)"/>
     <use xlink:href="#IBMPlexSansThai-SemiBold-1c" transform="translate(1025.203125 0)"/>
     <use xlink:href="#IBMPlexSansThai-SemiBold-9" transform="translate(1076.8125 0)"/>
     <use xlink:href="#IBMPlexSansThai-SemiBold-3" transform="translate(1132.609375 0)"/>
     <use xlink:href="#IBMPlexSansThai-SemiBold-1a" transform="translate(1156.203125 0)"/>
     <use xlink:href="#IBMPlexSansThai-SemiBold-e" transform="translate(1193.609375 0)"/>
     <use xlink:href="#IBMPlexSansThai-SemiBold-9" transform="translate(1252.40625 0)"/>
     <use xlink:href="#IBMPlexSansThai-SemiBold-3" transform="translate(1308.203125 0)"/>
     <use xlink:href="#IBMPlexSansThai-SemiBold-13" transform="translate(1331.796875 0)"/>
     <use xlink:href="#IBMPlexSansThai-SemiBold-15" transform="translate(1420.59375 0)"/>
     <use xlink:href="#IBMPlexSansThai-SemiBold-1c" transform="translate(1476.09375 0)"/>
     <use xlink:href="#IBMPlexSansThai-SemiBold-9" transform="translate(1527.703125 0)"/>
    </g>
   </g>
   <g id="legend_1">
    <g id="line2d_32">
     <path d="M 50.58625 36.248 
L 58.58625 36.248 
L 58.58625 36.248 
L 66.58625 36.248 
L 66.58625 36.248 
" style="fill: none; stroke: #1d4ed8; stroke-width: 2; stroke-linecap: round"/>
    </g>
    <g id="text_19">
     <!-- Brownian level -->
     <g transform="translate(72.98625 39.048) scale(0.08 -0.08)">
      <defs>
       <path id="IBMPlexSansThai-Regular-22" d="M 595 4467 
L 2432 4467 
Q 2989 4467 3305 4153 
Q 3622 3840 3622 3315 
Q 3622 3066 3552 2893 
Q 3482 2720 3373 2608 
Q 3264 2496 3136 2441 
Q 3008 2387 2899 2368 
L 2899 2330 
Q 3021 2323 3171 2265 
Q 3322 2208 3456 2083 
Q 3590 1958 3683 1763 
Q 3776 1568 3776 1293 
Q 3776 1018 3689 781 
Q 3603 544 3449 371 
Q 3296 198 3085 99 
Q 2874 0 2624 0 
L 595 0 
L 595 4467 
z
M 1133 474 
L 2458 474 
Q 2803 474 3001 650 
Q 3200 826 3200 1165 
L 3200 1382 
Q 3200 1722 3001 1898 
Q 2803 2074 2458 2074 
L 1133 2074 
L 1133 474 
z
M 1133 2534 
L 2368 2534 
Q 2688 2534 2867 2694 
Q 3046 2854 3046 3155 
L 3046 3373 
Q 3046 3674 2867 3834 
Q 2688 3994 2368 3994 
L 1133 3994 
L 1133 2534 
z
" transform="scale(0.015625)"/>
       <path id="IBMPlexSansThai-Regular-1d" d="M 198 3302 
L 698 3302 
L 1050 1875 
L 1402 429 
L 1414 429 
L 1818 1875 
L 2234 3302 
L 2688 3302 
L 3117 1875 
L 3526 429 
L 3539 429 
L 3878 1875 
L 4237 3302 
L 4717 3302 
L 3840 0 
L 3206 0 
L 2746 1587 
L 2458 2592 
L 2445 2592 
L 2163 1587 
L 1702 0 
L 1082 0 
L 198 3302 
z
" transform="scale(0.015625)"/>
      </defs>
      <use xlink:href="#IBMPlexSansThai-Regular-22"/>
      <use xlink:href="#IBMPlexSansThai-Regular-18" transform="translate(65.296875 0)"/>
      <use xlink:href="#IBMPlexSansThai-Regular-15" transform="translate(101.5 0)"/>
      <use xlink:href="#IBMPlexSansThai-Regular-1d" transform="translate(157 0)"/>
      <use xlink:href="#IBMPlexSansThai-Regular-14" transform="translate(233.796875 0)"/>
      <use xlink:href="#IBMPlexSansThai-Regular-f" transform="translate(290.59375 0)"/>
      <use xlink:href="#IBMPlexSansThai-Regular-4" transform="translate(315.59375 0)"/>
      <use xlink:href="#IBMPlexSansThai-Regular-14" transform="translate(369 0)"/>
      <use xlink:href="#IBMPlexSansThai-Regular-3" transform="translate(425.796875 0)"/>
      <use xlink:href="#IBMPlexSansThai-Regular-12" transform="translate(449.390625 0)"/>
      <use xlink:href="#IBMPlexSansThai-Regular-9" transform="translate(476.59375 0)"/>
      <use xlink:href="#IBMPlexSansThai-Regular-1c" transform="translate(530.703125 0)"/>
      <use xlink:href="#IBMPlexSansThai-Regular-9" transform="translate(579.109375 0)"/>
      <use xlink:href="#IBMPlexSansThai-Regular-12" transform="translate(634.015625 0)"/>
     </g>
    </g>
    <g id="PathCollection_3">
     <g>
      <use xlink:href="#m86701589ac" x="58.58625" y="54.148" style="fill: #059669; stroke: #059669"/>
     </g>
    </g>
    <g id="text_20">
     <!-- left positions -->
     <g transform="translate(72.98625 56.248) scale(0.08 -0.08)">
      <defs>
       <path id="IBMPlexSansThai-Regular-a" d="M 723 2854 
L 186 2854 
L 186 3302 
L 723 3302 
L 723 3968 
Q 723 4314 902 4525 
Q 1082 4736 1446 4736 
L 1946 4736 
L 1946 4288 
L 1235 4288 
L 1235 3302 
L 1946 3302 
L 1946 2854 
L 1235 2854 
L 1235 0 
L 723 0 
L 723 2854 
z
" transform="scale(0.015625)"/>
       <path id="IBMPlexSansThai-Regular-16" d="M 544 3302 
L 1056 3302 
L 1056 2765 
L 1082 2765 
Q 1210 3078 1456 3228 
Q 1702 3379 2048 3379 
Q 2355 3379 2604 3257 
Q 2854 3136 3030 2912 
Q 3206 2688 3299 2368 
Q 3392 2048 3392 1651 
Q 3392 1254 3299 934 
Q 3206 614 3030 390 
Q 2854 166 2604 44 
Q 2355 -77 2048 -77 
Q 1376 -77 1082 538 
L 1056 538 
L 1056 -1280 
L 544 -1280 
L 544 3302 
z
M 1907 384 
Q 2342 384 2592 656 
Q 2842 928 2842 1370 
L 2842 1933 
Q 2842 2374 2592 2646 
Q 2342 2918 1907 2918 
Q 1734 2918 1577 2870 
Q 1421 2822 1305 2739 
Q 1190 2656 1123 2537 
Q 1056 2419 1056 2285 
L 1056 1056 
Q 1056 896 1123 771 
Q 1190 646 1305 560 
Q 1421 474 1577 429 
Q 1734 384 1907 384 
z
" transform="scale(0.015625)"/>
      </defs>
      <use xlink:href="#IBMPlexSansThai-Regular-12"/>
      <use xlink:href="#IBMPlexSansThai-Regular-9" transform="translate(27.203125 0)"/>
      <use xlink:href="#IBMPlexSansThai-Regular-a" transform="translate(82.109375 0)"/>
      <use xlink:href="#IBMPlexSansThai-Regular-1a" transform="translate(114.515625 0)"/>
      <use xlink:href="#IBMPlexSansThai-Regular-3" transform="translate(149.609375 0)"/>
      <use xlink:href="#IBMPlexSansThai-Regular-16" transform="translate(173.203125 0)"/>
      <use xlink:href="#IBMPlexSansThai-Regular-15" transform="translate(231.203125 0)"/>
      <use xlink:href="#IBMPlexSansThai-Regular-19" transform="translate(287.203125 0)"/>
      <use xlink:href="#IBMPlexSansThai-Regular-f" transform="translate(335.90625 0)"/>
      <use xlink:href="#IBMPlexSansThai-Regular-1a" transform="translate(360.90625 0)"/>
      <use xlink:href="#IBMPlexSansThai-Regular-f" transform="translate(396 0)"/>
      <use xlink:href="#IBMPlexSansThai-Regular-15" transform="translate(421 0)"/>
      <use xlink:href="#IBMPlexSansThai-Regular-14" transform="translate(477 0)"/>
      <use xlink:href="#IBMPlexSansThai-Regular-19" transform="translate(533.796875 0)"/>
     </g>
    </g>
    <g id="PathCollection_4">
     <path d="M 58.58625 75.056099 
C 59.569649 75.056099 60.512904 74.665391 61.208272 73.970022 
C 61.903641 73.274654 62.294349 72.331399 62.294349 71.348 
C 62.294349 70.364601 61.903641 69.421346 61.208272 68.725978 
C 60.512904 68.030609 59.569649 67.639901 58.58625 67.639901 
C 57.602851 67.639901 56.659596 68.030609 55.964228 68.725978 
C 55.268859 69.421346 54.878151 70.364601 54.878151 71.348 
C 54.878151 72.331399 55.268859 73.274654 55.964228 73.970022 
C 56.659596 74.665391 57.602851 75.056099 58.58625 75.056099 
L 58.58625 75.056099 
z
" style="fill: none; stroke: #dc2626"/>
    </g>
    <g id="text_21">
     <!-- right positions -->
     <g transform="translate(72.98625 73.448) scale(0.08 -0.08)">
      <defs>
       <path id="IBMPlexSansThai-Regular-e" d="M 544 4736 
L 1056 4736 
L 1056 2765 
L 1082 2765 
Q 1203 3046 1424 3212 
Q 1645 3379 2016 3379 
Q 2528 3379 2825 3049 
Q 3123 2720 3123 2118 
L 3123 0 
L 2611 0 
L 2611 2029 
Q 2611 2918 1862 2918 
Q 1709 2918 1565 2880 
Q 1421 2842 1305 2765 
Q 1190 2688 1123 2569 
Q 1056 2451 1056 2291 
L 1056 0 
L 544 0 
L 544 4736 
z
" transform="scale(0.015625)"/>
      </defs>
      <use xlink:href="#IBMPlexSansThai-Regular-18"/>
      <use xlink:href="#IBMPlexSansThai-Regular-f" transform="translate(36.703125 0)"/>
      <use xlink:href="#IBMPlexSansThai-Regular-b" transform="translate(61.703125 0)"/>
      <use xlink:href="#IBMPlexSansThai-Regular-e" transform="translate(114.5 0)"/>
      <use xlink:href="#IBMPlexSansThai-Regular-1a" transform="translate(171.296875 0)"/>
      <use xlink:href="#IBMPlexSansThai-Regular-3" transform="translate(206.390625 0)"/>
      <use xlink:href="#IBMPlexSansThai-Regular-16" transform="translate(229.984375 0)"/>
      <use xlink:href="#IBMPlexSansThai-Regular-15" transform="translate(287.984375 0)"/>
      <use xlink:href="#IBMPlexSansThai-Regular-19" transform="translate(343.984375 0)"/>
      <use xlink:href="#IBMPlexSansThai-Regular-f" transform="translate(392.6875 0)"/>
      <use xlink:href="#IBMPlexSansThai-Regular-1a" transform="translate(417.6875 0)"/>
      <use xlink:href="#IBMPlexSansThai-Regular-f" transform="translate(452.78125 0)"/>
      <use xlink:href="#IBMPlexSansThai-Regular-15" transform="translate(477.78125 0)"/>
      <use xlink:href="#IBMPlexSansThai-Regular-14" transform="translate(533.78125 0)"/>
      <use xlink:href="#IBMPlexSansThai-Regular-19" transform="translate(590.578125 0)"/>
     </g>
    </g>
   </g>
  </g>
 </g>
 <defs>
  <clipPath id="p4edcb2c32e">
   <rect x="43.38625" y="22.92" width="384.222727" height="141.79"/>
  </clipPath>
 </defs>
</svg>
