<svg class="figsvg" preserveAspectRatio="xMidYMid meet" xmlns:xlink="http://www.w3.org/1999/xlink" width="429.223523pt" height="209.52pt" viewBox="0 0 429.223523 209.52" xmlns="http://www.w3.org/2000/svg" version="1.1">
 <metadata>
  <rdf:RDF xmlns:dc="http://purl.org/dc/elements/1.1/" xmlns:cc="http://creativecommons.org/ns#" xmlns:rdf="http://www.w3.org/1999/02/22-rdf-syntax-ns#">
   <cc:Work>
    <dc:type rdf:resource="http://purl.org/dc/dcmitype/StillImage"/>
    <dc:date>2026-09-16T10:52:05.824633</dc:date>
    <dc:format>image/svg+xml</dc:format>
    <dc:creator>
     <cc:Agent>
      <dc:title>Matplotlib v3.11.1, https://matplotlib.org/</dc:title>
     </cc:Agent>
    </dc:creator>
   </cc:Work>
  </rdf:RDF>
 </metadata>
 <defs>
  <style type="text/css">*{stroke-linejoin: round; stroke-linecap: butt}</style>
 </defs>
 <g id="figure_1">
  <g id="patch_1">
   <path d="M 0 209.52 
L 429.223523 209.52 
L 429.223523 0 
L 0 0 
z
" style="fill: #ffffff"/>
  </g>
  <g id="axes_1">
   <g id="patch_2">
    <path d="M 52.98625 164.71 
L 423.463523 164.71 
L 423.463523 34.848 
L 52.98625 34.848 
z
" style="fill: #ffffff"/>
   </g>
   <g id="matplotlib.axis_1">
    <g id="xtick_1">
     <g id="line2d_1">
      <path d="M 69.826126 164.71 
L 69.826126 34.848 
" clip-path="url(#p7858b6ab82)" style="fill: none; stroke: #e5e7eb; stroke-width: 0.6; stroke-linecap: round"/>
     </g>
     <g id="line2d_2">
      <defs>
       <path id="mf0bbf9b3e3" d="M 0 0 
L 0 3.5 
" style="stroke: #6b7280; stroke-width: 0.8"/>
      </defs>
      <g>
       <use xlink:href="#mf0bbf9b3e3" x="69.826126" y="164.71" style="fill: #6b7280; stroke: #6b7280; stroke-width: 0.8"/>
      </g>
     </g>
     <g id="text_1">
      <!-- 0 -->
      <g style="fill: #6b7280" transform="translate(67.426126 180.638) scale(0.08 -0.08)">
       <defs>
        <path id="IBMPlexSansThai-Regular-3b" d="M 1920 -77 
Q 1120 -77 752 531 
Q 384 1139 384 2234 
Q 384 3328 752 3936 
Q 1120 4544 1920 4544 
Q 2720 4544 3088 3936 
Q 3456 3328 3456 2234 
Q 3456 1139 3088 531 
Q 2720 -77 1920 -77 
z
M 1920 390 
Q 2182 390 2368 499 
Q 2554 608 2669 806 
Q 2784 1005 2838 1273 
Q 2893 1542 2893 1869 
L 2893 2598 
Q 2893 2925 2838 3193 
Q 2784 3462 2669 3660 
Q 2554 3859 2368 3968 
Q 2182 4077 1920 4077 
Q 1658 4077 1472 3968 
Q 1286 3859 1171 3660 
Q 1056 3462 1001 3193 
Q 947 2925 947 2598 
L 947 1869 
Q 947 1542 1001 1273 
Q 1056 1005 1171 806 
Q 1286 608 1472 499 
Q 1658 390 1920 390 
z
" transform="scale(0.015625)"/>
       </defs>
       <use xlink:href="#IBMPlexSansThai-Regular-3b"/>
      </g>
     </g>
    </g>
    <g id="xtick_2">
     <g id="line2d_3">
      <path d="M 131.062039 164.71 
L 131.062039 34.848 
" clip-path="url(#p7858b6ab82)" style="fill: none; stroke: #e5e7eb; stroke-width: 0.6; stroke-linecap: round"/>
     </g>
     <g id="line2d_4">
      <g>
       <use xlink:href="#mf0bbf9b3e3" x="131.062039" y="164.71" style="fill: #6b7280; stroke: #6b7280; stroke-width: 0.8"/>
      </g>
     </g>
     <g id="text_2">
      <!-- 2 -->
      <g style="fill: #6b7280" transform="translate(128.662039 180.638) scale(0.08 -0.08)">
       <defs>
        <path id="IBMPlexSansThai-Regular-3f" d="M 3411 0 
L 480 0 
L 480 550 
L 1939 1894 
Q 2253 2182 2464 2505 
Q 2675 2829 2675 3155 
L 2675 3232 
Q 2675 3603 2470 3833 
Q 2266 4064 1850 4064 
Q 1645 4064 1491 4006 
Q 1338 3949 1226 3846 
Q 1114 3744 1040 3606 
Q 966 3469 922 3309 
L 442 3494 
Q 506 3693 618 3881 
Q 730 4070 899 4217 
Q 1069 4365 1309 4454 
Q 1549 4544 1875 4544 
Q 2202 4544 2458 4448 
Q 2714 4352 2886 4179 
Q 3059 4006 3152 3769 
Q 3245 3533 3245 3245 
Q 3245 2982 3171 2758 
Q 3098 2534 2970 2332 
Q 2842 2131 2659 1939 
Q 2477 1747 2266 1555 
L 1062 474 
L 3411 474 
L 3411 0 
z
" transform="scale(0.015625)"/>
       </defs>
       <use xlink:href="#IBMPlexSansThai-Regular-3f"/>
      </g>
     </g>
    </g>
    <g id="xtick_3">
     <g id="line2d_5">
      <path d="M 192.297952 164.71 
L 192.297952 34.848 
" clip-path="url(#p7858b6ab82)" style="fill: none; stroke: #e5e7eb; stroke-width: 0.6; stroke-linecap: round"/>
     </g>
     <g id="line2d_6">
      <g>
       <use xlink:href="#mf0bbf9b3e3" x="192.297952" y="164.71" style="fill: #6b7280; stroke: #6b7280; stroke-width: 0.8"/>
      </g>
     </g>
     <g id="text_3">
      <!-- 4 -->
      <g style="fill: #6b7280" transform="translate(189.897952 180.638) scale(0.08 -0.08)">
       <defs>
        <path id="IBMPlexSansThai-Regular-41" d="M 2400 0 
L 2400 877 
L 243 877 
L 243 1350 
L 2112 4467 
L 2912 4467 
L 2912 1325 
L 3558 1325 
L 3558 877 
L 2912 877 
L 2912 0 
L 2400 0 
z
M 749 1325 
L 2400 1325 
L 2400 4051 
L 2368 4051 
L 749 1325 
z
" transform="scale(0.015625)"/>
       </defs>
       <use xlink:href="#IBMPlexSansThai-Regular-41"/>
      </g>
     </g>
    </g>
    <g id="xtick_4">
     <g id="line2d_7">
      <path d="M 253.533865 164.71 
L 253.533865 34.848 
" clip-path="url(#p7858b6ab82)" style="fill: none; stroke: #e5e7eb; stroke-width: 0.6; stroke-linecap: round"/>
     </g>
     <g id="line2d_8">
      <g>
       <use xlink:href="#mf0bbf9b3e3" x="253.533865" y="164.71" style="fill: #6b7280; stroke: #6b7280; stroke-width: 0.8"/>
      </g>
     </g>
     <g id="text_4">
      <!-- 6 -->
      <g style="fill: #6b7280" transform="translate(251.133865 180.638) scale(0.08 -0.08)">
       <defs>
        <path id="IBMPlexSansThai-Regular-43" d="M 1926 -77 
Q 1581 -77 1302 41 
Q 1024 160 829 381 
Q 634 602 531 922 
Q 429 1242 429 1638 
Q 429 2138 576 2576 
Q 723 3014 956 3376 
Q 1190 3738 1472 4016 
Q 1754 4294 2022 4467 
L 2714 4467 
Q 2355 4205 2073 3955 
Q 1792 3706 1581 3434 
Q 1370 3162 1222 2851 
Q 1075 2541 986 2150 
L 1018 2138 
Q 1178 2413 1430 2595 
Q 1683 2778 2093 2778 
Q 2381 2778 2624 2682 
Q 2867 2586 3040 2406 
Q 3213 2227 3312 1971 
Q 3411 1715 3411 1402 
Q 3411 1075 3305 803 
Q 3200 531 3005 336 
Q 2810 141 2534 32 
Q 2259 -77 1926 -77 
z
M 1920 390 
Q 2362 390 2608 633 
Q 2854 877 2854 1331 
L 2854 1382 
Q 2854 1837 2608 2080 
Q 2362 2323 1920 2323 
Q 1478 2323 1232 2080 
Q 986 1837 986 1382 
L 986 1331 
Q 986 877 1232 633 
Q 1478 390 1920 390 
z
" transform="scale(0.015625)"/>
       </defs>
       <use xlink:href="#IBMPlexSansThai-Regular-43"/>
      </g>
     </g>
    </g>
    <g id="xtick_5">
     <g id="line2d_9">
      <path d="M 314.769777 164.71 
L 314.769777 34.848 
" clip-path="url(#p7858b6ab82)" style="fill: none; stroke: #e5e7eb; stroke-width: 0.6; stroke-linecap: round"/>
     </g>
     <g id="line2d_10">
      <g>
       <use xlink:href="#mf0bbf9b3e3" x="314.769777" y="164.71" style="fill: #6b7280; stroke: #6b7280; stroke-width: 0.8"/>
      </g>
     </g>
     <g id="text_5">
      <!-- 8 -->
      <g style="fill: #6b7280" transform="translate(312.369777 180.638) scale(0.08 -0.08)">
       <defs>
        <path id="IBMPlexSansThai-Regular-45" d="M 1920 -77 
Q 1536 -77 1248 22 
Q 960 122 765 294 
Q 570 467 470 704 
Q 371 941 371 1216 
Q 371 1677 620 1945 
Q 870 2214 1274 2323 
L 1274 2374 
Q 922 2496 714 2768 
Q 506 3040 506 3424 
Q 506 3936 877 4240 
Q 1248 4544 1920 4544 
Q 2592 4544 2963 4240 
Q 3334 3936 3334 3424 
Q 3334 3040 3126 2768 
Q 2918 2496 2566 2374 
L 2566 2323 
Q 2970 2214 3219 1945 
Q 3469 1677 3469 1216 
Q 3469 941 3369 704 
Q 3270 467 3075 294 
Q 2880 122 2592 22 
Q 2304 -77 1920 -77 
z
M 1920 390 
Q 2387 390 2643 598 
Q 2899 806 2899 1190 
L 2899 1325 
Q 2899 1709 2643 1917 
Q 2387 2125 1920 2125 
Q 1453 2125 1197 1917 
Q 941 1709 941 1325 
L 941 1190 
Q 941 806 1197 598 
Q 1453 390 1920 390 
z
M 1920 2573 
Q 2342 2573 2560 2752 
Q 2778 2931 2778 3277 
L 2778 3373 
Q 2778 3718 2560 3897 
Q 2342 4077 1920 4077 
Q 1498 4077 1280 3897 
Q 1062 3718 1062 3373 
L 1062 3277 
Q 1062 2931 1280 2752 
Q 1498 2573 1920 2573 
z
" transform="scale(0.015625)"/>
       </defs>
       <use xlink:href="#IBMPlexSansThai-Regular-45"/>
      </g>
     </g>
    </g>
    <g id="xtick_6">
     <g id="line2d_11">
      <path d="M 376.00569 164.71 
L 376.00569 34.848 
" clip-path="url(#p7858b6ab82)" style="fill: none; stroke: #e5e7eb; stroke-width: 0.6; stroke-linecap: round"/>
     </g>
     <g id="line2d_12">
      <g>
       <use xlink:href="#mf0bbf9b3e3" x="376.00569" y="164.71" style="fill: #6b7280; stroke: #6b7280; stroke-width: 0.8"/>
      </g>
     </g>
     <g id="text_6">
      <!-- 10 -->
      <g style="fill: #6b7280" transform="translate(371.20569 180.638) scale(0.08 -0.08)">
       <defs>
        <path id="IBMPlexSansThai-Regular-3e" d="M 563 0 
L 563 474 
L 1811 474 
L 1811 4070 
L 1766 4070 
L 640 3021 
L 326 3360 
L 1510 4467 
L 2349 4467 
L 2349 474 
L 3501 474 
L 3501 0 
L 563 0 
z
" transform="scale(0.015625)"/>
       </defs>
       <use xlink:href="#IBMPlexSansThai-Regular-3e"/>
       <use xlink:href="#IBMPlexSansThai-Regular-3b" transform="translate(60 0)"/>
      </g>
     </g>
    </g>
    <g id="text_7">
     <!-- minute -->
     <g style="fill: #111418" transform="translate(224.028089 198.954) scale(0.09 -0.09)">
      <defs>
       <path id="IBMPlexSansThai-Regular-13" d="M 544 0 
L 544 3302 
L 1056 3302 
L 1056 2765 
L 1082 2765 
Q 1139 2893 1212 3005 
Q 1286 3117 1392 3200 
Q 1498 3283 1638 3331 
Q 1779 3379 1971 3379 
Q 2298 3379 2573 3222 
Q 2848 3066 2982 2707 
L 2995 2707 
Q 3085 2976 3331 3177 
Q 3578 3379 4000 3379 
Q 4506 3379 4790 3049 
Q 5075 2720 5075 2118 
L 5075 0 
L 4563 0 
L 4563 2029 
Q 4563 2470 4390 2694 
Q 4218 2918 3840 2918 
Q 3686 2918 3548 2880 
Q 3411 2842 3302 2765 
Q 3194 2688 3130 2569 
Q 3066 2451 3066 2291 
L 3066 0 
L 2554 0 
L 2554 2029 
Q 2554 2470 2381 2694 
Q 2208 2918 1843 2918 
Q 1690 2918 1549 2880 
Q 1408 2842 1299 2765 
Q 1190 2688 1123 2569 
Q 1056 2451 1056 2291 
L 1056 0 
L 544 0 
z
" transform="scale(0.015625)"/>
       <path id="IBMPlexSansThai-Regular-f" d="M 800 4077 
Q 634 4077 560 4157 
Q 486 4237 486 4365 
L 486 4448 
Q 486 4576 560 4656 
Q 634 4736 800 4736 
Q 966 4736 1040 4656 
Q 1114 4576 1114 4448 
L 1114 4365 
Q 1114 4237 1040 4157 
Q 966 4077 800 4077 
z
M 544 3302 
L 1056 3302 
L 1056 0 
L 544 0 
L 544 3302 
z
" transform="scale(0.015625)"/>
       <path id="IBMPlexSansThai-Regular-14" d="M 544 0 
L 544 3302 
L 1056 3302 
L 1056 2765 
L 1082 2765 
Q 1203 3046 1424 3212 
Q 1645 3379 2016 3379 
Q 2528 3379 2825 3049 
Q 3123 2720 3123 2118 
L 3123 0 
L 2611 0 
L 2611 2029 
Q 2611 2918 1862 2918 
Q 1709 2918 1565 2880 
Q 1421 2842 1305 2765 
Q 1190 2688 1123 2569 
Q 1056 2451 1056 2291 
L 1056 0 
L 544 0 
z
" transform="scale(0.015625)"/>
       <path id="IBMPlexSansThai-Regular-1b" d="M 2579 538 
L 2554 538 
Q 2502 422 2428 310 
Q 2355 198 2246 112 
Q 2138 26 1984 -25 
Q 1830 -77 1626 -77 
Q 1114 -77 813 252 
Q 512 582 512 1184 
L 512 3302 
L 1024 3302 
L 1024 1274 
Q 1024 384 1779 384 
Q 1933 384 2077 422 
Q 2221 461 2333 537 
Q 2445 614 2512 732 
Q 2579 851 2579 1018 
L 2579 3302 
L 3091 3302 
L 3091 0 
L 2579 0 
L 2579 538 
z
" transform="scale(0.015625)"/>
       <path id="IBMPlexSansThai-Regular-1a" d="M 1274 0 
Q 1005 0 867 150 
Q 730 301 730 544 
L 730 2854 
L 186 2854 
L 186 3302 
L 493 3302 
Q 659 3302 720 3369 
Q 781 3437 781 3603 
L 781 4218 
L 1242 4218 
L 1242 3302 
L 1965 3302 
L 1965 2854 
L 1242 2854 
L 1242 448 
L 1914 448 
L 1914 0 
L 1274 0 
z
" transform="scale(0.015625)"/>
       <path id="IBMPlexSansThai-Regular-9" d="M 1786 -77 
Q 1446 -77 1174 44 
Q 902 166 707 393 
Q 512 621 406 937 
Q 301 1254 301 1651 
Q 301 2042 406 2362 
Q 512 2682 707 2909 
Q 902 3136 1174 3257 
Q 1446 3379 1786 3379 
Q 2118 3379 2380 3257 
Q 2643 3136 2828 2921 
Q 3014 2707 3113 2412 
Q 3213 2118 3213 1766 
L 3213 1523 
L 838 1523 
L 838 1370 
Q 838 1158 905 976 
Q 973 794 1097 659 
Q 1222 525 1404 448 
Q 1587 371 1818 371 
Q 2131 371 2364 518 
Q 2598 666 2726 941 
L 3091 678 
Q 2931 339 2592 131 
Q 2253 -77 1786 -77 
z
M 1786 2950 
Q 1574 2950 1401 2876 
Q 1229 2803 1104 2668 
Q 979 2534 908 2352 
Q 838 2170 838 1952 
L 838 1907 
L 2662 1907 
L 2662 1978 
Q 2662 2419 2422 2684 
Q 2182 2950 1786 2950 
z
" transform="scale(0.015625)"/>
      </defs>
      <use xlink:href="#IBMPlexSansThai-Regular-13"/>
      <use xlink:href="#IBMPlexSansThai-Regular-f" transform="translate(87.296875 0)"/>
      <use xlink:href="#IBMPlexSansThai-Regular-14" transform="translate(112.296875 0)"/>
      <use xlink:href="#IBMPlexSansThai-Regular-1b" transform="translate(169.09375 0)"/>
      <use xlink:href="#IBMPlexSansThai-Regular-1a" transform="translate(225.890625 0)"/>
      <use xlink:href="#IBMPlexSansThai-Regular-9" transform="translate(260.578125 0)"/>
     </g>
    </g>
   </g>
   <g id="matplotlib.axis_2">
    <g id="ytick_1">
     <g id="line2d_13">
      <path d="M 52.98625 158.807182 
L 423.463523 158.807182 
" clip-path="url(#p7858b6ab82)" style="fill: none; stroke: #e5e7eb; stroke-width: 0.6; stroke-linecap: round"/>
     </g>
     <g id="line2d_14">
      <defs>
       <path id="mf81323460e" d="M 0 0 
L -3.5 0 
" style="stroke: #6b7280; stroke-width: 0.8"/>
      </defs>
      <g>
       <use xlink:href="#mf81323460e" x="52.98625" y="158.807182" style="fill: #6b7280; stroke: #6b7280; stroke-width: 0.8"/>
      </g>
     </g>
     <g id="text_8">
      <!-- −0.10 -->
      <g style="fill: #6b7280" transform="translate(24.61 163.271182) scale(0.08 -0.08)">
       <defs>
        <path id="IBMPlexSansThai-Regular-80" d="M 429 1734 
L 429 2170 
L 3411 2170 
L 3411 1734 
L 429 1734 
z
" transform="scale(0.015625)"/>
        <path id="IBMPlexSansThai-Regular-4e" d="M 870 -77 
Q 666 -77 573 25 
Q 480 128 480 294 
L 480 378 
Q 480 544 573 646 
Q 666 749 870 749 
Q 1075 749 1168 646 
Q 1261 544 1261 378 
L 1261 294 
Q 1261 128 1168 25 
Q 1075 -77 870 -77 
z
" transform="scale(0.015625)"/>
       </defs>
       <use xlink:href="#IBMPlexSansThai-Regular-80"/>
       <use xlink:href="#IBMPlexSansThai-Regular-3b" transform="translate(60 0)"/>
       <use xlink:href="#IBMPlexSansThai-Regular-4e" transform="translate(120 0)"/>
       <use xlink:href="#IBMPlexSansThai-Regular-3e" transform="translate(147.203125 0)"/>
       <use xlink:href="#IBMPlexSansThai-Regular-3b" transform="translate(207.203125 0)"/>
      </g>
     </g>
    </g>
    <g id="ytick_2">
     <g id="line2d_15">
      <path d="M 52.98625 129.293091 
L 423.463523 129.293091 
" clip-path="url(#p7858b6ab82)" style="fill: none; stroke: #e5e7eb; stroke-width: 0.6; stroke-linecap: round"/>
     </g>
     <g id="line2d_16">
      <g>
       <use xlink:href="#mf81323460e" x="52.98625" y="129.293091" style="fill: #6b7280; stroke: #6b7280; stroke-width: 0.8"/>
      </g>
     </g>
     <g id="text_9">
      <!-- −0.05 -->
      <g style="fill: #6b7280" transform="translate(24.61 133.757091) scale(0.08 -0.08)">
       <defs>
        <path id="IBMPlexSansThai-Regular-42" d="M 3187 3994 
L 1229 3994 
L 1101 2291 
L 1146 2291 
Q 1306 2515 1507 2649 
Q 1709 2784 2061 2784 
Q 2349 2784 2592 2688 
Q 2835 2592 3014 2416 
Q 3194 2240 3293 1984 
Q 3392 1728 3392 1402 
Q 3392 1075 3289 803 
Q 3187 531 2992 336 
Q 2797 141 2518 32 
Q 2240 -77 1888 -77 
Q 1606 -77 1392 -13 
Q 1178 51 1011 160 
Q 845 269 720 403 
Q 595 538 493 685 
L 896 992 
Q 979 858 1072 749 
Q 1165 640 1277 563 
Q 1389 486 1536 444 
Q 1683 403 1888 403 
Q 2349 403 2585 646 
Q 2822 890 2822 1331 
L 2822 1395 
Q 2822 1837 2585 2080 
Q 2349 2323 1888 2323 
Q 1581 2323 1405 2211 
Q 1229 2099 1088 1946 
L 634 2010 
L 794 4467 
L 3187 4467 
L 3187 3994 
z
" transform="scale(0.015625)"/>
       </defs>
       <use xlink:href="#IBMPlexSansThai-Regular-80"/>
       <use xlink:href="#IBMPlexSansThai-Regular-3b" transform="translate(60 0)"/>
       <use xlink:href="#IBMPlexSansThai-Regular-4e" transform="translate(120 0)"/>
       <use xlink:href="#IBMPlexSansThai-Regular-3b" transform="translate(147.203125 0)"/>
       <use xlink:href="#IBMPlexSansThai-Regular-42" transform="translate(207.203125 0)"/>
      </g>
     </g>
    </g>
    <g id="ytick_3">
     <g id="line2d_17">
      <path d="M 52.98625 99.779 
L 423.463523 99.779 
" clip-path="url(#p7858b6ab82)" style="fill: none; stroke: #e5e7eb; stroke-width: 0.6; stroke-linecap: round"/>
     </g>
     <g id="line2d_18">
      <g>
       <use xlink:href="#mf81323460e" x="52.98625" y="99.779" style="fill: #6b7280; stroke: #6b7280; stroke-width: 0.8"/>
      </g>
     </g>
     <g id="text_10">
      <!-- 0.00 -->
      <g style="fill: #6b7280" transform="translate(29.41 104.243) scale(0.08 -0.08)">
       <use xlink:href="#IBMPlexSansThai-Regular-3b"/>
       <use xlink:href="#IBMPlexSansThai-Regular-4e" transform="translate(60 0)"/>
       <use xlink:href="#IBMPlexSansThai-Regular-3b" transform="translate(87.203125 0)"/>
       <use xlink:href="#IBMPlexSansThai-Regular-3b" transform="translate(147.203125 0)"/>
      </g>
     </g>
    </g>
    <g id="ytick_4">
     <g id="line2d_19">
      <path d="M 52.98625 70.264909 
L 423.463523 70.264909 
" clip-path="url(#p7858b6ab82)" style="fill: none; stroke: #e5e7eb; stroke-width: 0.6; stroke-linecap: round"/>
     </g>
     <g id="line2d_20">
      <g>
       <use xlink:href="#mf81323460e" x="52.98625" y="70.264909" style="fill: #6b7280; stroke: #6b7280; stroke-width: 0.8"/>
      </g>
     </g>
     <g id="text_11">
      <!-- 0.05 -->
      <g style="fill: #6b7280" transform="translate(29.41 74.728909) scale(0.08 -0.08)">
       <use xlink:href="#IBMPlexSansThai-Regular-3b"/>
       <use xlink:href="#IBMPlexSansThai-Regular-4e" transform="translate(60 0)"/>
       <use xlink:href="#IBMPlexSansThai-Regular-3b" transform="translate(87.203125 0)"/>
       <use xlink:href="#IBMPlexSansThai-Regular-42" transform="translate(147.203125 0)"/>
      </g>
     </g>
    </g>
    <g id="ytick_5">
     <g id="line2d_21">
      <path d="M 52.98625 40.750818 
L 423.463523 40.750818 
" clip-path="url(#p7858b6ab82)" style="fill: none; stroke: #e5e7eb; stroke-width: 0.6; stroke-linecap: round"/>
     </g>
     <g id="line2d_22">
      <g>
       <use xlink:href="#mf81323460e" x="52.98625" y="40.750818" style="fill: #6b7280; stroke: #6b7280; stroke-width: 0.8"/>
      </g>
     </g>
     <g id="text_12">
      <!-- 0.10 -->
      <g style="fill: #6b7280" transform="translate(29.41 45.214818) scale(0.08 -0.08)">
       <use xlink:href="#IBMPlexSansThai-Regular-3b"/>
       <use xlink:href="#IBMPlexSansThai-Regular-4e" transform="translate(60 0)"/>
       <use xlink:href="#IBMPlexSansThai-Regular-3e" transform="translate(87.203125 0)"/>
       <use xlink:href="#IBMPlexSansThai-Regular-3b" transform="translate(147.203125 0)"/>
      </g>
     </g>
    </g>
    <g id="text_13">
     <!-- price (USD) -->
     <g style="fill: #111418" transform="translate(15.804 122.634078) rotate(-90) scale(0.09 -0.09)">
      <defs>
       <path id="IBMPlexSansThai-Regular-16" d="M 544 3302 
L 1056 3302 
L 1056 2765 
L 1082 2765 
Q 1210 3078 1456 3228 
Q 1702 3379 2048 3379 
Q 2355 3379 2604 3257 
Q 2854 3136 3030 2912 
Q 3206 2688 3299 2368 
Q 3392 2048 3392 1651 
Q 3392 1254 3299 934 
Q 3206 614 3030 390 
Q 2854 166 2604 44 
Q 2355 -77 2048 -77 
Q 1376 -77 1082 538 
L 1056 538 
L 1056 -1280 
L 544 -1280 
L 544 3302 
z
M 1907 384 
Q 2342 384 2592 656 
Q 2842 928 2842 1370 
L 2842 1933 
Q 2842 2374 2592 2646 
Q 2342 2918 1907 2918 
Q 1734 2918 1577 2870 
Q 1421 2822 1305 2739 
Q 1190 2656 1123 2537 
Q 1056 2419 1056 2285 
L 1056 1056 
Q 1056 896 1123 771 
Q 1190 646 1305 560 
Q 1421 474 1577 429 
Q 1734 384 1907 384 
z
" transform="scale(0.015625)"/>
       <path id="IBMPlexSansThai-Regular-18" d="M 544 0 
L 544 3302 
L 1056 3302 
L 1056 2694 
L 1088 2694 
Q 1178 2931 1408 3116 
Q 1638 3302 2042 3302 
L 2240 3302 
L 2240 2790 
L 1939 2790 
Q 1523 2790 1289 2633 
Q 1056 2477 1056 2240 
L 1056 0 
L 544 0 
z
" transform="scale(0.015625)"/>
       <path id="IBMPlexSansThai-Regular-7" d="M 1773 -77 
Q 1427 -77 1152 44 
Q 877 166 688 390 
Q 499 614 400 934 
Q 301 1254 301 1651 
Q 301 2048 400 2368 
Q 499 2688 688 2912 
Q 877 3136 1152 3257 
Q 1427 3379 1773 3379 
Q 2266 3379 2563 3164 
Q 2861 2950 3008 2605 
L 2579 2387 
Q 2490 2643 2285 2784 
Q 2080 2925 1773 2925 
Q 1542 2925 1369 2851 
Q 1197 2778 1081 2646 
Q 966 2515 908 2332 
Q 851 2150 851 1933 
L 851 1370 
Q 851 934 1084 656 
Q 1318 378 1773 378 
Q 2394 378 2669 954 
L 3040 704 
Q 2880 346 2563 134 
Q 2246 -77 1773 -77 
z
" transform="scale(0.015625)"/>
       <path id="IBMPlexSansThai-Regular-3" transform="scale(0.015625)"/>
       <path id="IBMPlexSansThai-Regular-63" d="M 531 1997 
Q 531 2458 620 2886 
Q 710 3315 867 3683 
Q 1024 4051 1235 4352 
Q 1446 4653 1690 4864 
L 2176 4864 
Q 1907 4621 1692 4313 
Q 1478 4006 1328 3660 
Q 1178 3315 1094 2956 
Q 1011 2598 1011 2266 
L 1011 1715 
Q 1011 1376 1094 1017 
Q 1178 659 1331 313 
Q 1485 -32 1699 -339 
Q 1914 -646 2176 -877 
L 1690 -877 
Q 1453 -678 1241 -377 
Q 1030 -77 873 294 
Q 717 666 624 1098 
Q 531 1530 531 1997 
z
" transform="scale(0.015625)"/>
       <path id="IBMPlexSansThai-Regular-35" d="M 1101 4467 
L 1101 1702 
Q 1101 1062 1337 732 
Q 1574 403 2170 403 
Q 2765 403 3001 732 
Q 3238 1062 3238 1702 
L 3238 4467 
L 3776 4467 
L 3776 1830 
Q 3776 1344 3689 985 
Q 3603 627 3411 390 
Q 3219 154 2908 38 
Q 2598 -77 2150 -77 
Q 1702 -77 1398 38 
Q 1094 154 908 390 
Q 723 627 643 985 
Q 563 1344 563 1830 
L 563 4467 
L 1101 4467 
z
" transform="scale(0.015625)"/>
       <path id="IBMPlexSansThai-Regular-33" d="M 1850 -77 
Q 1306 -77 922 131 
Q 538 339 269 704 
L 666 1037 
Q 902 723 1190 560 
Q 1478 397 1869 397 
Q 2349 397 2601 627 
Q 2854 858 2854 1242 
Q 2854 1562 2662 1734 
Q 2470 1907 2029 2010 
L 1664 2093 
Q 1050 2234 726 2518 
Q 403 2803 403 3322 
Q 403 3616 512 3846 
Q 621 4077 816 4230 
Q 1011 4384 1283 4464 
Q 1555 4544 1882 4544 
Q 2387 4544 2748 4358 
Q 3110 4173 3360 3814 
L 2957 3520 
Q 2771 3776 2508 3923 
Q 2246 4070 1856 4070 
Q 1427 4070 1180 3888 
Q 934 3706 934 3341 
Q 934 3021 1142 2857 
Q 1350 2694 1773 2598 
L 2138 2515 
Q 2797 2368 3091 2067 
Q 3386 1766 3386 1267 
Q 3386 960 3280 710 
Q 3174 461 2976 288 
Q 2778 115 2493 19 
Q 2208 -77 1850 -77 
z
" transform="scale(0.015625)"/>
       <path id="IBMPlexSansThai-Regular-24" d="M 595 4467 
L 2093 4467 
Q 2509 4467 2848 4326 
Q 3187 4186 3427 3907 
Q 3667 3629 3795 3209 
Q 3923 2790 3923 2234 
Q 3923 1677 3795 1257 
Q 3667 838 3427 560 
Q 3187 282 2848 141 
Q 2509 0 2093 0 
L 595 0 
L 595 4467 
z
M 2093 474 
Q 2368 474 2598 566 
Q 2829 659 2995 838 
Q 3162 1018 3254 1277 
Q 3347 1536 3347 1869 
L 3347 2598 
Q 3347 2931 3254 3190 
Q 3162 3450 2995 3629 
Q 2829 3808 2598 3901 
Q 2368 3994 2093 3994 
L 1133 3994 
L 1133 474 
L 2093 474 
z
" transform="scale(0.015625)"/>
       <path id="IBMPlexSansThai-Regular-64" d="M 1613 1997 
Q 1613 1530 1520 1098 
Q 1427 666 1270 294 
Q 1114 -77 902 -377 
Q 691 -678 454 -877 
L -32 -877 
Q 230 -646 444 -339 
Q 659 -32 812 313 
Q 966 659 1049 1017 
Q 1133 1376 1133 1715 
L 1133 2266 
Q 1133 2598 1049 2956 
Q 966 3315 816 3660 
Q 666 4006 451 4313 
Q 237 4621 -32 4864 
L 454 4864 
Q 698 4653 909 4352 
Q 1120 4051 1277 3683 
Q 1434 3315 1523 2886 
Q 1613 2458 1613 1997 
z
" transform="scale(0.015625)"/>
      </defs>
      <use xlink:href="#IBMPlexSansThai-Regular-16"/>
      <use xlink:href="#IBMPlexSansThai-Regular-18" transform="translate(58 0)"/>
      <use xlink:href="#IBMPlexSansThai-Regular-f" transform="translate(94.703125 0)"/>
      <use xlink:href="#IBMPlexSansThai-Regular-7" transform="translate(119.703125 0)"/>
      <use xlink:href="#IBMPlexSansThai-Regular-9" transform="translate(169.40625 0)"/>
      <use xlink:href="#IBMPlexSansThai-Regular-3" transform="translate(224.3125 0)"/>
      <use xlink:href="#IBMPlexSansThai-Regular-63" transform="translate(247.90625 0)"/>
      <use xlink:href="#IBMPlexSansThai-Regular-35" transform="translate(281.40625 0)"/>
      <use xlink:href="#IBMPlexSansThai-Regular-33" transform="translate(349.203125 0)"/>
      <use xlink:href="#IBMPlexSansThai-Regular-24" transform="translate(407.296875 0)"/>
      <use xlink:href="#IBMPlexSansThai-Regular-64" transform="translate(474.390625 0)"/>
     </g>
    </g>
    <g id="text_14">
     <!-- +1e2 -->
     <g style="fill: #6b7280" transform="translate(52.98625 31.848) scale(0.08 -0.08)">
      <defs>
       <path id="IBMPlexSansThai-Regular-7f" d="M 1677 397 
L 1677 1734 
L 429 1734 
L 429 2170 
L 1677 2170 
L 1677 3507 
L 2163 3507 
L 2163 2170 
L 3411 2170 
L 3411 1734 
L 2163 1734 
L 2163 397 
L 1677 397 
z
" transform="scale(0.015625)"/>
      </defs>
      <use xlink:href="#IBMPlexSansThai-Regular-7f"/>
      <use xlink:href="#IBMPlexSansThai-Regular-3e" transform="translate(60 0)"/>
      <use xlink:href="#IBMPlexSansThai-Regular-9" transform="translate(120 0)"/>
      <use xlink:href="#IBMPlexSansThai-Regular-3f" transform="translate(174.90625 0)"/>
     </g>
    </g>
   </g>
   <g id="line2d_23">
    <path d="M 69.826126 99.779 
L 100.444082 99.779 
L 131.062039 99.779 
L 161.679995 99.779 
L 192.297952 99.779 
L 222.915908 99.779 
L 253.533865 99.779 
L 284.151821 99.779 
L 314.769777 99.779 
L 345.387734 99.779 
L 376.00569 99.779 
L 406.623647 99.779 
" clip-path="url(#p7858b6ab82)" style="fill: none; stroke: #059669; stroke-width: 2; stroke-linecap: round"/>
   </g>
   <g id="line2d_24">
    <path d="M 69.826126 40.750818 
L 85.135104 40.750818 
L 85.135104 158.807182 
L 115.753061 158.807182 
L 115.753061 40.750818 
L 146.371017 40.750818 
L 146.371017 158.807182 
L 176.988974 158.807182 
L 176.988974 40.750818 
L 207.60693 40.750818 
L 207.60693 40.750818 
L 238.224886 40.750818 
L 238.224886 158.807182 
L 268.842843 158.807182 
L 268.842843 40.750818 
L 299.460799 40.750818 
L 299.460799 158.807182 
L 330.078756 158.807182 
L 330.078756 40.750818 
L 360.696712 40.750818 
L 360.696712 158.807182 
L 391.314668 158.807182 
L 391.314668 40.750818 
L 406.623647 40.750818 
" clip-path="url(#p7858b6ab82)" style="fill: none; stroke: #dc2626; stroke-width: 2; stroke-linecap: round"/>
   </g>
   <g id="line2d_25">
    <path d="M 52.98625 158.807182 
L 423.463523 158.807182 
" clip-path="url(#p7858b6ab82)" style="fill: none; stroke-dasharray: 1.8,2.97; stroke-dashoffset: 0; stroke: #6b7280; stroke-width: 1.8"/>
   </g>
   <g id="line2d_26">
    <path d="M 52.98625 40.750818 
L 423.463523 40.750818 
" clip-path="url(#p7858b6ab82)" style="fill: none; stroke-dasharray: 1.8,2.97; stroke-dashoffset: 0; stroke: #6b7280; stroke-width: 1.8"/>
   </g>
   <g id="patch_3">
    <path d="M 52.98625 164.71 
L 52.98625 34.848 
" style="fill: none; stroke: #6b7280; stroke-width: 0.8; stroke-linejoin: miter; stroke-linecap: square"/>
   </g>
   <g id="patch_4">
    <path d="M 423.463523 164.71 
L 423.463523 34.848 
" style="fill: none; stroke: #6b7280; stroke-width: 0.8; stroke-linejoin: miter; stroke-linecap: square"/>
   </g>
   <g id="patch_5">
    <path d="M 52.98625 164.71 
L 423.463523 164.71 
" style="fill: none; stroke: #6b7280; stroke-width: 0.8; stroke-linejoin: miter; stroke-linecap: square"/>
   </g>
   <g id="patch_6">
    <path d="M 52.98625 34.848 
L 423.463523 34.848 
" style="fill: none; stroke: #6b7280; stroke-width: 0.8; stroke-linejoin: miter; stroke-linecap: square"/>
   </g>
   <g id="text_15">
    <!-- A trade can move even when the mid does not -->
    <g style="fill: #111418" transform="translate(52.98625 16.92) scale(0.1 -0.1)">
     <defs>
      <path id="IBMPlexSansThai-SemiBold-21" d="M 3290 0 
L 2931 1139 
L 1344 1139 
L 992 0 
L 134 0 
L 1632 4467 
L 2682 4467 
L 4166 0 
L 3290 0 
z
M 2150 3699 
L 2118 3699 
L 1549 1862 
L 2726 1862 
L 2150 3699 
z
" transform="scale(0.015625)"/>
      <path id="IBMPlexSansThai-SemiBold-3" transform="scale(0.015625)"/>
      <path id="IBMPlexSansThai-SemiBold-1a" d="M 1517 0 
Q 1094 0 873 221 
Q 653 442 653 851 
L 653 2688 
L 160 2688 
L 160 3341 
L 416 3341 
Q 602 3341 669 3427 
Q 736 3514 736 3686 
L 736 4256 
L 1472 4256 
L 1472 3341 
L 2157 3341 
L 2157 2688 
L 1472 2688 
L 1472 653 
L 2106 653 
L 2106 0 
L 1517 0 
z
" transform="scale(0.015625)"/>
      <path id="IBMPlexSansThai-SemiBold-18" d="M 474 0 
L 474 3341 
L 1293 3341 
L 1293 2650 
L 1325 2650 
Q 1357 2784 1424 2909 
Q 1491 3034 1600 3130 
Q 1709 3226 1859 3283 
Q 2010 3341 2208 3341 
L 2387 3341 
L 2387 2566 
L 2131 2566 
Q 1715 2566 1504 2444 
Q 1293 2323 1293 2048 
L 1293 0 
L 474 0 
z
" transform="scale(0.015625)"/>
      <path id="IBMPlexSansThai-SemiBold-4" d="M 2931 0 
Q 2662 0 2505 157 
Q 2349 314 2310 576 
L 2272 576 
Q 2189 250 1933 86 
Q 1677 -77 1299 -77 
Q 787 -77 512 192 
Q 237 461 237 909 
Q 237 1427 608 1680 
Q 979 1933 1664 1933 
L 2234 1933 
L 2234 2176 
Q 2234 2458 2086 2611 
Q 1939 2765 1613 2765 
Q 1325 2765 1149 2640 
Q 973 2515 851 2342 
L 365 2778 
Q 550 3066 857 3242 
Q 1165 3418 1670 3418 
Q 2349 3418 2701 3110 
Q 3053 2803 3053 2227 
L 3053 653 
L 3386 653 
L 3386 0 
L 2931 0 
z
M 1574 518 
Q 1850 518 2042 640 
Q 2234 762 2234 998 
L 2234 1440 
L 1709 1440 
Q 1069 1440 1069 1030 
L 1069 922 
Q 1069 717 1200 617 
Q 1331 518 1574 518 
z
" transform="scale(0.015625)"/>
      <path id="IBMPlexSansThai-SemiBold-8" d="M 2547 557 
L 2515 557 
Q 2426 269 2176 96 
Q 1926 -77 1594 -77 
Q 960 -77 624 377 
Q 288 832 288 1677 
Q 288 2515 624 2966 
Q 960 3418 1594 3418 
Q 1926 3418 2176 3248 
Q 2426 3078 2515 2790 
L 2547 2790 
L 2547 4736 
L 3366 4736 
L 3366 0 
L 2547 0 
L 2547 557 
z
M 1856 602 
Q 2150 602 2348 742 
Q 2547 883 2547 1146 
L 2547 2208 
Q 2547 2451 2348 2598 
Q 2150 2746 1856 2746 
Q 1536 2746 1341 2531 
Q 1146 2317 1146 1958 
L 1146 1382 
Q 1146 1024 1341 813 
Q 1536 602 1856 602 
z
" transform="scale(0.015625)"/>
      <path id="IBMPlexSansThai-SemiBold-9" d="M 1824 -77 
Q 1453 -77 1161 48 
Q 870 173 668 400 
Q 467 627 358 950 
Q 250 1274 250 1677 
Q 250 2074 355 2394 
Q 461 2714 659 2941 
Q 858 3168 1146 3293 
Q 1434 3418 1798 3418 
Q 2189 3418 2477 3283 
Q 2765 3149 2950 2918 
Q 3136 2688 3229 2384 
Q 3322 2080 3322 1734 
L 3322 1466 
L 1101 1466 
L 1101 1382 
Q 1101 1018 1305 797 
Q 1510 576 1914 576 
Q 2221 576 2416 704 
Q 2611 832 2765 1030 
L 3206 538 
Q 3002 250 2646 86 
Q 2291 -77 1824 -77 
z
M 1811 2803 
Q 1485 2803 1293 2585 
Q 1101 2368 1101 2022 
L 1101 1971 
L 2470 1971 
L 2470 2029 
Q 2470 2374 2300 2588 
Q 2131 2803 1811 2803 
z
" transform="scale(0.015625)"/>
      <path id="IBMPlexSansThai-SemiBold-7" d="M 1792 -77 
Q 1421 -77 1133 44 
Q 845 166 649 396 
Q 454 627 352 950 
Q 250 1274 250 1677 
Q 250 2080 352 2400 
Q 454 2720 649 2947 
Q 845 3174 1133 3296 
Q 1421 3418 1792 3418 
Q 2298 3418 2627 3194 
Q 2957 2970 3104 2573 
L 2432 2272 
Q 2374 2483 2217 2620 
Q 2061 2758 1792 2758 
Q 1446 2758 1276 2540 
Q 1107 2323 1107 1971 
L 1107 1363 
Q 1107 1011 1276 796 
Q 1446 582 1792 582 
Q 2086 582 2246 732 
Q 2406 883 2496 1107 
L 3123 806 
Q 2957 365 2617 144 
Q 2278 -77 1792 -77 
z
" transform="scale(0.015625)"/>
      <path id="IBMPlexSansThai-SemiBold-14" d="M 474 0 
L 474 3341 
L 1293 3341 
L 1293 2784 
L 1325 2784 
Q 1427 3053 1648 3235 
Q 1869 3418 2259 3418 
Q 2778 3418 3053 3078 
Q 3328 2739 3328 2112 
L 3328 0 
L 2509 0 
L 2509 2029 
Q 2509 2387 2381 2566 
Q 2253 2746 1958 2746 
Q 1830 2746 1712 2710 
Q 1594 2675 1501 2608 
Q 1408 2541 1350 2441 
Q 1293 2342 1293 2208 
L 1293 0 
L 474 0 
z
" transform="scale(0.015625)"/>
      <path id="IBMPlexSansThai-SemiBold-13" d="M 474 0 
L 474 3341 
L 1293 3341 
L 1293 2784 
L 1325 2784 
Q 1421 3046 1632 3232 
Q 1843 3418 2221 3418 
Q 2566 3418 2816 3251 
Q 3066 3085 3187 2746 
L 3200 2746 
Q 3290 3027 3555 3222 
Q 3821 3418 4224 3418 
Q 4717 3418 4982 3078 
Q 5248 2739 5248 2112 
L 5248 0 
L 4429 0 
L 4429 2029 
Q 4429 2746 3891 2746 
Q 3770 2746 3658 2710 
Q 3546 2675 3459 2608 
Q 3373 2541 3321 2441 
Q 3270 2342 3270 2208 
L 3270 0 
L 2451 0 
L 2451 2029 
Q 2451 2746 1914 2746 
Q 1798 2746 1686 2710 
Q 1574 2675 1488 2608 
Q 1402 2541 1347 2441 
Q 1293 2342 1293 2208 
L 1293 0 
L 474 0 
z
" transform="scale(0.015625)"/>
      <path id="IBMPlexSansThai-SemiBold-15" d="M 1798 -77 
Q 1440 -77 1155 44 
Q 870 166 668 396 
Q 467 627 358 950 
Q 250 1274 250 1677 
Q 250 2080 358 2400 
Q 467 2720 668 2947 
Q 870 3174 1155 3296 
Q 1440 3418 1798 3418 
Q 2157 3418 2445 3296 
Q 2733 3174 2934 2947 
Q 3136 2720 3245 2400 
Q 3354 2080 3354 1677 
Q 3354 1274 3245 950 
Q 3136 627 2934 396 
Q 2733 166 2445 44 
Q 2157 -77 1798 -77 
z
M 1798 582 
Q 2125 582 2310 780 
Q 2496 979 2496 1363 
L 2496 1984 
Q 2496 2362 2310 2560 
Q 2125 2758 1798 2758 
Q 1478 2758 1292 2560 
Q 1107 2362 1107 1984 
L 1107 1363 
Q 1107 979 1292 780 
Q 1478 582 1798 582 
z
" transform="scale(0.015625)"/>
      <path id="IBMPlexSansThai-SemiBold-1c" d="M 1190 0 
L 77 3341 
L 883 3341 
L 1350 1901 
L 1677 710 
L 1722 710 
L 2048 1901 
L 2502 3341 
L 3283 3341 
L 2163 0 
L 1190 0 
z
" transform="scale(0.015625)"/>
      <path id="IBMPlexSansThai-SemiBold-1d" d="M 147 3341 
L 934 3341 
L 1274 1965 
L 1536 819 
L 1562 819 
L 1869 1965 
L 2259 3341 
L 3002 3341 
L 3405 1965 
L 3718 819 
L 3744 819 
L 4006 1965 
L 4339 3341 
L 5101 3341 
L 4186 0 
L 3302 0 
L 2874 1472 
L 2624 2381 
L 2605 2381 
L 2362 1472 
L 1939 0 
L 1069 0 
L 147 3341 
z
" transform="scale(0.015625)"/>
      <path id="IBMPlexSansThai-SemiBold-e" d="M 474 4736 
L 1293 4736 
L 1293 2784 
L 1325 2784 
Q 1427 3053 1648 3235 
Q 1869 3418 2259 3418 
Q 2778 3418 3053 3078 
Q 3328 2739 3328 2112 
L 3328 0 
L 2509 0 
L 2509 2029 
Q 2509 2387 2381 2566 
Q 2253 2746 1958 2746 
Q 1830 2746 1712 2710 
Q 1594 2675 1501 2608 
Q 1408 2541 1350 2441 
Q 1293 2342 1293 2208 
L 1293 0 
L 474 0 
L 474 4736 
z
" transform="scale(0.015625)"/>
      <path id="IBMPlexSansThai-SemiBold-f" d="M 883 3827 
Q 627 3827 515 3942 
Q 403 4058 403 4237 
L 403 4365 
Q 403 4544 515 4659 
Q 627 4774 883 4774 
Q 1133 4774 1248 4659 
Q 1363 4544 1363 4365 
L 1363 4237 
Q 1363 4058 1248 3942 
Q 1133 3827 883 3827 
z
M 474 3341 
L 1293 3341 
L 1293 0 
L 474 0 
L 474 3341 
z
" transform="scale(0.015625)"/>
      <path id="IBMPlexSansThai-SemiBold-19" d="M 1568 -77 
Q 1088 -77 761 86 
Q 435 250 186 538 
L 685 1024 
Q 870 813 1091 691 
Q 1312 570 1600 570 
Q 1894 570 2025 672 
Q 2157 774 2157 954 
Q 2157 1101 2064 1187 
Q 1971 1274 1747 1306 
L 1414 1350 
Q 870 1421 585 1661 
Q 301 1901 301 2362 
Q 301 2605 390 2800 
Q 480 2995 646 3132 
Q 813 3270 1046 3344 
Q 1280 3418 1568 3418 
Q 1811 3418 2000 3382 
Q 2189 3347 2342 3280 
Q 2496 3213 2624 3113 
Q 2752 3014 2874 2893 
L 2394 2413 
Q 2246 2566 2041 2668 
Q 1837 2771 1594 2771 
Q 1325 2771 1206 2675 
Q 1088 2579 1088 2426 
Q 1088 2259 1187 2172 
Q 1286 2086 1523 2048 
L 1862 2003 
Q 2944 1850 2944 1018 
Q 2944 774 2845 572 
Q 2746 371 2566 227 
Q 2387 83 2134 3 
Q 1882 -77 1568 -77 
z
" transform="scale(0.015625)"/>
     </defs>
     <use xlink:href="#IBMPlexSansThai-SemiBold-21"/>
     <use xlink:href="#IBMPlexSansThai-SemiBold-3" transform="translate(67.203125 0)"/>
     <use xlink:href="#IBMPlexSansThai-SemiBold-1a" transform="translate(90.796875 0)"/>
     <use xlink:href="#IBMPlexSansThai-SemiBold-18" transform="translate(128.203125 0)"/>
     <use xlink:href="#IBMPlexSansThai-SemiBold-4" transform="translate(166.40625 0)"/>
     <use xlink:href="#IBMPlexSansThai-SemiBold-8" transform="translate(222.3125 0)"/>
     <use xlink:href="#IBMPlexSansThai-SemiBold-9" transform="translate(282.3125 0)"/>
     <use xlink:href="#IBMPlexSansThai-SemiBold-3" transform="translate(338.109375 0)"/>
     <use xlink:href="#IBMPlexSansThai-SemiBold-7" transform="translate(361.703125 0)"/>
     <use xlink:href="#IBMPlexSansThai-SemiBold-4" transform="translate(413 0)"/>
     <use xlink:href="#IBMPlexSansThai-SemiBold-14" transform="translate(468.90625 0)"/>
     <use xlink:href="#IBMPlexSansThai-SemiBold-3" transform="translate(527.703125 0)"/>
     <use xlink:href="#IBMPlexSansThai-SemiBold-13" transform="translate(551.296875 0)"/>
     <use xlink:href="#IBMPlexSansThai-SemiBold-15" transform="translate(640.09375 0)"/>
     <use xlink:href="#IBMPlexSansThai-SemiBold-1c" transform="translate(695.59375 0)"/>
     <use xlink:href="#IBMPlexSansThai-SemiBold-9" transform="translate(747.203125 0)"/>
     <use xlink:href="#IBMPlexSansThai-SemiBold-3" transform="translate(803 0)"/>
     <use xlink:href="#IBMPlexSansThai-SemiBold-9" transform="translate(826.59375 0)"/>
     <use xlink:href="#IBMPlexSansThai-SemiBold-1c" transform="translate(881.484375 0)"/>
     <use xlink:href="#IBMPlexSansThai-SemiBold-9" transform="translate(933.09375 0)"/>
     <use xlink:href="#IBMPlexSansThai-SemiBold-14" transform="translate(988.890625 0)"/>
     <use xlink:href="#IBMPlexSansThai-SemiBold-3" transform="translate(1047.6875 0)"/>
     <use xlink:href="#IBMPlexSansThai-SemiBold-1d" transform="translate(1071.28125 0)"/>
     <use xlink:href="#IBMPlexSansThai-SemiBold-e" transform="translate(1153.1875 0)"/>
     <use xlink:href="#IBMPlexSansThai-SemiBold-9" transform="translate(1211.984375 0)"/>
     <use xlink:href="#IBMPlexSansThai-SemiBold-14" transform="translate(1267.78125 0)"/>
     <use xlink:href="#IBMPlexSansThai-SemiBold-3" transform="translate(1326.578125 0)"/>
     <use xlink:href="#IBMPlexSansThai-SemiBold-1a" transform="translate(1350.171875 0)"/>
     <use xlink:href="#IBMPlexSansThai-SemiBold-e" transform="translate(1387.578125 0)"/>
     <use xlink:href="#IBMPlexSansThai-SemiBold-9" transform="translate(1446.375 0)"/>
     <use xlink:href="#IBMPlexSansThai-SemiBold-3" transform="translate(1502.171875 0)"/>
     <use xlink:href="#IBMPlexSansThai-SemiBold-13" transform="translate(1525.765625 0)"/>
     <use xlink:href="#IBMPlexSansThai-SemiBold-f" transform="translate(1614.5625 0)"/>
     <use xlink:href="#IBMPlexSansThai-SemiBold-8" transform="translate(1642.15625 0)"/>
     <use xlink:href="#IBMPlexSansThai-SemiBold-3" transform="translate(1702.15625 0)"/>
     <use xlink:href="#IBMPlexSansThai-SemiBold-8" transform="translate(1725.75 0)"/>
     <use xlink:href="#IBMPlexSansThai-SemiBold-15" transform="translate(1785.75 0)"/>
     <use xlink:href="#IBMPlexSansThai-SemiBold-9" transform="translate(1842.046875 0)"/>
     <use xlink:href="#IBMPlexSansThai-SemiBold-19" transform="translate(1897.84375 0)"/>
     <use xlink:href="#IBMPlexSansThai-SemiBold-3" transform="translate(1947.75 0)"/>
     <use xlink:href="#IBMPlexSansThai-SemiBold-14" transform="translate(1971.34375 0)"/>
     <use xlink:href="#IBMPlexSansThai-SemiBold-15" transform="translate(2030.140625 0)"/>
     <use xlink:href="#IBMPlexSansThai-SemiBold-1a" transform="translate(2086.03125 0)"/>
    </g>
   </g>
   <g id="legend_1">
    <g id="line2d_27">
     <path d="M 59.28625 137.172 
L 66.28625 137.172 
L 73.28625 137.172 
" style="fill: none; stroke: #059669; stroke-width: 2; stroke-linecap: round"/>
    </g>
    <g id="text_16">
     <!-- efficient mid (USD) -->
     <g transform="translate(78.88625 139.622) scale(0.07 -0.07)">
      <defs>
       <path id="IBMPlexSansThai-Regular-a" d="M 723 2854 
L 186 2854 
L 186 3302 
L 723 3302 
L 723 3968 
Q 723 4314 902 4525 
Q 1082 4736 1446 4736 
L 1946 4736 
L 1946 4288 
L 1235 4288 
L 1235 3302 
L 1946 3302 
L 1946 2854 
L 1235 2854 
L 1235 0 
L 723 0 
L 723 2854 
z
" transform="scale(0.015625)"/>
       <path id="IBMPlexSansThai-Regular-b0" d="M 723 2854 
L 186 2854 
L 186 3302 
L 723 3302 
L 723 3968 
Q 723 4314 902 4525 
Q 1082 4736 1446 4736 
L 1946 4736 
L 1946 4288 
L 1235 4288 
L 1235 3302 
L 3085 3302 
L 3085 0 
L 2573 0 
L 2573 2854 
L 1235 2854 
L 1235 0 
L 723 0 
L 723 2854 
z
M 2829 4077 
Q 2662 4077 2588 4157 
Q 2515 4237 2515 4365 
L 2515 4448 
Q 2515 4576 2588 4656 
Q 2662 4736 2829 4736 
Q 2995 4736 3068 4656 
Q 3142 4576 3142 4448 
L 3142 4365 
Q 3142 4237 3068 4157 
Q 2995 4077 2829 4077 
z
" transform="scale(0.015625)"/>
       <path id="IBMPlexSansThai-Regular-8" d="M 2656 538 
L 2630 538 
Q 2330 -77 1664 -77 
Q 1357 -77 1107 44 
Q 858 166 682 390 
Q 506 614 413 934 
Q 320 1254 320 1651 
Q 320 2048 413 2368 
Q 506 2688 682 2912 
Q 858 3136 1107 3257 
Q 1357 3379 1664 3379 
Q 2010 3379 2256 3228 
Q 2502 3078 2630 2765 
L 2656 2765 
L 2656 4736 
L 3168 4736 
L 3168 0 
L 2656 0 
L 2656 538 
z
M 1805 384 
Q 1978 384 2134 429 
Q 2291 474 2406 560 
Q 2522 646 2589 771 
Q 2656 896 2656 1056 
L 2656 2285 
Q 2656 2419 2589 2537 
Q 2522 2656 2406 2739 
Q 2291 2822 2134 2870 
Q 1978 2918 1805 2918 
Q 1370 2918 1120 2646 
Q 870 2374 870 1933 
L 870 1370 
Q 870 928 1120 656 
Q 1370 384 1805 384 
z
" transform="scale(0.015625)"/>
      </defs>
      <use xlink:href="#IBMPlexSansThai-Regular-9"/>
      <use xlink:href="#IBMPlexSansThai-Regular-a" transform="translate(54.90625 0)"/>
      <use xlink:href="#IBMPlexSansThai-Regular-b0" transform="translate(87.3125 0)"/>
      <use xlink:href="#IBMPlexSansThai-Regular-7" transform="translate(144.015625 0)"/>
      <use xlink:href="#IBMPlexSansThai-Regular-f" transform="translate(194.3125 0)"/>
      <use xlink:href="#IBMPlexSansThai-Regular-9" transform="translate(219.3125 0)"/>
      <use xlink:href="#IBMPlexSansThai-Regular-14" transform="translate(274.21875 0)"/>
      <use xlink:href="#IBMPlexSansThai-Regular-1a" transform="translate(331.015625 0)"/>
      <use xlink:href="#IBMPlexSansThai-Regular-3" transform="translate(366.109375 0)"/>
      <use xlink:href="#IBMPlexSansThai-Regular-13" transform="translate(389.703125 0)"/>
      <use xlink:href="#IBMPlexSansThai-Regular-f" transform="translate(477 0)"/>
      <use xlink:href="#IBMPlexSansThai-Regular-8" transform="translate(502 0)"/>
      <use xlink:href="#IBMPlexSansThai-Regular-3" transform="translate(560 0)"/>
      <use xlink:href="#IBMPlexSansThai-Regular-63" transform="translate(583.59375 0)"/>
      <use xlink:href="#IBMPlexSansThai-Regular-35" transform="translate(617.09375 0)"/>
      <use xlink:href="#IBMPlexSansThai-Regular-33" transform="translate(684.890625 0)"/>
      <use xlink:href="#IBMPlexSansThai-Regular-24" transform="translate(742.984375 0)"/>
      <use xlink:href="#IBMPlexSansThai-Regular-64" transform="translate(810.078125 0)"/>
     </g>
    </g>
    <g id="line2d_28">
     <path d="M 59.28625 152.222 
L 62.78625 152.222 
L 62.78625 152.222 
L 69.78625 152.222 
L 69.78625 152.222 
L 73.28625 152.222 
" style="fill: none; stroke: #dc2626; stroke-width: 2; stroke-linecap: round"/>
    </g>
    <g id="text_17">
     <!-- trade price (USD) -->
     <g transform="translate(78.88625 154.672) scale(0.07 -0.07)">
      <defs>
       <path id="IBMPlexSansThai-Regular-4" d="M 2944 0 
Q 2656 0 2531 153 
Q 2406 307 2374 538 
L 2342 538 
Q 2234 230 1984 76 
Q 1734 -77 1389 -77 
Q 864 -77 573 192 
Q 282 461 282 922 
Q 282 1389 624 1638 
Q 966 1888 1690 1888 
L 2342 1888 
L 2342 2214 
Q 2342 2566 2150 2752 
Q 1958 2938 1562 2938 
Q 1261 2938 1059 2803 
Q 858 2669 723 2445 
L 416 2733 
Q 550 3002 844 3190 
Q 1139 3379 1587 3379 
Q 2189 3379 2521 3084 
Q 2854 2790 2854 2266 
L 2854 448 
L 3232 448 
L 3232 0 
L 2944 0 
z
M 1472 358 
Q 1664 358 1824 403 
Q 1984 448 2099 531 
Q 2214 614 2278 723 
Q 2342 832 2342 960 
L 2342 1504 
L 1664 1504 
Q 1222 1504 1020 1376 
Q 819 1248 819 1005 
L 819 870 
Q 819 627 995 492 
Q 1171 358 1472 358 
z
" transform="scale(0.015625)"/>
      </defs>
      <use xlink:href="#IBMPlexSansThai-Regular-1a"/>
      <use xlink:href="#IBMPlexSansThai-Regular-18" transform="translate(35.09375 0)"/>
      <use xlink:href="#IBMPlexSansThai-Regular-4" transform="translate(71.390625 0)"/>
      <use xlink:href="#IBMPlexSansThai-Regular-8" transform="translate(124.796875 0)"/>
      <use xlink:href="#IBMPlexSansThai-Regular-9" transform="translate(182.796875 0)"/>
      <use xlink:href="#IBMPlexSansThai-Regular-3" transform="translate(237.703125 0)"/>
      <use xlink:href="#IBMPlexSansThai-Regular-16" transform="translate(261.296875 0)"/>
      <use xlink:href="#IBMPlexSansThai-Regular-18" transform="translate(319.296875 0)"/>
      <use xlink:href="#IBMPlexSansThai-Regular-f" transform="translate(356 0)"/>
      <use xlink:href="#IBMPlexSansThai-Regular-7" transform="translate(381 0)"/>
      <use xlink:href="#IBMPlexSansThai-Regular-9" transform="translate(430.703125 0)"/>
      <use xlink:href="#IBMPlexSansThai-Regular-3" transform="translate(485.609375 0)"/>
      <use xlink:href="#IBMPlexSansThai-Regular-63" transform="translate(509.203125 0)"/>
      <use xlink:href="#IBMPlexSansThai-Regular-35" transform="translate(542.703125 0)"/>
      <use xlink:href="#IBMPlexSansThai-Regular-33" transform="translate(610.5 0)"/>
      <use xlink:href="#IBMPlexSansThai-Regular-24" transform="translate(668.59375 0)"/>
      <use xlink:href="#IBMPlexSansThai-Regular-64" transform="translate(735.6875 0)"/>
     </g>
    </g>
   </g>
  </g>
 </g>
 <defs>
  <clipPath id="p7858b6ab82">
   <rect x="52.98625" y="34.848" width="370.477273" height="129.862"/>
  </clipPath>
 </defs>
</svg>
